<svg width="70" height="70" viewBox="0 0 70 70" fill="none" xmlns="http://www.w3.org/2000/svg">
<path d="M35 68.845C28.3061 68.845 21.7625 66.8601 16.1967 63.1411C10.6309 59.4222 6.29293 54.1363 3.73128 47.952C1.16963 41.7676 0.499389 34.9625 1.80531 28.3972C3.11122 21.8319 6.33465 15.8013 11.068 11.068C15.8013 6.33471 21.8319 3.11128 28.3972 1.80537C34.9624 0.49945 41.7675 1.16969 47.9519 3.73134C54.1363 6.29299 59.4221 10.631 63.1411 16.1968C66.86 21.7626 68.845 28.3061 68.845 35C68.8339 43.9729 65.2645 52.575 58.9197 58.9198C52.575 65.2646 43.9728 68.8339 35 68.845ZM35 3.97604C28.864 3.97604 22.8658 5.79557 17.764 9.20453C12.6621 12.6135 8.68568 17.4588 6.33755 23.1277C3.98941 28.7966 3.37503 35.0345 4.5721 41.0525C5.76917 47.0706 8.72392 52.5985 13.0627 56.9373C17.4015 61.2761 22.9294 64.2309 28.9475 65.4279C34.9656 66.625 41.2035 66.0106 46.8724 63.6625C52.5413 61.3144 57.3865 57.3379 60.7955 52.2361C64.2045 47.1342 66.024 41.136 66.024 35C66.0147 26.7748 62.7432 18.8891 56.927 13.073C51.1109 7.25687 43.2252 3.98531 35 3.97604Z" fill="white"/>
<path d="M28.7 30.016C28.3287 30.016 27.9726 29.8685 27.71 29.606C27.4475 29.3434 27.3 28.9873 27.3 28.616C27.3 27.3276 26.7882 26.0919 25.8771 25.1809C24.9661 24.2698 23.7304 23.758 22.442 23.758C21.1536 23.758 19.9179 24.2698 19.0069 25.1809C18.0958 26.0919 17.584 27.3276 17.584 28.616C17.584 28.9873 17.4365 29.3434 17.1739 29.606C16.9114 29.8685 16.5553 30.016 16.184 30.016C15.8127 30.016 15.4566 29.8685 15.194 29.606C14.9315 29.3434 14.784 28.9873 14.784 28.616C14.784 26.5739 15.5952 24.6153 17.0393 23.1713C18.4833 21.7273 20.4418 20.916 22.484 20.916C24.5262 20.916 26.4847 21.7273 27.9287 23.1713C29.3727 24.6153 30.184 26.5739 30.184 28.616C30.1843 28.8072 30.1455 28.9963 30.07 29.1719C29.9944 29.3475 29.8837 29.5057 29.7447 29.6369C29.6057 29.7681 29.4413 29.8694 29.2616 29.9346C29.0819 29.9998 28.8908 30.0275 28.7 30.016Z" fill="white"/>
<path d="M53.823 30.142C53.4517 30.142 53.0956 29.9945 52.8331 29.7319C52.5705 29.4694 52.423 29.1133 52.423 28.742C52.4258 28.1036 52.3028 27.4709 52.061 26.88C51.8192 26.2891 51.4635 25.7516 51.014 25.2983C50.5645 24.8449 50.0301 24.4845 49.4413 24.2376C48.8526 23.9907 48.2209 23.8623 47.5825 23.8595C46.9441 23.8567 46.3114 23.9798 45.7205 24.2215C45.1296 24.4633 44.5922 24.8191 44.1388 25.2686C43.6854 25.718 43.325 26.2524 43.0781 26.8412C42.8313 27.43 42.7028 28.0616 42.7 28.7C42.7 29.0713 42.5525 29.4274 42.29 29.6899C42.0274 29.9525 41.6713 30.1 41.3 30.1C40.9287 30.1 40.5726 29.9525 40.3101 29.6899C40.0475 29.4274 39.9 29.0713 39.9 28.7C39.9 26.6578 40.7113 24.6993 42.1553 23.2553C43.5993 21.8112 45.5579 21 47.6 21C49.6422 21 51.6007 21.8112 53.0447 23.2553C54.4888 24.6993 55.3 26.6578 55.3 28.7C55.3061 28.894 55.2719 29.0872 55.1993 29.2672C55.1268 29.4473 55.0176 29.6103 54.8787 29.7459C54.7398 29.8815 54.5743 29.9867 54.3925 30.0549C54.2108 30.1231 54.0168 30.1528 53.823 30.142Z" fill="white"/>
<path d="M35 53.655C31.6581 53.6428 28.454 52.3222 26.074 49.9762C23.694 47.6302 22.3274 44.4454 22.267 41.104C22.2642 40.9202 22.2977 40.7376 22.3655 40.5667C22.4333 40.3958 22.5342 40.2399 22.6622 40.1079C22.9208 39.8414 23.2747 39.6886 23.646 39.683C24.0173 39.6774 24.3756 39.8196 24.6421 40.0782C24.9086 40.3368 25.0614 40.6907 25.067 41.062C25.067 43.689 26.1106 46.2084 27.9681 48.0659C29.8257 49.9235 32.345 50.967 34.972 50.967C37.599 50.967 40.1183 49.9235 41.9759 48.0659C43.8334 46.2084 44.877 43.689 44.877 41.062C44.8798 40.8782 44.9187 40.6967 44.9916 40.5279C45.0645 40.3591 45.17 40.2063 45.3019 40.0782C45.4339 39.9502 45.5897 39.8494 45.7606 39.7816C45.9316 39.7137 46.1142 39.6803 46.298 39.683C46.4819 39.6858 46.6634 39.7247 46.8322 39.7976C47.001 39.8705 47.1537 39.976 47.2818 40.1079C47.4099 40.2399 47.5107 40.3958 47.5785 40.5667C47.6463 40.7376 47.6798 40.9202 47.677 41.104C47.6151 44.4352 46.2557 47.6107 43.8881 49.9547C41.5205 52.2988 38.3316 53.6264 35 53.655Z" fill="white"/>
</svg>
