<svg width="142" height="35" viewBox="0 0 142 35" fill="none" xmlns="http://www.w3.org/2000/svg">
<g clip-path="url(#clip0_12_261)">
<path d="M0 35H27.1756L36.2342 26.25L0 35Z" fill="url(#paint0_linear_12_261)"/>
<path d="M0 0V8.75L27.1756 0H0Z" fill="url(#paint1_linear_12_261)"/>
<path d="M24.1568 20.416L36.2342 8.75L27.1756 0L0 8.75L24.1568 20.416Z" fill="url(#paint2_linear_12_261)"/>
<path d="M0 8.75V35L36.2342 26.25L0 8.75Z" fill="url(#paint3_linear_12_261)"/>
<path style="mix-blend-mode:multiply" d="M27.1756 0L0 8.75L24.1568 20.416L36.2342 8.75L27.1756 0Z" fill="url(#paint4_linear_12_261)"/>
<path d="M58.4279 16.7729V6.99169H55.8861V9.99083H47.027V6.99169H44.4852V15.3961L45.9106 16.7729H58.426H58.4279ZM47.029 12.125H55.8881V14.6614H47.029V12.125Z" fill="#575153"/>
<path d="M41.4918 20.6937H50.1867V26.1423H52.7285V20.6937H61.3334V18.5595H41.4918V20.6937Z" fill="#575153"/>
<path d="M79.1435 6.99169H76.6232V21.2942H79.1435V14.1175H82.0705V11.9833H79.1435V6.99169Z" fill="#575153"/>
<path d="M68.1649 19.5303H65.6231V24.7655L67.0485 26.1423H79.5873V24.0082H68.1649V19.5303Z" fill="#575153"/>
<path d="M100.598 6.99169H98.0798V15.4036H90.5796V11.6623H88.0378V15.4036H83.5369V17.5151H98.0798V18.5822H100.598V13.6661H103.527V11.5338H100.598V6.99169Z" fill="#575153"/>
<path d="M107.653 19.2885V21.4227H119.761V26.1423H122.303V20.6653L120.878 19.2885H107.653Z" fill="#575153"/>
<path d="M141.998 6.99169H139.478V26.1423H141.998V6.99169Z" fill="#575153"/>
<path d="M93.3384 14.5028H95.8568V9.07673L94.4314 7.69804H84.7843V9.81141H93.3384V14.5028Z" fill="#575153"/>
<path d="M93.5124 18.6974C88.816 18.6879 85.9946 20.0534 85.9887 22.6257C85.9829 25.1999 88.8023 26.573 93.4968 26.5824C98.1932 26.5918 101.015 25.2264 101.02 22.6541C101.026 20.0799 98.2069 18.7068 93.5124 18.6974ZM93.4988 24.4804C90.3997 24.4766 88.5403 23.8344 88.5442 22.6333C88.5481 21.4321 90.4115 20.7956 93.5105 20.7994C96.6095 20.8032 98.4689 21.4453 98.465 22.6465C98.4611 23.8477 96.5978 24.4841 93.4988 24.4804Z" fill="#575153"/>
<path d="M115.235 15.7455H119.783V18.6332H122.303V6.99169H119.783V9.24104H115.143C114.152 8.05876 112.601 7.33731 110.769 7.33731C107.57 7.33731 105.226 9.53945 105.226 12.548C105.226 15.5566 107.57 17.7587 110.769 17.7587C112.656 17.7587 114.246 16.992 115.233 15.7455H115.235ZM119.785 11.311V13.6755H116.199C116.275 13.3148 116.314 12.939 116.314 12.548C116.314 12.1174 116.265 11.7038 116.173 11.311H119.783H119.785ZM107.743 12.548C107.743 10.7916 109.025 9.50734 110.771 9.50734C112.517 9.50734 113.8 10.7916 113.8 12.548C113.8 14.3044 112.517 15.5887 110.771 15.5887C109.025 15.5887 107.743 14.3044 107.743 12.548Z" fill="#575153"/>
<path d="M132.494 7.39019H129.829V15.058L124.25 21.1243L126.167 22.7674L131.156 17.3414L136.146 22.7674L138.064 21.1243L132.494 15.0675V7.39019Z" fill="#575153"/>
<path d="M74.2633 18.2668L75.9272 16.3819L70.3 11.7416V7.39019H67.6351V11.7416L62.0079 16.3819L63.6738 18.2668L68.9685 13.8984L74.2633 18.2668Z" fill="#575153"/>
<path d="M43.4802 30.082H46.6692L47.3946 30.7846V32.1595L47.1033 32.4466L47.6194 32.9508V34.2351L46.8354 34.9924H43.4802V30.082ZM46.1608 32.1368L46.4228 31.8838V31.1264L46.1687 30.8809H44.4481V32.1368H46.1628H46.1608ZM46.3349 34.1936L46.6477 33.8914V33.2039L46.3349 32.9017H44.4461V34.1936H46.3349Z" fill="#575153"/>
<path d="M48.4191 34.1501V30.0801H49.4065V33.8196L49.7761 34.1766H51.1995L51.569 33.8196V30.0801H52.5564V34.1501L51.6844 34.9924H49.2873L48.4152 34.1501H48.4191Z" fill="#575153"/>
<path d="M53.4675 34.2351V33.5325H54.4412V33.9461L54.6817 34.1784H56.1853L56.4316 33.9405V33.1265L56.1911 32.8942H54.2672L53.4832 32.1368V30.8394L54.2672 30.082H56.5626L57.3467 30.8394V31.5476H56.373V31.1264L56.1325 30.8941H54.6934L54.4529 31.1264V31.8498L54.6934 32.0821H56.6174L57.4014 32.8394V34.2219L56.6017 34.9943H54.2477L53.4636 34.237L53.4675 34.2351Z" fill="#575153"/>
<path d="M59.5541 30.082H60.4555L62.3149 34.9924H61.3119L60.8974 33.9046H59.1103L58.6958 34.9924H57.6927L59.5522 30.082H59.5541ZM60.6803 33.1189L60.0058 31.253H59.9901L59.3371 33.1189H60.6803Z" fill="#575153"/>
<path d="M62.8956 30.082H63.7813L66.0474 33.4154H66.0611V30.082H67.0133V34.9924H66.1276L63.8615 31.6666H63.8478V34.9924H62.8956V30.082Z" fill="#575153"/>
<path d="M70.0791 30.082H70.9941L72.5055 33.253H72.5192L74.0365 30.082H74.9515V34.9924H73.9993V32.0046H73.9856L72.8164 34.305H72.2064L71.045 32.0046H71.0313V34.9924H70.0791V30.082Z" fill="#575153"/>
<path d="M75.9682 30.082H79.644V30.8885H76.9576V32.1312H79.4348V32.9244H76.9576V34.1879H79.644V34.9943H75.9682V30.0839V30.082Z" fill="#575153"/>
<path d="M81.5973 30.8885H80.08V30.082H84.1039V30.8885H82.5866V34.9924H81.5993V30.8885H81.5973Z" fill="#575153"/>
<path d="M88.7515 33.3645V34.9924H87.7641V33.5816L87.3281 33.1114H85.7443V34.9924H84.7569V30.082H87.9459L88.7221 30.8394V32.3276L88.2275 32.8111L88.7515 33.3645ZM85.7463 32.3257H87.4962L87.7504 32.0802V31.1264L87.4962 30.8809H85.7463V32.3257Z" fill="#575153"/>
<path d="M89.6606 34.186V30.8885L90.4955 30.082H93.1097L93.9445 30.8885V34.186L93.1097 34.9924H90.4955L89.6606 34.186ZM92.5876 34.1784L92.9571 33.8215V31.253L92.5876 30.896H91.0195L90.65 31.253V33.8215L91.0195 34.1784H92.5876Z" fill="#575153"/>
<path d="M94.8889 30.082H98.0779L98.8541 30.8394V32.558L98.07 33.3229H95.8763V34.9924H94.8889V30.082ZM97.6282 32.5221L97.8823 32.2766V31.1264L97.6282 30.8809H95.8782V32.5221H97.6282Z" fill="#575153"/>
<path d="M99.5815 34.186V30.8885L100.416 30.082H103.03L103.865 30.8885V34.186L103.03 34.9924H100.416L99.5815 34.186ZM102.508 34.1784L102.878 33.8215V31.253L102.508 30.896H100.94L100.571 31.253V33.8215L100.94 34.1784H102.508Z" fill="#575153"/>
<path d="M104.812 30.082H105.799V34.186H108.341V34.9924H104.812V30.082Z" fill="#575153"/>
<path d="M108.996 30.082H109.983V34.9924H108.996V30.082Z" fill="#575153"/>
<path d="M112.191 30.8885H110.673V30.082H114.697V30.8885H113.18V34.9924H112.193V30.8885H112.191Z" fill="#575153"/>
<path d="M116.121 30.082H117.022L118.881 34.9924H117.878L117.464 33.9046H115.677L115.262 34.9924H114.259L116.119 30.082H116.121ZM117.247 33.1189L116.572 31.253H116.559L115.906 33.1189H117.249H117.247Z" fill="#575153"/>
<path d="M119.462 30.082H120.348L122.614 33.4154H122.628V30.082H123.58V34.9924H122.694L120.428 31.6666H120.414V34.9924H119.462V30.082Z" fill="#575153"/>
<path d="M126.571 34.186V30.8885L127.406 30.082H129.891L130.712 30.8752V31.6269H129.725V31.2265L129.383 30.896H127.93L127.561 31.253V33.8215L127.93 34.1784H129.383L129.725 33.8479V33.4476H130.712V34.1992L129.891 34.9924H127.406L126.571 34.186Z" fill="#575153"/>
<path d="M131.512 30.082H132.5V34.9924H131.512V30.082Z" fill="#575153"/>
<path d="M134.707 30.8885H133.19V30.082H137.214V30.8885H135.696V34.9924H134.709V30.8885H134.707Z" fill="#575153"/>
<path d="M139.202 32.9867L137.393 30.082H138.477L139.689 32.0953H139.705L140.917 30.082H142L140.191 32.9867V34.9924H139.204V32.9867H139.202Z" fill="#575153"/>
</g>
<defs>
<linearGradient id="paint0_linear_12_261" x1="1.01867" y1="38.0558" x2="36.6099" y2="28.7802" gradientUnits="userSpaceOnUse">
<stop offset="0.25" stop-color="#0087CC"/>
<stop offset="0.8" stop-color="#662483"/>
</linearGradient>
<linearGradient id="paint1_linear_12_261" x1="-1.30413" y1="4.79144" x2="25.6506" y2="-4.40845" gradientUnits="userSpaceOnUse">
<stop offset="0.2" stop-color="#E6007E"/>
<stop offset="0.54" stop-color="#A61180"/>
<stop offset="0.9" stop-color="#662483"/>
</linearGradient>
<linearGradient id="paint2_linear_12_261" x1="0.17206" y1="10.208" x2="36.2146" y2="10.208" gradientUnits="userSpaceOnUse">
<stop offset="0.1" stop-color="#ED6EA7"/>
<stop offset="0.21" stop-color="#EB5BA0"/>
<stop offset="0.61" stop-color="#E71987"/>
<stop offset="0.8" stop-color="#E6007E"/>
</linearGradient>
<linearGradient id="paint3_linear_12_261" x1="-2.92306" y1="30.1085" x2="20.7" y2="14.9363" gradientUnits="userSpaceOnUse">
<stop stop-color="#662483"/>
<stop offset="0.5" stop-color="#E6007E"/>
<stop offset="0.58" stop-color="#E60580"/>
<stop offset="0.69" stop-color="#E71686"/>
<stop offset="0.81" stop-color="#E93290"/>
<stop offset="0.94" stop-color="#EB589F"/>
<stop offset="1" stop-color="#ED6EA7"/>
</linearGradient>
<linearGradient id="paint4_linear_12_261" x1="14.0424" y1="22.4236" x2="16.6389" y2="13.0838" gradientUnits="userSpaceOnUse">
<stop offset="0.15" stop-color="#878787"/>
<stop offset="0.27" stop-color="#878787" stop-opacity="0.8464"/>
<stop offset="0.48" stop-color="#878787" stop-opacity="0.5041"/>
<stop offset="0.75" stop-color="#878787" stop-opacity="0.1296"/>
<stop offset="1" stop-color="#878787" stop-opacity="0"/>
</linearGradient>
<clipPath id="clip0_12_261">
<rect width="142" height="35" fill="white"/>
</clipPath>
</defs>
</svg>
