<svg width="250" height="50" viewBox="0 0 250 50" fill="none" xmlns="http://www.w3.org/2000/svg">
<g clip-path="url(#clip0_253_288)">
<path d="M120.529 17.269L120.555 16.9243L120.519 16.5843L120.526 16.2619L120.473 16.0351L120.498 15.6175L120.473 15.1085L120.475 14.873C120.449 14.484 120.38 14.095 120.325 13.7212L120.29 13.3238C120.251 13.073 120.197 12.825 120.126 12.5813C120.067 12.3768 119.981 12.1788 119.913 11.9835L119.813 11.4498L119.707 11.0856L119.656 10.8074L119.627 10.6495L119.305 10.4518L119.159 10.2785L118.916 9.88511L118.543 10.0872L118.395 10.2139L118.247 10.2187L118.079 10.3183C117.783 10.3518 118.006 10.1139 117.885 9.98954L117.679 9.94728L117.575 9.90744L116.842 10.31L116.648 10.4742L116.349 10.6966L116.075 11.0676C115.987 11.2274 115.918 11.3454 115.912 11.5542L115.987 12.0588L116.013 12.2545L116.097 12.6435L115.914 12.8368L115.539 12.8858C115.117 12.9416 114.679 12.9504 114.255 12.9679L114.111 12.9567L113.692 12.999L113.095 13.0058C112.857 13.0349 112.636 13.0392 112.395 13.0655L112.035 13.1014C111.721 13.1054 111.427 13.1014 111.114 13.1014L110.913 13.0879L110.751 13.1146L110.593 13.1058C110.391 13.1146 110.169 13.1369 109.972 13.1393C109.512 13.148 109.115 13.1213 108.671 13.166C108.28 13.2014 107.9 13.2855 107.511 13.319C107.248 13.337 106.99 13.3214 106.731 13.3457C106.413 13.3748 106.104 13.4346 105.79 13.4681L105.509 13.4657C105.289 13.4788 105.057 13.5303 104.829 13.5434H104.429L103.932 13.6012L103.59 13.6036C103.285 13.6259 102.958 13.7036 102.629 13.6614L102.51 13.5099L101.939 13.4127V13.2258L102.183 12.9747L102.404 12.4765L102.355 12.2322L102.34 12.017L102.236 11.8296L102.134 11.5698C102.037 11.3055 101.991 10.9608 101.838 10.732L101.622 10.5495L101.405 10.2474L101.235 10.1896L101.023 10.1099L100.508 10.0362L100.303 9.90744L99.9075 9.8584L100.104 10.0585L99.4524 10.174L99.0682 10.3183L98.8163 10.2586L98.644 10.4008L98.56 10.6185L98.3259 11.2075C98.2332 11.4163 98.072 11.6052 97.9967 11.8189L97.8751 12.2724L97.8066 12.4968L97.7979 12.6969L97.7472 13.219C97.7337 13.5191 97.7714 13.806 97.8046 14.0878L97.7888 14.3708L97.8244 14.7327C97.8379 14.9997 97.7824 15.2548 97.809 15.5174L97.8775 15.7617L97.8886 15.9598L97.9658 16.4444C97.99 16.7912 97.9769 17.1132 97.9857 17.4687L98.0146 17.7314L98.0122 17.9514L98.0962 18.2602L98.1778 18.6138L98.2395 18.7604L98.35 19.3204L98.476 19.8425C98.5267 20.0497 98.6241 20.2984 98.56 20.5228L98.5556 20.5826L98.5687 20.5898L98.8669 20.534L99.3708 20.7898L99.3066 21.0541L99.6512 21.2031L99.6334 21.5052L99.5696 21.5965L99.5783 21.6232L99.7994 21.7854L99.9142 21.952L100.192 22.0923C100.745 22.2677 101.463 22.2453 102.006 22.0724L102.567 21.8344L102.603 21.7699L102.748 21.6965L103.142 21.6252L103.387 21.4989C103.61 21.4765 103.822 21.5387 104.025 21.5228L104.206 21.4698L104.509 21.4921L104.668 21.4387L104.882 21.4163L104.968 21.343L105.169 21.392L105.37 21.3809L105.629 21.4168L105.85 21.361L105.993 21.4208L106.289 21.4343L106.53 21.3255L106.83 21.3542L107.032 21.3052L107.27 21.3343L107.531 21.3008L107.692 21.3255L107.851 21.2988L108.372 21.4076L108.732 21.3231L108.931 21.3275L109.115 21.2988L109.552 21.4299L109.786 21.292L109.976 21.361L110.19 21.343L110.316 21.4144L110.63 21.4654C110.924 21.4475 111.22 21.4387 111.513 21.4566L111.993 21.4921C112.774 21.4812 113.555 21.4759 114.337 21.4761L114.893 21.5096L115.434 21.4965C115.636 21.5052 115.847 21.5542 116.057 21.5722L116.254 21.5674C116.537 21.5873 116.861 21.614 117.155 21.5941L117.374 21.5586C118.657 21.4566 119.738 21.6383 120.389 20.4228C120.568 20.0872 120.535 19.5579 120.451 19.1825L120.354 18.9182L120.374 18.778L120.38 18.4778L120.409 18.2427L120.491 18.0315L120.527 17.7732L120.595 17.489L120.529 17.269ZM116.373 17.6313L116.34 17.8135L116.27 18.369L116.075 18.42C115.87 18.4559 115.651 18.4468 115.434 18.438L114.995 18.4356L114.714 18.3957L114.496 18.4245L114.195 18.4021C113.857 18.4045 113.522 18.4201 113.175 18.438L112.874 18.4735L112.413 18.4599L111.849 18.4643L111.655 18.4376C111.321 18.4244 111.014 18.4535 110.692 18.4535L110.334 18.4376L109.815 18.4846L109.632 18.5245H109.276L108.832 18.5954L108.37 18.5488L108.151 18.5954L107.856 18.5667L107.69 18.611L107.409 18.6488L106.932 18.6847C106.724 18.7134 106.519 18.7688 106.309 18.7867L106.11 18.778C105.907 18.7756 105.713 18.7712 105.509 18.7804L105.028 18.8712L104.716 18.878L104.531 18.8469L104.272 18.8916C103.908 18.878 103.544 18.8601 103.168 18.878L102.947 18.929L102.421 18.8513L102.249 18.8134L102.077 18.438C102.033 18.2025 101.991 17.5245 102.092 17.3332C102.244 17.0486 102.856 16.9506 103.17 16.9307C103.38 16.9155 103.601 16.8685 103.809 16.8486L104.29 16.8199L104.451 16.7753L104.767 16.7796L105.11 16.7155L105.45 16.7178C105.637 16.7087 105.852 16.682 106.051 16.6601C106.254 16.6378 106.464 16.5867 106.672 16.5664L106.91 16.5712L107.126 16.5377L107.29 16.5353L107.692 16.4755L107.972 16.4795L108.35 16.4441L108.653 16.4484L108.891 16.4062C109.115 16.3823 109.329 16.3376 109.552 16.3328L109.914 16.342C110.415 16.3328 110.95 16.3129 111.431 16.293C111.763 16.2798 112.121 16.2974 112.455 16.2619L112.894 16.2978C113.106 16.2886 113.336 16.2707 113.553 16.2862L113.793 16.3221L114.31 16.3372L114.595 16.3795C114.796 16.3819 114.995 16.3819 115.194 16.3886C115.434 16.4153 115.748 16.5198 115.947 16.6373L116.322 17.0933L116.373 17.6313ZM114.434 23.046L114.49 23.1795L114.611 23.1728L114.677 23.2106L114.832 23.2305L115.095 23.284C115.298 23.2816 115.563 23.0416 115.746 23.1795L115.874 23.5195C116.111 23.5506 116.129 23.2349 116.197 23.2349L116.312 23.5331L116.656 23.453L117.074 23.4617L117.337 23.433L117.792 23.3995L118.262 23.2397L118.492 23.1795L118.735 23.1062L119.157 23.2864C119.362 23.3107 119.533 23.2218 119.738 23.2349L120.162 23.4019L120.525 23.5195L120.896 23.5996L121.165 23.8818L121.503 24.1508L121.614 24.3377L121.704 24.4442L121.76 24.5976L121.826 24.7243L121.888 24.9754L121.998 25.4624C122 25.6713 121.938 25.8267 121.899 26.0069L121.731 26.5648C121.565 26.9092 121.072 27.3006 120.697 27.3472L120.155 27.285L119.818 27.2491L119.471 27.1471L118.958 27.0271C118.525 26.9092 118.156 26.6804 117.695 26.6182C117.403 26.576 117.107 26.6182 116.816 26.6091L116.553 26.5533C116.341 26.5261 116.128 26.5062 115.914 26.4935C115.656 26.4911 115.395 26.4895 115.134 26.4895C114.885 26.4847 114.642 26.4377 114.395 26.4337L113.853 26.4226C113.65 26.3915 113.469 26.3002 113.272 26.2759C113.08 26.2512 112.855 26.309 112.654 26.2823L112.312 26.2157L111.993 26.2045C111.746 26.1958 111.467 26.1647 111.24 26.2424L110.871 26.7605L110.834 26.9737L110.619 27.438C110.571 27.6537 110.582 27.8828 110.571 28.1184C110.549 28.5564 110.573 29.0342 110.613 29.4694C110.635 29.6831 110.781 29.8855 110.86 30.0812C110.946 30.2765 110.977 30.4698 111.021 30.6966L111.072 30.8991L111.052 31.3215L111.028 31.744L110.924 31.8946L110.834 32.07L110.743 32.1218L110.672 32.0238L110.304 31.7703L110.189 32.0927L110.067 32.1991L109.915 32.1836L109.731 32.2195L109.475 32.1748C109.263 32.2171 109.173 32.4219 109.002 32.5351L108.748 32.5483L108.614 32.4905L108.527 32.5371L108.273 32.557C108.057 32.5283 107.944 32.2617 107.858 32.1039L107.838 32.0349L107.745 31.9233L107.695 31.4012L107.706 31.1234C107.666 30.7679 107.606 30.4479 107.562 30.0944L107.516 29.7321L107.529 29.5699L107.522 29.3878L107.545 29.2275L107.531 28.6831C107.531 28.2898 107.545 27.8916 107.518 27.4962L107.5 26.9582L107.142 26.507C106.941 26.3934 106.533 26.5046 106.312 26.5246L105.932 26.5337L105.41 26.5895L105.21 26.5804L104.827 26.6202C104.611 26.6202 104.399 26.6047 104.171 26.6091L103.948 26.6449L103.63 26.6358L103.447 26.6581L103.049 26.5983L102.978 26.6712L102.804 26.7203L102.45 26.7382C102.205 26.7713 101.967 26.8315 101.726 26.8669L101.147 26.9291C100.736 27.0072 100.363 27.165 99.963 27.2448C99.7221 27.2938 99.5078 27.3448 99.2698 27.4002L98.7703 27.4783L98.3746 27.3827L98.2796 27.3117L98.0478 27.3093L98.0237 27.2292L97.9726 27.1559L98.0676 26.8131L97.6082 26.8713L97.502 26.8048L97.361 26.7378L97.2858 26.3221L97.1887 26.2643L97.0342 26.0268C96.9962 25.8068 97.1887 25.6621 97.2438 25.4864L97.2279 25.1595L97.4204 24.8686L97.5995 24.769L97.7143 24.6462L97.8514 24.5374L98.291 24.0595L98.4566 23.9551L98.5624 23.8284L98.6642 23.7371L98.6883 23.824L98.5758 23.9595L98.5426 24.0795L98.4257 24.1727L98.2641 24.3931V24.4485L98.3837 24.433L98.7105 24.2795L98.8075 24.3194L99.1589 24.2775L99.3819 24.1683L99.6603 23.8997L99.5942 24.3951L99.8259 24.3975L100.188 24.4688L100.707 24.4043L100.869 24.4485L101.388 24.4397L101.567 24.4708L101.785 24.3911L101.929 24.3887L102.528 24.3174C102.969 24.2775 103.4 24.2485 103.822 24.1775L104.03 24.0838C104.231 24.0619 104.427 24.0998 104.631 24.0886L104.929 24.0352L105.128 24.0217L105.251 23.9862H105.549L105.815 23.944C106.021 23.9331 106.226 23.9145 106.431 23.8882L106.663 23.8216L106.78 23.7327L106.93 23.7088L107.076 23.5016L107.244 23.6482L107.471 23.6618L107.953 23.5952L108.09 23.4462L108.37 23.5617C108.576 23.5797 108.792 23.502 108.991 23.502L109.46 23.6175C109.696 23.6817 110.003 23.6817 110.272 23.6706L110.655 23.6172L110.953 23.6084L111.454 23.5195L111.774 23.4773L111.934 23.4796C112.161 23.4462 112.389 23.3752 112.634 23.3708L112.895 23.3864L113.195 23.333L113.473 23.3242L113.796 23.2553C114.028 23.2174 114.284 23.2353 114.434 23.0464M181.304 10.8492L181.578 10.8647L181.812 11.0425L182.041 11.1959L182.201 11.247L182.274 11.3358L182.172 11.3514L182.161 11.6714L182.278 11.7894L182.525 12.0895C182.731 12.3964 182.868 12.7519 182.983 13.105C183.126 13.5518 183.078 14.0854 183.303 14.49L183.641 14.6478L183.917 14.5477L184.184 14.6075C184.759 14.71 185.293 14.8367 185.799 15.0722L186.27 15.3544L186.34 15.4612L186.482 15.6166L186.385 15.957L186.404 16.0614L186.301 16.2791L185.943 16.3325L185.89 16.5257L185.75 16.5457L185.735 16.6971L185.592 16.7437L185.556 16.786L185.788 17.2192L185.7 17.4261L185.739 17.5775L185.483 17.8505L184.83 17.8438L184.344 17.815L184.142 17.7816C183.774 17.7485 183.425 17.8414 183.226 18.1283L183.069 18.544C182.941 19 182.91 19.5332 182.881 20.0446L182.886 20.3889C182.815 20.8289 182.53 21.4602 182.028 21.5116L181.344 21.2804L181.162 21.1047L181.001 21.1557L180.915 21.1159L180.659 21.0537L180.475 21.1095L180.337 21.0935L180.202 21.1047L179.899 20.9134L179.808 20.7536L179.682 20.6667C179.559 20.5045 179.605 20.3291 179.605 20.1247L179.55 19.86L179.583 19.6823V19.522L179.654 19.0709L179.64 18.8708L179.742 18.611L179.678 18.4464L179.731 18.2017L179.727 18.0462L179.786 17.815L179.755 17.5129L179.824 17.0439L179.768 16.7437L179.793 16.5038L179.727 16.3946L179.654 15.9921L179.669 15.4859L179.647 15.348L179.671 15.2057C179.682 14.9857 179.674 14.7634 179.674 14.5366C179.674 14.1141 179.526 13.7164 179.479 13.321L179.499 13.1385L179.433 12.8097L179.453 12.6829L179.4 12.5096L179.426 12.2493L179.369 12.0779L179.294 11.5427C179.393 11.3024 179.497 11.3004 179.727 11.2446L180.034 11.2226L180.314 11.3247L180.696 11.1712L180.743 11.2848L180.933 11.2824L181.169 11.0935L181.153 10.9911L181.304 10.8492ZM172.646 13.5657L172.648 13.6123ZM176.096 14.2911L176.052 13.9065L176.059 13.7267L175.999 13.5175L175.898 12.991L175.871 12.7001L175.756 12.3242L175.677 12.0484L175.317 11.6021L175.27 11.5084L174.791 11.2059L174.661 11.1904L174.535 11.1306L174.075 11.1904L173.792 11.1816L173.664 11.1019H173.417L173.19 11.3107L172.876 11.4885L172.778 11.673L172.558 12.0038L172.915 12.502L173.01 12.7331L173.128 13.3178L172.624 13.3043L172.326 13.3067L171.983 13.2576L171.926 13.2668L171.913 13.3198L172.491 13.5578L172.284 13.5713L172.1 13.6335L171.838 13.649L171.339 13.6267C171.078 13.6243 170.801 13.6446 170.552 13.651L170.411 13.6271C170.174 13.6199 169.777 13.6689 169.591 13.5514C169.467 13.4713 169.787 13.3668 169.587 13.3465L169.385 13.3577L169.063 13.3019L168.8 13.3178L168.559 13.3019L168.237 13.3266L167.733 13.2999L167.47 13.3266L167.23 13.3067L167.075 13.3266L166.498 13.2688L166.361 13.2848C166.112 13.262 165.851 13.2847 165.602 13.2931L165.078 13.2756L164.835 13.2732L164.733 13.2353L164.605 13.2174L164.459 12.9551L164.466 12.7531L164.409 12.5239L164.384 12.2306L164.243 11.9352L164.15 11.7396L163.73 11.406L163.596 11.2864L163.412 11.1908L163.167 11.0991L163.006 10.9281L162.681 10.8616L162.5 10.848L161.972 11.1306L161.727 11.4482L161.369 11.8217L161.15 12.0038L160.874 12.4797L160.66 12.8196L160.618 13.113L160.532 13.5219C160.543 13.8244 160.554 14.1265 160.587 14.4334L160.658 14.698L160.649 14.9224L160.675 15.1822L160.627 15.5892L160.636 16.1714L160.618 16.2962L160.64 16.5206L160.6 16.8251L160.624 17.2894L160.574 17.6162C160.567 17.8541 160.609 18.0745 160.618 18.3077L160.567 18.5277L160.56 18.9103L160.523 19.0697L160.574 19.2435L160.587 19.3702L160.806 19.988C160.934 20.2012 161.113 20.3104 161.309 20.4527L161.579 20.6659L161.954 20.8038L162.18 20.8795L162.482 20.9058L162.838 20.8703C163.09 20.8903 163.446 20.9349 163.704 20.8903H163.93L164.452 20.8727C164.762 20.8616 165.071 20.8281 165.381 20.8193L165.641 20.8349C165.875 20.8213 166.107 20.7213 166.326 20.7169C166.675 20.7057 167.008 20.6814 167.353 20.6747L167.552 20.6994L167.72 20.6659L167.912 20.6902L168.115 20.6547L168.564 20.628L168.917 20.6416C169.213 20.6149 169.514 20.6149 169.814 20.6057L170.068 20.6192L170.174 20.6591L170.309 20.6635L170.574 20.7081L171.055 20.7348L171.316 20.7038L171.46 20.7281L171.919 20.7348L172.043 20.7524L172.447 20.7659L172.907 20.7591L173.07 20.8058L173.289 20.8034L173.574 20.8723L173.826 20.9058L174.058 20.9724L174.338 21.0059L174.601 20.9768C174.844 20.9768 175.215 21.019 175.366 20.8389L175.337 20.7902L174.939 20.5013L175.244 20.1386L175.48 20.0948L175.578 19.97L175.803 19.5364L175.887 19.1897L175.906 18.9745L175.966 18.6676L175.986 18.2252L175.973 18.0008L176.015 17.4137L176.048 17.1893L176.052 16.7203L176.033 16.6246L176.085 16.4405C176.099 15.9582 176.072 15.4513 176.072 14.9599C176.072 14.7423 176.092 14.5135 176.096 14.2911ZM173.271 16.8848L173.192 17.0092L173.187 17.1539L173.125 17.2204L173.059 17.3384L173.006 17.4671L172.465 17.4317C171.953 17.4161 171.431 17.4137 170.934 17.3982C170.698 17.3894 170.464 17.4161 170.229 17.4093C169.326 17.3806 168.467 17.4404 167.554 17.454C167.181 17.4628 166.753 17.5074 166.386 17.4763C166.145 17.4564 165.917 17.4918 165.674 17.4982L165.418 17.4627L165.239 17.4763L165.061 17.5205L164.956 17.4695C164.773 17.4185 164.563 17.3719 164.523 17.167L164.588 16.8848L164.756 16.8027L165.235 16.6473L165.365 16.5736L165.655 16.5381L165.802 16.4891L165.959 16.4759L166.408 16.3536H166.587L166.732 16.3137L166.907 16.3113L167.336 16.2069L167.446 16.2133L167.614 16.1822C167.833 16.1667 168.034 16.1623 168.257 16.1535L168.661 16.1025C168.959 16.1112 169.284 16.0889 169.606 16.0933L169.847 16.1292L170.251 16.0957L170.492 16.1113C170.766 16.0953 171.034 16.0865 171.296 16.0555L171.72 16.1288H172.142L172.425 16.1666L172.58 16.1423L173.143 16.4293L173.271 16.8848ZM180.722 22.4163L180.949 22.5227L181.161 22.5028L181.621 22.6272L181.983 22.6092L182.321 22.887L182.511 22.9069L182.63 23.1871L182.781 23.3625L182.884 23.4406L183.099 23.8942L183.244 24.1652L183.322 24.4186L183.399 24.6075L183.425 24.8232C183.485 25.0519 183.576 25.2743 183.611 25.5166C183.653 25.7769 183.575 26.0367 183.6 26.3058L183.677 26.8924L183.657 27.2192L183.677 27.6592L183.64 27.884L183.642 28.3304L183.638 28.8174C183.6 29.1865 183.496 29.5396 183.459 29.9134L183.433 30.3355L183.381 30.52L183.35 30.8202L183.267 31.0712L183.236 31.2047L182.814 31.5646L182.472 31.4156L182.171 31.4024L182.058 31.5268L181.986 31.3889L181.815 30.98L181.745 30.9022L181.572 31.0688L181.466 31.0732L181.393 31.1023L181.272 30.9556L181.193 30.9222L180.934 31.249L180.755 31.131L180.545 31.1601L180.302 30.8333L180.123 30.7735L179.741 30.1534C179.699 29.9441 179.752 29.6329 179.765 29.422L179.807 28.9462L180.081 28.3727L180.152 28.2507L180.179 27.9259C180.205 27.6704 180.172 27.5214 180.123 27.2922L180.106 27.0192L179.997 26.8123L179.779 26.3747L179.598 26.1388L179.447 25.8857L179.249 25.741L179.237 25.6366L179.001 25.4852L178.789 25.4676L178.506 25.3879L178.223 25.4054L178.062 25.3767L177.863 25.3676L177.74 25.3253C177.497 25.3142 177.254 25.3277 177.013 25.3277L176.693 25.301L176.452 25.3277L176.288 25.3034L176.152 25.3277H176.012L175.97 25.3437L176.006 25.3767L176.209 25.4525L176.202 25.4991L175.95 25.5031L175.824 25.5501L175.504 25.588L175.345 25.5768L174.983 25.5724L174.782 25.5366L174.499 25.5545L174.117 25.537L173.996 25.5633L173.735 25.5525L173.569 25.4899L173.275 25.5011L173.01 25.4588C172.82 25.47 172.862 25.6968 172.586 25.6769L172.533 25.6609L172.727 25.468L172.685 25.4501L172.343 25.5146L172.065 25.4748L171.921 25.4899L171.7 25.4836L171.499 25.6749C171.236 25.6768 170.978 25.6812 170.713 25.6812L170.169 25.7745L169.787 25.8259L169.244 25.9323L169.003 25.9212C168.749 25.9236 168.493 25.9391 168.236 25.9391L167.691 25.908L167.494 25.9192L167.011 25.8901C166.615 25.8901 166.215 25.9347 165.822 25.9391L165.398 25.9435L165.157 25.9901H164.726L164.468 26.0746L164.285 26.079L163.787 26.2081L163.567 26.2791C163.335 26.3189 163.114 26.3389 162.88 26.3636L162.48 26.3747L162.16 26.4257L161.894 26.4325L161.654 26.4413L161.309 26.3281L161.137 26.2771C160.856 26.1368 160.527 25.859 160.399 25.5637L160.341 25.2927L160.266 25.03L160.28 24.6036L160.271 24.2987L160.558 23.7897L160.609 23.5745L160.753 23.3406L160.816 23.1783L160.827 23.0739L160.925 22.9807L160.993 22.8675L161.309 22.7407L161.592 22.7985L161.775 22.7674L162.16 22.7539L162.562 22.7204C162.886 22.714 163.182 22.7403 163.507 22.7403L163.969 22.7093L164.229 22.7539L164.592 22.7204L165.08 22.7451L165.338 22.7204L165.601 22.7272L165.88 22.7694L166.301 22.7671L166.507 22.7914L166.686 22.7471L166.847 22.7583L167.311 22.7049L167.649 22.6869L167.81 22.6335L167.846 22.5757L168.239 22.5048L168.36 22.5471L168.74 22.618L169.286 22.5646L169.606 22.5757L169.767 22.5426L170.068 22.5913L170.366 22.5737L170.733 22.5761L171.236 22.6184C171.47 22.6208 171.718 22.5941 171.939 22.5849L172.363 22.6184C172.564 22.6096 172.78 22.5805 172.975 22.5694C173.211 22.5582 173.468 22.6092 173.715 22.616L173.938 22.5781L174.417 22.6339L174.841 22.6228L174.983 22.6718C175.25 22.7049 175.555 22.6626 175.824 22.683L176.054 22.7451L176.43 22.7491C176.633 22.7626 176.845 22.7894 177.055 22.7985L177.437 22.8009L177.64 22.8384C177.857 22.8563 178.058 22.8583 178.263 22.8782L178.506 22.8607L179.067 22.883L179.246 22.903L179.469 22.883L179.626 22.8918L179.781 22.7587L180.006 22.7626L179.971 22.5853L179.955 22.4761L180.037 22.5096L180.196 22.5295L180.572 22.6275L180.629 22.5474L180.722 22.4159" fill="black"/>
<path d="M178.004 24.769L177.891 24.8957L178.277 24.8558M178.444 24.8272L178.563 24.8869ZM171.239 25.4943L171.489 25.5613ZM170.976 25.5369L171.024 25.5637ZM216.124 14.8614L216.127 14.686C216.18 14.415 216.299 14.1858 216.281 13.877C216.261 13.5721 216.091 13.3521 216.005 13.0879L215.961 12.8256L215.919 12.7519L216.005 12.5052L215.966 12.0628L215.882 11.8296L215.826 11.6674L215.698 11.5275C215.362 11.1274 214.985 10.836 214.49 10.7049L214.271 10.6806L214.139 10.6248H214.004L213.697 10.5826L213.41 10.5068L213.127 10.5606L212.999 10.6136L212.667 10.5606L212.464 10.5893L212.034 10.5782L211.813 10.616L211.494 10.5603L211.335 10.563L211.104 10.5451L210.86 10.7874L210.514 10.803L210.125 10.8273L209.794 10.8006L209.61 10.8364L209.345 10.8404L209.239 10.7966L209.091 10.8273L208.83 10.8364C208.64 10.8364 208.435 10.8097 208.234 10.8185L207.966 10.8496L207.474 10.8408L207.267 10.8875C207.057 10.903 206.844 10.9297 206.63 10.9409C206.345 10.954 206.072 10.8962 205.791 10.9273L205.418 10.9987L205.011 11.0074L204.741 11.0409L204.167 11.052L204.041 11.0074L203.449 11.005C203.23 11.0074 202.992 11.0409 202.771 11.0409L202.279 11.0449L202.091 11.0847L201.614 11.0584L201.371 11.0943L200.878 11.0784C200.666 11.0784 200.427 11.0851 200.2 11.0851L199.974 11.0493H199.809L199.506 11.0162L199.259 11.0094L199.115 11.0405L198.684 11.0074L198.417 11.0405L197.92 11.054C197.715 11.0628 197.514 11.0142 197.308 11.0249L197.081 11.0628C196.8 11.0851 196.548 11.1027 196.285 11.1628L196.052 11.2318L195.691 11.2007L195.506 11.2964L195.338 11.3629L195.164 11.5052L194.598 11.7296L194.417 11.934L194.377 12.0456L194.205 12.2943L194.127 12.5542L193.895 12.9878L193.809 13.1189L193.783 13.2879L193.725 13.421L193.728 13.5832L193.686 13.7905C193.686 14.0324 193.725 14.266 193.761 14.4947L193.831 14.7283L193.889 15.2348L193.937 15.4237C193.955 15.7059 193.9 15.9885 193.885 16.2527L193.955 16.6864L194.012 17.051C194.105 17.3021 194.291 17.542 194.523 17.6867L194.77 17.7756L195.051 17.9378L195.667 18.0267L195.848 17.9976L196.175 18.0199L196.349 17.9553L196.52 17.9354L196.858 17.831L197.012 17.8087L197.457 17.6688L197.781 17.6309L198.358 17.4843L198.598 17.4799L198.726 17.4376H198.928L199.195 17.4017L199.753 17.2754L199.997 17.2595L200.187 17.2156L200.328 17.2196L200.655 17.1909C200.861 17.1774 201.086 17.1953 201.291 17.2021L201.492 17.1953L201.7 17.222L202.071 17.1953L202.343 17.2041C202.628 17.1842 202.913 17.0773 203.202 17.0618L203.695 17.0777C203.975 17.0777 204.253 17.0797 204.534 17.0797L205.128 17.1112C205.431 17.0953 205.707 17.0355 206.016 17.0267C206.452 17.0088 206.884 17.0219 207.331 16.9932L207.556 16.9574L207.945 16.9422L208.11 16.9155C208.334 16.9088 208.557 16.8976 208.786 16.9155L209.142 16.9622L209.358 16.9462L209.71 16.9665L209.957 16.9087L210.472 16.8266L210.631 16.8043C210.854 16.8199 211.092 16.8466 211.313 16.8621L211.64 16.851C211.85 16.8486 212.06 16.8689 212.281 16.8753L212.71 16.9087L212.895 16.8976L213.123 16.9466L213.363 16.9642L213.509 17.0156L213.697 17.0331L213.962 16.9976L214.105 17.0267L214.494 17.0132L214.64 17.049L214.989 17.0423L215.122 16.9733L215.334 16.9442L215.301 16.8709L215.257 16.8019L215.391 16.6999L215.373 16.5775L215.466 16.3687L215.559 16.0152L215.833 15.8374L215.959 15.7219L216.195 15.5664L216.107 15.2595L216.125 14.8618M212.526 14.2082L212.451 14.2305L212.515 14.3038L212.427 14.3417L212.389 14.4015L212.173 14.4306L211.948 14.4146L211.556 14.4082C211.303 14.3903 211.042 14.417 210.779 14.415C210.306 14.4059 209.849 14.3927 209.383 14.3839L208.846 14.4393H208.523C208.232 14.4636 207.929 14.4971 207.638 14.5103L207.267 14.5015L206.672 14.5306L206.445 14.5171L206.241 14.535L206.096 14.5171L205.809 14.5481L205.502 14.5171L205.091 14.5904L204.867 14.5816L204.741 14.6151L204.6 14.5928L204.291 14.6039C204.083 14.6079 203.84 14.6195 203.63 14.6306L203.284 14.6259L203.138 14.6593L202.893 14.6259C202.597 14.6103 202.283 14.635 201.989 14.6418L201.558 14.6637L201.375 14.6948L201.004 14.6836L200.798 14.7103L200.553 14.686L200.039 14.7195L199.893 14.6948L199.67 14.7127L199.619 14.5904L199.274 14.6039L199.431 14.7127L199.409 14.7259L199.378 14.7351L199.128 14.7151L198.95 14.7371L198.848 14.686L198.642 14.7438H198.545L198.395 14.7797L198.307 14.7371L198.024 14.6681L197.861 14.6996L197.534 14.6195L197.434 14.5151L197.673 14.3038L197.832 14.2528C198.174 14.095 198.523 14.0348 198.928 13.9993L199.175 13.9168L199.403 13.9129L199.667 13.8638L199.774 13.8901L199.974 13.8969L200.321 13.8702L200.677 13.8479C201.311 13.8614 201.921 13.8148 202.544 13.7813C203.264 13.7435 203.92 13.7435 204.66 13.7323L205.153 13.7259L205.287 13.6901L205.521 13.708L205.744 13.6904L206.259 13.7191L206.445 13.6793L206.624 13.7012L206.858 13.6502L207.185 13.6614L207.289 13.6837L207.408 13.6658L207.514 13.6948L207.735 13.6614C208.124 13.6614 208.523 13.6749 208.91 13.6458L209.113 13.5793L209.201 13.608L209.683 13.5904L209.774 13.5103L209.999 13.4015L210.162 13.5701L210.264 13.5593L210.593 13.5617L210.737 13.5282L210.9 13.5593L211.024 13.5215L211.196 13.588L211.353 13.5705L211.561 13.6239L211.833 13.6438L212.197 13.7506L212.5 13.7861L212.773 13.9682C212.886 14.2038 212.703 14.1994 212.526 14.2082ZM212.67 14.2261L212.734 14.2727ZM210.922 23.1536L210.635 23.176L210.142 23.1919L209.979 23.176L209.773 23.2094L209.619 23.2604L209.855 23.3202C210.469 23.3382 211.125 23.374 211.739 23.396C212.042 23.4071 212.349 23.4382 212.669 23.4426L212.875 23.445L212.941 23.4119L212.963 23.3585L212.912 23.2987L212.32 23.2561L212.007 23.2031H211.496L210.922 23.154M211.436 23.9184L211.478 24.0229L212.112 24.1117L212.32 24.1627L212.529 24.1293L212.607 24.1691L213.141 24.1895L213.188 24.1384L213.017 24.087L212.872 24.0249C212.615 23.9894 212.355 23.9826 212.092 23.9671C211.882 23.9583 211.654 23.9184 211.436 23.9184ZM210.575 29.5384L210.657 29.603ZM213.123 29.6639L213.056 29.7572L212.699 29.8772L213.757 29.9728L213.805 29.9529M212.914 30.0147L212.401 30.0617L212.36 30.0928L212.464 30.1326C212.654 30.1482 212.799 30.1705 213 30.1793L213.139 30.2103L213.429 30.2016L213.635 30.2171L213.727 30.1793L213.672 30.1283L213.285 30.1147L212.914 30.0147ZM212.219 30.0764L212.25 30.1099Z" fill="black"/>
<path d="M216.924 29.4555L216.953 29.1263L216.889 28.935L216.743 28.4309L216.078 28.0997L215.506 28.1152L215.316 28.0794L215.053 28.0885L214.472 28.0526L214.313 28.0997L213.944 28.075L213.911 28.1327L213.471 28.2774L213.341 28.3173L213.056 28.244L212.524 28.1905L212.217 28.124L212.099 28.1308L211.971 28.075L211.62 28.0375L211.457 28.0885L211.088 28.1662L210.679 28.1638L210.39 28.1949L210.162 28.1551L209.63 28.1352L209.303 28.1638C209.111 28.1415 208.784 28.075 208.581 28.0973L208.333 28.2483L208.154 28.2507L207.801 28.3129H207.39L207.208 28.3818L207.041 28.344L206.727 28.3707L206.427 28.3396L206.246 28.3532L206.146 28.3818L205.894 28.3241L205.678 28.3838L205.446 28.3818L205.318 28.4305L205.194 28.4085L204.898 28.4305L204.739 28.4129L204.576 28.4596L204.31 28.4795L204.063 28.4771L203.948 28.446L203.838 28.4903L203.493 28.4994L203.345 28.5393L203.202 28.5106L202.793 28.5305L202.543 28.5883L202.196 28.6015L202.091 28.6413L201.929 28.6194L201.759 28.684L201.505 28.6903L201.331 28.7573L201.109 28.7394L200.946 28.7059L200.489 28.7637L200.221 28.7214L199.93 28.7573L199.585 28.7326L199.214 28.8039C198.934 28.8079 198.658 28.7549 198.375 28.7549C198.107 28.7549 197.84 28.7748 197.569 28.7681L197.166 28.7461L197.08 28.5058L197.173 28.0881L197.489 28.026C197.703 28.0012 197.915 27.9526 198.13 27.9235C198.346 27.8904 198.563 27.8012 198.763 27.7482L199.278 27.6569L199.587 27.5903L199.976 27.5525L200.202 27.5058L200.484 27.4835L200.814 27.4369L200.942 27.4058L201.454 27.3612C202.033 27.2815 202.647 27.2814 203.244 27.2814L203.529 27.2344L203.776 27.2635C204.017 27.2611 204.253 27.2476 204.496 27.25L204.704 27.2699L204.969 27.23L205.377 27.2169L205.627 27.1479H205.804L205.994 27.1013C206.833 27.0499 207.723 27.1013 208.563 27.0702L209.113 27.0324L209.34 27.0013L209.687 27.0387C209.974 27.0479 210.262 27.03 210.533 27.03L210.882 27.0678C211.282 27.0834 211.695 27.0766 212.09 27.0634L212.568 27.0965L212.91 27.0858L213.083 27.1523L213.266 27.1412L213.677 27.2456C213.88 27.2767 214.077 27.2835 214.273 27.3213L214.554 27.3771L214.682 27.4257H214.89L215.172 27.4903L215.585 27.368L215.782 27.3102L215.804 27.2966L215.961 27.0013L216.191 26.8187L216.451 26.5453L216.698 26.0475L216.725 25.8251C216.827 25.4852 216.871 25.1476 216.871 24.7674L216.908 24.3916L216.904 24.2294L216.935 24.0827L216.928 23.9627L217.003 23.7383L216.875 23.0512C216.796 22.8133 216.63 22.5646 216.504 22.351L216.17 21.8799L215.839 21.6755L215.543 21.5021C215.216 21.4088 214.43 21.3156 214.112 21.4511L213.975 21.5176L213.796 21.7221L213.427 21.6065L213.299 21.6998L213.056 21.7599L212.751 21.7512L212.585 21.7643L212.115 21.6934L211.867 21.7065L211.62 21.691L211.333 21.7356L211.024 21.7065C210.717 21.7065 210.392 21.6755 210.081 21.6755L209.59 21.7002C209.387 21.7002 209.177 21.64 208.974 21.64H208.788L208.333 21.5065L207.851 21.3486L207.812 21.1888L207.862 20.6707L207.869 20.6619L208.346 20.6129L208.499 20.5731L208.724 20.5818L208.854 20.542L209.009 20.5332L209.197 20.4818L209.382 20.4196L209.504 20.4419L209.711 20.4463L210.06 20.4375L210.284 20.4132L210.533 20.4395L210.697 20.4176C210.973 20.4599 211.273 20.5041 211.56 20.5041L211.991 20.5177L212.36 20.5129L212.524 20.5575L212.937 20.6022L213.283 20.593L213.86 20.6619L214.101 20.6779L214.328 20.6663C214.538 20.6886 214.744 20.7508 214.947 20.7731C215.155 20.7931 215.342 20.7731 215.543 20.7572L216.007 20.6595L216.403 20.2064L216.177 19.8636L216.385 19.7999C216.568 19.7461 216.8 19.6707 216.824 19.4507L216.745 19.1016L216.785 18.9884L216.502 18.7612L216.431 18.615L216.274 18.4304L216.104 18.295L215.967 18.0371C215.755 17.9016 215.492 17.8059 215.238 17.7545L214.62 17.7569L214.085 17.7729L213.942 17.8083L213.692 17.7948L213.204 17.8215L212.731 17.7816C211.868 17.7681 211.017 17.7856 210.14 17.7569L209.687 17.719C209.354 17.7079 209.005 17.7414 208.662 17.737L208.472 17.7127L208.127 17.7151L207.885 17.6792L207.657 17.6951L207.35 17.6792L207.081 17.6971L206.528 17.7015C206.177 17.7103 205.821 17.7996 205.484 17.8394C204.969 17.8952 204.436 17.8992 203.898 17.8992C203.215 17.8992 202.514 17.9749 201.828 17.9749C201.503 17.9749 201.172 17.9084 200.84 17.9283L200.465 17.9948L200.263 18.0128L199.689 18.1084C199.17 18.1543 198.65 18.1891 198.13 18.2129L197.677 18.2061L197.306 18.2527L196.979 18.2503L196.791 18.2882L196.216 18.2906C195.673 18.3504 195.132 18.442 194.666 18.664L194.299 18.9462L193.705 19.4376L193.685 19.8222C193.727 20.3375 193.904 20.6711 194.323 20.9489L194.498 21.0756C194.706 21.1553 194.918 21.1713 195.15 21.198L195.498 21.2311L195.742 21.2179L196.075 21.131L196.544 21.0936L196.712 21.0513L197.1 20.9979L197.306 20.929L197.675 20.9178L197.838 20.8532L198.046 20.8799L198.477 20.8158L198.805 20.7935L198.929 20.7377L199.064 20.7424C199.272 20.7046 199.497 20.6332 199.709 20.6221C200.025 20.6045 200.336 20.5754 200.655 20.5754L201.006 20.5934H201.311L201.496 20.64L201.907 20.5934L202.234 20.5846L202.38 20.5424L202.521 20.5579L202.954 20.5001L203.12 20.5424L203.409 20.5555C203.663 20.5711 203.893 20.5356 204.118 20.6045L204.321 20.7066L204.436 20.811L204.715 21.1246C204.584 21.5623 204.008 21.5356 203.612 21.587C203.409 21.6137 203.171 21.6467 202.969 21.6758L202.793 21.6715L202.34 21.7157L201.823 21.7803L201.657 21.7691L201.147 21.8448C200.893 21.8604 200.646 21.856 200.387 21.8827L200.263 21.909C199.908 21.9249 199.55 21.9488 199.197 21.9624L198.91 21.9648L198.66 22.0094L198.417 22.0027L198.163 22.0449L198.006 22.025L197.469 22.0337L197.08 22.0182C196.866 22.027 196.68 22.0896 196.484 22.1183C196.205 22.1517 195.949 22.1541 195.689 22.2139L195.452 22.2936L195.258 22.3382L195.143 22.394C194.891 22.463 194.637 22.5228 194.425 22.6786L194.324 22.7743L194.105 22.9472L194.138 23.1473L194.175 23.3143L194.003 23.4853L193.855 23.8655L193.97 24.2565C194.14 24.592 194.189 24.7323 194.568 24.8611L194.805 24.9635L194.938 24.9699L195.052 25.0432L195.58 25.1213L195.793 25.1879L196.128 25.2743L196.232 25.3612L196.173 25.3947L195.916 25.4186L195.375 25.6079L194.887 25.6837L194.646 25.8702L194.27 26.1571L194.054 26.517C193.915 26.7347 193.723 27.0081 193.685 27.2727C193.65 27.4995 193.694 27.7529 193.745 27.9642L193.802 28.1973L193.78 28.3396L193.789 28.5285C193.789 28.7529 193.745 28.9777 193.701 29.1841L193.625 29.3619L193.568 29.7266L193.521 29.9533L193.583 30.2933L193.687 30.4312L193.738 30.6556L193.897 30.9158L193.944 31.0892L194.154 31.4316L194.549 31.5938L194.79 31.7337C195.079 31.8425 195.406 31.9206 195.746 31.909L196.199 31.858L196.407 31.8779L196.855 31.8739L197.222 31.8425L197.429 31.7938L197.942 31.7404L198.498 31.6292L198.759 31.6049L199.053 31.5113C199.291 31.4583 199.541 31.4427 199.791 31.4156L200.224 31.349C200.449 31.3359 200.663 31.298 200.882 31.2825L201.372 31.2713L201.927 31.2291L202.132 31.2004L202.358 31.2092L202.669 31.1733L202.932 31.1693C203.376 31.1223 203.822 31.0537 204.271 31.0115C204.752 30.9645 205.227 31.0378 205.707 30.9601L205.775 30.8314L206.011 30.7803L206.091 30.8003L206.202 30.7536L206.36 30.8401L206.446 30.7911L206.553 30.8469L206.831 30.8357L206.946 30.758L207.063 30.7692L207.39 30.7823L207.555 30.8668L207.964 30.8867L208.397 30.9425L208.64 30.9135L209.042 30.8425L209.058 30.689L209.261 30.8134L209.793 30.8158L209.899 30.6647L210.158 30.6448L210.352 30.6137L210.451 30.6448L210.834 30.7114L210.878 30.8158L211.231 30.9003C211.432 30.9162 211.825 30.9561 211.987 30.858L211.938 30.7584L212.073 30.6779C212.274 30.658 212.466 30.7046 212.667 30.6847L212.831 30.6424L213.306 30.6157L213.458 30.756H213.553L213.696 30.7736L213.88 30.7425L214.052 30.7935L213.864 30.8959L213.902 30.9182L214.492 30.9959L215.029 31.1183L215.278 31.2004L215.684 31.245L216.054 31.2403L216.327 30.9692L216.588 30.9095L216.632 30.6026L216.55 30.4914L216.495 30.1845C216.648 29.9266 216.696 29.9246 217.001 29.8892L217.085 29.8266L216.924 29.4555ZM209.504 23.8344L209.833 23.8567C210.091 23.8567 210.352 23.8519 210.593 23.8766L210.699 23.9209L210.659 23.9544L210.555 23.9388L210.469 23.9723L210.204 23.9966L209.459 23.9101L209.504 23.8344ZM196.957 25.2213L197.129 25.1301L197.65 24.9591C197.862 24.8794 198.088 24.777 198.313 24.7256L198.784 24.6566L198.952 24.6056L199.236 24.5769L199.585 24.5211L199.954 24.5099C200.186 24.5036 200.423 24.4701 200.654 24.4546L201.229 24.3924C201.591 24.388 201.949 24.388 202.298 24.388L202.543 24.3545L202.874 24.37C203.126 24.3589 203.376 24.3143 203.628 24.321C204.05 24.3302 204.469 24.3234 204.889 24.2943L205.4 24.2301L205.687 24.2254L206.095 24.1879L206.793 24.1457L207.352 24.1632L207.964 24.1768L208.499 24.27C208.899 24.27 209.23 24.1744 209.63 24.1744C210.31 24.1744 210.997 24.2011 211.662 24.2632L212.09 24.2744C212.322 24.2812 212.552 24.3122 212.773 24.3413L213.131 24.3856L213.164 24.439L213.155 24.4521L212.687 24.5701L212.424 24.5303L211.907 24.5657L211.744 24.5211L211.541 24.5303L211.415 24.5036C210.946 24.4968 210.465 24.5594 210.001 24.5147L209.65 24.5347C209.446 24.5211 209.219 24.4924 209.013 24.4789L208.682 24.5123L208.335 24.5036L208.075 24.5502C207.759 24.5211 207.465 24.5789 207.142 24.59L206.984 24.5701L206.793 24.6191L206.533 24.608L206.404 24.5721C206.168 24.5681 205.914 24.5789 205.667 24.5769L205.417 24.559L205.172 24.59L205.011 24.5837L204.843 24.6191L204.498 24.6124L204.105 24.6813L203.9 24.6726L203.774 24.7148L203.405 24.7614C203.182 24.7746 202.958 24.7678 202.744 24.7969H202.567L202.298 24.8435L202.112 24.8348L201.905 24.8726L201.744 24.8547L201.437 24.8989L201.103 24.9081L200.774 24.9591L200.465 24.9615L200.1 24.975L199.791 25.0217L199.404 25.0241C199.148 25.0328 198.887 25.0882 198.642 25.0882L198.417 25.0639C198.207 25.0683 197.962 25.0707 197.763 25.1038C197.531 25.1484 197.279 25.1616 197.061 25.2193L196.957 25.2218M205.848 29.7784L205.543 29.7361L205.338 29.7852L205.251 29.7608L205.484 29.6827L205.81 29.7118L205.925 29.703L205.941 29.7274L205.848 29.7784ZM206.067 29.7852L206.219 29.7186L206.427 29.6652L206.482 29.7808L206.067 29.7852ZM206.935 30.1984L206.612 30.2343L206.546 30.1654L206.457 30.2543L206.131 30.212L206.091 30.1761L206.124 30.1474L206.734 30.1008L206.831 30.163L206.932 30.1789L206.935 30.1984ZM206.685 29.7652C206.659 29.5651 206.977 29.7254 207.043 29.6229L206.685 29.7652ZM207.332 30.1654L207.193 30.1785L207.247 30.1207L207.332 30.1654ZM207.158 29.7764L207.138 29.7628L207.412 29.7186L207.534 29.6429C207.898 29.8075 207.193 29.7652 207.158 29.7764ZM210.244 30.0717L209.65 30.0829L209.61 30.0139L210.019 30.0298H210.197L210.246 30.0653L210.244 30.0717M211.134 29.8186C210.849 29.7852 209.475 30.0299 209.413 29.7852L209.451 29.7584L209.711 29.7453L209.917 29.7054C210.155 29.6939 210.648 29.7692 210.803 29.6429L210.926 29.7094L211.046 29.7007L211.276 29.7405L211.326 29.7696L211.134 29.8186Z" fill="black"/>
<path d="M213.203 30.407L213.159 30.4803L213.325 30.456M148.535 11.1367L148.948 11.1658L149.673 11.6927L149.876 12.0059L149.958 12.1148L150.157 12.6082L150.313 13.0171L150.329 13.2594L150.375 13.473C150.404 13.6882 150.397 14.4088 150.532 14.5264H151.124C151.345 14.5264 151.581 14.5399 151.789 14.5399L152.056 14.4909L152.204 14.5089L152.324 14.4909L152.571 14.5575C153.057 14.6531 153.454 14.7153 153.812 15.0756L153.963 15.2422L154.027 15.5156L154.077 16.0692L153.899 16.2358L153.932 16.5359L153.72 16.7913L153.669 16.9428L153.667 16.9468L153.499 17.0647L153.273 17.056L153.008 17.0783L152.911 17.1138L152.807 17.1114L152.803 17.2425L152.537 17.3314L152.282 17.4828L151.786 17.3673L151.389 17.4183L151.241 17.3892L150.938 17.5207L150.709 18.0695L150.702 18.374L150.667 18.5629L150.673 18.6761L150.644 19.1583L150.601 19.7143C150.601 20.061 150.638 20.4453 150.549 20.7633L150.242 21.1989L150.029 21.2786L149.955 21.4723L149.812 21.5169L149.768 21.601L149.759 21.6102L149.69 21.6612L149.284 21.2635L149.019 21.5389L148.944 21.6457L148.853 21.5947L148.336 21.4811L148.19 21.7258L147.828 21.4388L147.557 21.3344L147.49 21.4301L147.486 21.4345L147.444 21.2499L147.366 21.1057L147.285 20.8502L147.183 20.5875L147.163 20.3233L147.126 20.1718L147.119 19.9275L147.044 19.6721L147.05 19.3094L147.024 19.1583L147.095 19.0563L147.132 18.8538L147.26 18.7717L147.338 18.5673L147.357 18.1249L147.431 17.7782C147.444 17.5737 147.433 17.4047 147.421 17.2246L147.433 16.8978L147.402 16.7069C147.389 16.4223 147.389 16.1533 147.373 15.8643L147.324 15.6332L147.313 15.233L147.245 14.8887V14.6463L147.172 14.3909L147.139 14.1418L147.15 14.0509L147.092 13.8931L147.123 13.7217L147.119 13.1885L147.066 13.086L147.05 12.9417L146.947 12.6436L146.92 12.4061L146.836 12.2546L146.799 12.0147L146.803 11.9701L146.929 11.7991L146.949 11.6947L147.156 11.4767L147.435 11.548L147.698 11.7058L148.115 11.4237L148.279 11.2236L148.535 11.1367M135.58 11.4053C135.832 11.4452 136.095 11.6632 136.315 11.7856L136.512 11.8633L136.729 12.0454L136.866 12.1052L136.996 12.2168L137.341 12.43L137.469 12.5835L137.663 12.7548L137.741 12.8545L137.833 12.9258L138.306 13.4236C138.655 13.819 138.968 14.2482 139.264 14.6683L139.632 15.0971L139.965 15.5885L140.294 16.0397L140.391 16.2111L140.42 16.2975L140.574 16.4665L140.628 16.5685L140.782 16.771L140.831 16.8886L140.904 16.9575L140.928 17.0508L141.045 17.262L141.149 17.3955L141.266 17.6088L141.429 17.8244L141.498 17.9535L141.584 18.038L141.792 18.325C142.138 18.8335 142.245 19.4313 142.01 20.0339L141.891 20.1228L141.765 20.2874L141.719 20.4385L141.597 20.5808L141.368 20.6652L141.074 20.405L140.996 20.2962L140.985 20.2986L140.91 20.4118L140.559 20.7964L140.526 20.8075L140.345 20.6788L140.108 20.7366L139.971 20.6409L139.834 20.7721L139.671 20.8207L139.58 20.7944L139.382 20.6342L139.147 20.7653L138.918 20.5875L138.785 20.1384C138.709 19.8538 138.623 19.5721 138.527 19.2938C138.41 18.9714 138.24 18.696 138.056 18.4071L137.983 18.1914L137.897 18.0958L137.791 17.8846C137.46 17.3601 137.113 16.8332 136.68 16.3689L136.55 16.1911L136.329 15.9931L136.221 15.8332L135.816 15.5399L135.522 15.4598L135.43 15.471L135.293 15.4088L134.763 15.7133L134.654 15.7575L134.511 15.9376L134.272 16.0688L134.157 16.1776L133.932 16.4685L133.744 16.5665L133.323 17.06L133.205 17.1357L133.187 17.3246L132.951 17.4625L132.827 17.498L132.783 17.7132L132.704 17.7981L132.657 17.8826L132.532 18.0181L132.609 18.158L132.545 18.2425L132.542 18.3246L132.467 18.3983L132.423 18.4959L132.233 18.5756L132.343 18.7403L132.225 18.8957L132.123 18.9184L132.193 19.018L132.147 19.1049L132.123 19.2293L131.997 19.6051C131.946 19.8562 131.889 20.083 131.825 20.3209L131.699 20.7298L131.338 20.9785L131.186 20.91L131.069 21.0566L130.886 20.9897L130.729 21.0921L130.693 21.0654L130.605 21.0056L130.561 20.9076L130.545 20.894L130.393 21.1096L130.369 21.112L130.141 21.0323L130.062 20.9279L129.938 21.0566L129.922 21.0455L129.827 20.91L129.651 20.8677L129.556 20.788L129.333 20.9833L129.26 20.9275L129.185 20.9124L129.099 20.741L129.006 20.3855L129.043 20.1543L129.021 20.0897L128.928 20.2587L128.827 20.2675L128.811 19.8853L128.849 19.7697L128.851 19.4517L128.968 18.9654L128.971 18.5095L129.064 18.4051L129.139 18.2448L129.256 18.1006L129.335 17.9093L129.342 17.9005L129.473 18.0292L129.704 17.8228C129.951 17.5247 130.082 17.1468 130.296 16.8292L130.437 16.6491L130.557 16.6068L130.588 16.4869L130.831 16.1465L131.003 15.8356L131.485 15.3466L131.727 14.9552L131.818 14.8576L131.86 14.7061L132.013 14.5929L132.059 14.4885L132.207 14.3108L132.293 14.1107L132.412 14.0708L132.642 13.9062L132.881 13.6906L132.943 13.5328L133.113 13.3259L133.21 13.2395L133.369 13.1837L133.36 12.9214L133.479 12.9015L133.612 12.817L133.67 12.6791L133.736 12.6325L134.018 12.308L134.157 12.0434L134.39 12.3236L134.769 11.7724L134.84 11.6209L134.971 11.5923L135.125 11.5413L135.328 11.5301L135.549 11.428L135.58 11.4057M147.469 16.3055L147.502 16.3366Z" fill="black"/>
<path d="M137.88 17.5302L138.039 17.8435L138.041 17.8012M131.223 22.6811L131.741 22.8433C132.243 23.0565 132.552 23.19 132.711 23.7703L132.778 23.8879L132.815 24.1748L132.751 24.5371L132.667 25.0325L132.651 25.1792C132.579 25.3749 132.479 25.5861 132.446 25.8017L132.378 26.1843L132.389 26.3306L132.342 26.4661L132.364 26.7399L132.347 27.0842L132.543 27.4908L132.685 27.5242L133.054 27.6155L133.162 27.5996L133.582 27.6534L133.792 27.6422C134.192 27.6466 134.6 27.6422 135.011 27.6422L135.311 27.6554C135.634 27.6442 135.998 27.6111 136.308 27.6378L136.396 27.6219L136.588 27.6155L136.855 27.5844L136.988 27.6131L137.118 27.5932L137.196 27.6068L137.596 27.5709L137.787 27.5757L137.887 27.5422L138.242 27.5621L138.645 27.5422L138.85 27.5645L138.972 27.5199L139.117 27.531L139.363 27.48L139.5 27.5242L139.762 27.5003L139.877 27.4732L140.03 27.531L140.45 27.4553L140.679 27.5067L140.812 27.4689L141.002 27.4912L141.139 27.4421L141.419 27.4445L141.512 27.4246L141.781 27.4445L141.954 27.4314C142.168 27.4246 142.394 27.4354 142.599 27.4314L142.826 27.4469C143.098 27.4533 143.365 27.4334 143.626 27.427L144.18 27.4358L144.309 27.4067C144.574 27.3868 144.81 27.3867 145.073 27.3844L145.225 27.3533L145.605 27.3692L145.756 27.36L145.95 27.3891L146.385 27.3915C146.626 27.4071 146.88 27.4358 147.125 27.4358L147.374 27.4091L147.947 27.4067L148.402 27.3891L148.879 27.3668L148.978 27.2265L148.916 27.1269L149.277 27.158L149.659 27.1668L150.213 27.2911C150.58 27.3736 151.051 27.4645 151.346 27.6845L151.466 27.7713L151.492 28.0759L151.629 28.3492L151.7 28.6717L151.755 28.8227L151.773 29.038L151.806 29.2117L151.782 29.3428L151.808 29.5142L151.978 29.676L151.773 29.7916L151.636 29.8717L151.413 29.8896L151.314 30.3005C151.143 30.4408 150.909 30.332 150.708 30.4054L150.626 30.5229L150.412 30.5652L150.324 30.7585L150.129 30.8808C149.926 30.9542 149.583 30.8653 149.374 30.8298C149.107 30.7808 148.881 30.6784 148.627 30.6162L148.364 30.5584L148.174 30.5297L148.398 30.4341L148.23 30.3273L147.889 30.283L147.759 30.3005L147.523 30.234L147.244 30.2161L147.012 30.1694L146.82 30.1917L146.557 30.1694L146.246 30.2093L145.93 30.2053L145.605 30.2384C145.168 30.2519 144.726 30.2053 144.293 30.2141L144.159 30.234C143.915 30.2499 143.672 30.2739 143.434 30.2898L143.208 30.283L142.903 30.2962L142.749 30.2675L142.486 30.3097L142.239 30.2898L141.93 30.3229L141.839 30.3097L141.667 30.3253L141.419 30.3229L140.944 30.3763L140.602 30.3583L140.374 30.3942L140.187 30.3719C139.88 30.3719 139.57 30.3958 139.268 30.4273L139.135 30.405L139.04 30.4408L138.91 30.4361L138.777 30.4628L138.452 30.4695L138.242 30.4448L137.937 30.4672L137.805 30.4628L137.635 30.5006L137.405 30.4807L137.282 30.5249L137.193 30.4982L137.005 30.4958L136.897 30.5847L137.03 30.6648L136.968 30.7517L136.871 30.7206L136.725 30.7158L136.749 30.5939L136.752 30.5269H136.186L135.828 30.5317L135.327 30.6314L135.172 30.6449L135.029 30.7964L135.068 30.8693C134.832 30.9207 134.58 30.9071 134.322 30.9115L133.849 30.9673C133.569 30.9848 133.319 30.9649 133.049 30.9916L132.702 31.1116L132.555 31.114L132.19 31.1985L131.622 31.2228L131.448 31.2698L131.167 31.2762C130.946 31.2762 130.727 31.3097 130.525 31.2451C130.301 31.1805 130.052 31.1363 129.855 31.0052L129.694 30.8406L129.546 30.7071L129.327 30.3093L129.197 30.1403L129.044 29.8047L128.996 29.7003L128.978 29.3695L128.943 29.189L128.978 29.0204L128.947 28.865L128.936 28.48L128.918 28.2867L129.011 28.0778L129.02 27.6753L129.055 27.5286L129.095 27.1022L129.122 26.9866C129.148 26.7507 129.146 26.5195 129.172 26.2772L129.228 26.0683L129.234 25.9018L129.267 25.7639V25.5016L129.239 25.284L129.365 24.8815L129.413 24.6591L129.462 24.5726L129.515 24.3482L129.645 23.948L129.674 23.697L129.665 23.6033L129.718 23.5411L129.826 23.3522L129.793 23.0055L129.8 22.9923L129.82 22.9724L129.833 22.9477L129.928 22.919L130.151 22.9365L130.325 23.0166C130.544 23.0055 130.686 22.8612 130.869 22.7899L130.986 22.7632L131.083 22.7165L131.223 22.6811ZM243.465 10.7612L243.933 10.8477L244.132 10.9968L244.472 10.988C245.113 11.2347 245.669 11.817 245.952 12.4371C246.08 12.7169 246.226 12.9728 246.286 13.2904C246.339 13.5949 246.37 13.913 246.383 14.2262C246.394 14.5642 246.332 15.1489 246.518 15.4043L246.831 15.4641L247.192 15.5175L247.364 15.4936L247.594 15.5243L247.801 15.5088L247.989 15.5355L248.236 15.5311C248.577 15.5753 249.94 16.0089 249.999 16.3513L249.979 16.8025L249.853 17.0759L249.962 17.3847L249.92 17.8961L249.867 18.0539L249.891 18.3608C249.812 18.5696 249.736 18.4804 249.582 18.574L249.509 18.6852L249.319 18.8096L249.133 18.8163L248.961 18.8362L248.431 18.7829L248.144 18.7964L247.934 18.7741C247.585 18.7916 247.18 18.8697 246.893 19.0431L246.73 19.1961L246.531 19.3763C246.412 19.5541 246.445 19.7828 246.44 20.0076L246.407 20.4277L246.452 20.5767L246.432 20.9075C246.452 21.3344 246.551 21.6791 246.427 22.0992L246.363 22.3144L246.12 22.6037L245.988 22.6771L245.709 22.9573L245.504 23.0748L245.36 23.1816L245.241 23.1283L245.093 23.1103L245.036 23.0194L244.755 22.8038L244.497 22.9772L244.165 23.0194L244.048 22.9636L243.936 22.915L243.737 22.6659L243.62 22.6324L243.447 22.5639L243.288 22.426H243.284L243.001 22.3993L242.988 22.3814L242.893 21.8632L242.873 21.7146L242.919 21.4412L242.941 21.0235L242.995 20.5014C242.995 20.181 243.027 19.8896 243.027 19.5632L243.004 19.3564C243.004 18.8761 243.021 18.3959 243.021 17.9204L243.063 17.6852L243.056 17.596L243.094 17.1715L243.085 17.0579L243.072 16.598L243.032 16.4665L243.078 16.1755L243.032 15.9866C243.01 15.7423 243.003 15.5112 242.964 15.28C242.922 15.06 242.846 14.8264 242.793 14.6108L242.772 14.3773L242.696 13.9373L242.632 13.7061C242.601 13.4773 242.641 13.2083 242.652 13.0015V12.697L242.73 12.3837L242.789 12.0079L243.045 11.5456L243.218 11.1143L243.242 10.99L243.465 10.7612ZM228.794 11.2586C229.03 11.3232 229.28 11.2431 229.53 11.2718L229.921 11.3563H230.314L230.656 11.4121L231.096 11.381L231.213 11.4188H231.361L231.666 11.4543L231.856 11.432C232.061 11.4252 232.264 11.4344 232.463 11.4431L232.845 11.4232L233.018 11.4431L233.303 11.4141L233.658 11.4117L234.042 11.3742L234.2 11.4117L234.652 11.4005L234.767 11.4184L235.242 11.3387L235.512 11.3898L235.644 11.365L235.801 11.4117L235.909 11.3985L236.232 11.4184C236.624 11.4866 236.998 11.6365 237.33 11.8584L237.59 12.0697L237.992 12.4323L238.176 12.8229V12.9433L238.233 13.1521L238.197 13.5367C238.176 13.948 238.149 14.4454 238.233 14.8368L238.328 15.1038C238.39 15.3015 238.434 15.5502 238.434 15.7774L238.386 16.0062L238.291 16.4661C238.271 16.6817 238.242 16.8997 238.218 17.1129L238.249 17.5553C238.262 17.8243 238.156 18.0467 238.012 18.2376L237.595 18.5087L237.389 18.3911L237.182 18.3935L237.042 18.1599L236.899 18.3644L236.742 18.456L236.561 18.6848H236.411L236.322 18.747L236.157 18.7757H236.152L235.735 18.6179L235.647 18.4357L235.527 18.4955L235.235 18.1332L235.145 18.0423L235.01 17.7889L234.931 17.6845L234.944 17.4421L234.924 17.0376L234.944 16.7331L234.984 16.5976L234.96 16.4661L234.937 16.0261L235.099 15.7152L235.119 15.3374L235.167 15.0484L235.127 14.8037C235.061 14.508 234.944 14.4191 234.668 14.3326L234.387 14.3167C234.186 14.2904 233.968 14.2569 233.76 14.2482L233.475 14.2637L233.376 14.2258L233.095 14.2394L232.538 14.1947L232.123 14.2214C231.845 14.2214 231.547 14.2059 231.248 14.2059C231.038 14.2059 230.846 14.2637 230.636 14.2681C230.371 14.2768 230.121 14.2394 229.841 14.2681L229.609 14.3239L229.249 14.2924L228.929 14.3123L228.774 14.2948L228.624 14.3171L228.259 14.3326L228.032 14.3259C227.517 14.4016 227.02 14.5128 226.492 14.5638L226.073 14.6925L225.56 14.6993L225.372 14.626L225.149 14.5793L224.884 14.3147L224.714 13.9058C224.63 13.748 224.511 13.6256 224.513 13.4212L224.548 13.0768L224.462 12.7524L224.626 12.5412L224.884 12.2478L225.401 11.9876L225.77 11.6831C225.971 11.6233 226.203 11.6365 226.413 11.5942C226.722 11.532 227.029 11.4942 227.347 11.4428L227.692 11.3587L228.127 11.3475L228.447 11.2941L228.794 11.2586ZM232.161 14.0353L232.2 14.0752Z" fill="black"/>
<path d="M230.413 16.5415L230.764 16.5881C230.978 16.7173 231.095 16.9592 231.254 17.1481L231.65 17.5929L231.903 17.9906L232.1 18.4374L232.133 18.7774L232.224 19.2086L232.226 19.5466L232.284 19.6845L232.352 19.8311L232.69 19.8821L233.054 20.0336L233.399 20.02L233.642 20.0356L233.912 19.9933L234.062 20.0157L234.146 19.969L234.21 19.9846L234.274 19.9579L234.577 19.9399L235.089 19.9758L235.233 20.0045L235.303 20.0487L235.721 20.0754L235.871 20.1001L235.944 20.0244L235.801 19.9065L236.492 20.0021L236.578 20.0798L236.671 19.969L236.823 20.0001L236.975 19.9933L237.528 20.0599C237.736 20.0866 237.954 20.1468 238.129 20.2468L238.544 20.5067L238.723 20.5465L238.811 20.7976L238.984 20.898C239.2 21.0176 239.189 21.2181 239.176 21.4425L239.198 21.6202L238.646 21.6047L238.73 21.9913L238.597 22.1694L238.586 22.3627L238.281 22.6584L238.051 22.7342L238.012 22.8561L237.947 22.9562L237.91 23.0961L237.784 23.2694L237.766 23.2786L237.755 23.2826L237.305 23.2626L237.126 23.2072L236.88 23.2587L236.468 23.1917L236.361 23.1431L236.178 23.163L236.105 23.0829L235.964 23.1562L235.721 23.1052L235.622 23.063L235.401 23.114L235.135 23.1072L235.014 23.1383L234.689 23.0917L234.236 23.0964L234.062 23.063L233.931 23.0805L233.764 23.0319L233.569 23.0877L233.3 23.0673L233.092 23.1164L232.946 23.1228L232.734 23.1742L232.465 23.1475L232.332 23.1562L232.239 23.1383L232.14 23.1674L231.745 23.1475C231.48 23.1431 231.217 23.1961 230.963 23.1917L230.87 23.1742L230.561 23.2072H230.051L229.834 23.283L229.728 23.2694L229.149 23.3451H228.946L228.701 23.4097L228.376 23.4229L227.835 23.6118L227.351 23.7074L227.214 23.7652L226.889 23.7094L226.686 23.6855L226.392 23.5763L226.209 23.5608L225.752 23.4432L225.233 23.3228L224.76 22.9207L224.672 22.7342L224.508 22.4919L224.481 22.0562L224.523 21.9407L224.552 21.7517L224.658 21.5692L224.735 21.4158L225.076 21.2627L224.974 20.9248L225.027 20.7892L225.169 20.647L225.447 20.6222L225.681 20.5158H225.9L226.038 20.456L226.379 20.3959L226.717 20.4716C226.942 20.4648 227.17 20.4114 227.386 20.3759L227.685 20.3536L227.945 20.2891L228.129 20.2755L228.305 20.2269L228.471 20.2309L228.831 20.1556C229.054 19.9535 228.966 19.3556 228.966 19.0488L228.99 18.7909L228.769 18.4107L228.696 18.0775L228.798 17.6128C228.869 17.3506 229.054 17.1461 229.261 16.9727L229.408 16.8372L229.604 16.795L229.88 16.6571L230.413 16.5415ZM236.233 19.987L236.173 20.0579ZM226.701 24.0079L227.211 24.0478L227.477 24.2192L227.578 24.2682C227.779 24.4105 227.952 24.5926 228.135 24.7481L228.393 24.9636L228.55 25.4682L228.504 25.6615L228.497 25.8596L228.409 26.0796L228.406 26.2462L228.325 26.4574L228.314 26.6264L228.269 26.8416L228.276 27.013L228.252 27.5642L228.817 27.9779L229.023 27.9819L229.175 27.9998L229.305 27.9759L229.443 27.9843L229.535 27.9643L229.65 27.9823L229.822 27.9532L230.09 27.9998C230.428 27.9998 230.77 27.9376 231.114 27.9309L231.419 27.9576L231.534 27.9376L231.817 27.9488L232.122 27.9201C232.526 27.9109 232.91 27.8978 233.304 27.84L233.816 27.8332L233.953 27.791L234.256 27.7886L234.671 27.7288L235.016 27.7396L235.17 27.7176L235.446 27.7487C235.669 27.7288 235.864 27.7089 236.083 27.6774L236.233 27.6308L236.48 27.6551L236.657 27.6176L236.995 27.604L237.565 27.5618L237.678 27.5331L237.848 27.5395L238.098 27.4972C238.424 27.4932 238.753 27.5395 239.087 27.5219L239.637 27.4885L239.789 27.455L240.269 27.4239L240.494 27.4175L240.607 27.4375L240.874 27.3374L241.239 27.2816L241.596 27.2952L241.799 27.2728L242.151 27.3374L242.663 27.3549L242.911 27.3394L243.304 27.3685L243.518 27.4108L243.958 27.3996L244.546 27.4506L245.098 27.453L245.252 27.4243L245.279 27.3685L245.29 27.3645L245.385 27.3845L245.493 27.3685L245.701 27.4574L245.862 27.3908H245.975L246.107 27.3665L246.266 27.3996L246.507 27.4131L246.849 27.4199L247.079 27.4841L247.231 27.4865L247.614 27.5801C247.839 27.6734 248.084 27.9109 248.152 28.1445L248.168 28.2401L248.084 28.2959L247.945 28.5179L247.877 28.5048L247.839 28.5422L247.912 28.649L247.868 28.7112L247.724 28.667L247.536 28.6845L247.388 28.6311L247.225 28.7136L247.251 28.7423L247.439 28.7559L247.556 28.8447L247.594 28.8579L247.824 28.8268L247.894 28.8312L247.95 28.8137L248.027 28.8734L248.142 28.9448L248.089 28.9759L247.956 28.9938L247.419 29.0026L247.41 29.0424L247.545 29.3314V29.3668L247.519 29.645L247.388 29.7183L247.322 30.0739L247.349 30.1404L247.353 30.1628L247.276 30.1894L247.209 30.2604L246.9 30.4094L246.92 30.6318L246.883 30.7606L246.412 30.8586L246.012 30.8275L245.767 30.8116L245.491 30.6605L245.35 30.6251L245.237 30.5717L244.98 30.6163L244.901 30.5697L244.757 30.5362L244.733 30.5182L244.795 30.4872L245.104 30.4983L244.965 30.3317H244.837L244.565 30.3006L244.413 30.2715L243.92 30.254L243.686 30.2715L243.538 30.2516L243.235 30.2759L242.913 30.2628L242.827 30.305L242.683 30.2827L242.285 30.2939L242.122 30.4604L241.521 30.545L241.349 30.5027L241.166 30.4784L241.042 30.4007L240.73 30.4047L240.708 30.2739L240.516 30.2341L240.189 30.2404C239.986 30.2273 239.778 30.1847 239.575 30.1847L239.392 30.2449L239.193 30.2094L239.03 30.2604L238.802 30.2138L238.457 30.3584L238.321 30.3608L238.229 30.3142L237.925 30.3006L237.657 30.3317L237.223 30.3293L236.86 30.3983L236.54 30.3716L236.33 30.3293L236.213 30.3584L236.047 30.376L235.91 30.4537L235.435 30.4872L235.086 30.5541L234.996 30.5473L234.671 30.576L234.497 30.6406L234.305 30.6804L234.141 30.6697L233.967 30.6984L233.682 30.6916L233.646 30.7075L233.725 30.8383L234.236 30.8096L234.744 30.8028L234.249 30.8829L233.872 30.9319L233.628 30.9407L233.491 30.9718L233.304 30.9786L232.789 31.0694C232.102 31.134 231.457 31.181 230.792 31.2675L230.573 31.3297L230.428 31.3385L230.145 31.4297L229.745 31.4807L229.515 31.5429L229.12 31.523L228.908 31.5652L228.486 31.5629L228.276 31.6139L228.17 31.6007L227.783 31.592L227.573 31.6386L227.253 31.6541L227.059 31.576L226.913 31.5736L226.774 31.5206L226.361 31.4604L226.085 31.3293L225.833 31.2871L225.455 30.8869L225.362 30.7781L225.289 30.6159L225.139 30.4047L225.024 30.0555L224.978 29.94L224.971 29.7869L224.881 29.4621L224.905 29.0775L224.876 28.8132L224.87 28.3888L224.857 27.893L224.87 27.7416L224.857 27.2238C224.881 27.0038 224.987 26.8416 225.022 26.6284L225.06 26.3614C225.071 26.1282 225.033 25.9014 225.073 25.6747L225.135 25.5368L225.186 25.3367L225.338 25.1856L225.532 24.9389L225.742 24.7476L225.813 24.6301L226.102 24.4746L226.443 24.1697L226.701 24.0079ZM241.047 30.2106L241.063 30.2417Z" fill="black"/>
<path d="M233.434 30.7861L233.176 30.9264C233.227 31.0173 233.724 30.8216 233.434 30.7861ZM101.912 36.7823C102.761 36.7823 103.412 37.0003 103.865 37.4316C104.313 37.8604 104.541 38.3426 104.541 38.8763C104.541 39.3139 104.24 39.832 103.638 40.4299C103.638 40.4366 103.861 40.5833 104.309 40.8722C104.755 41.1612 104.978 41.6614 104.978 42.3815C104.978 43.3261 104.634 43.9797 103.949 44.3504C103.262 44.7218 102.659 44.9064 102.138 44.9064H98.9609V36.7823H101.912ZM100.724 43.4927H101.954C102.312 43.4927 102.613 43.3771 102.853 43.1416C103.097 42.908 103.22 42.6346 103.22 42.3166C103.22 42.0013 103.103 41.7255 102.864 41.4924C102.63 41.2588 102.323 41.1433 101.943 41.1433H100.724V43.4927ZM100.733 39.781H101.89C102.076 39.781 102.266 39.7184 102.465 39.5873C102.661 39.4562 102.758 39.2605 102.758 38.9939C102.758 38.7563 102.67 38.565 102.491 38.4228C102.318 38.2813 102.102 38.2052 101.879 38.2075H100.733M112.955 36.7823V42.37C112.955 42.6171 113.063 42.8925 113.28 43.197C113.492 43.5015 113.848 43.6553 114.34 43.6553C114.818 43.6553 115.173 43.5015 115.401 43.197C115.631 42.8925 115.743 42.6171 115.743 42.3704V36.7827H117.588V42.0902C117.588 42.7817 117.305 43.4572 116.737 44.1196C116.167 44.782 115.368 45.1132 114.34 45.1132C113.324 45.1132 112.533 44.7776 111.964 44.1128C111.396 43.4505 111.111 42.7725 111.111 42.0902V36.7823M126.834 38.0944C126.566 38.0944 126.328 38.1764 126.114 38.3474C125.899 38.5164 125.793 38.7053 125.793 38.9122C125.793 39.3012 126.02 39.577 126.478 39.7368C126.935 39.899 127.372 40.0747 127.785 40.2613C128.272 40.4747 128.742 40.7259 129.19 41.0125C129.634 41.2971 129.88 41.8284 129.922 42.6131C129.957 43.2488 129.665 43.8247 129.045 44.3444C128.431 44.8665 127.697 45.1248 126.853 45.1156C125.831 45.1116 125.055 44.8087 124.52 44.2133C123.99 43.6242 123.723 43.0176 123.723 42.3975H125.557C125.557 42.6773 125.663 42.9507 125.877 43.2129C126.091 43.4756 126.407 43.6043 126.823 43.6043C127.229 43.6043 127.536 43.4819 127.75 43.2285C127.96 42.9774 128.057 42.7821 128.044 42.6466C128.024 42.3863 127.94 42.1707 127.792 41.9993C127.646 41.8284 127.401 41.6685 127.059 41.5239C126.392 41.2408 125.72 40.9711 125.042 40.7148C124.32 40.4414 123.957 39.8635 123.957 38.9767C123.957 38.3474 124.244 37.7851 124.817 37.3008C125.389 36.8118 126.064 36.5715 126.845 36.5715C127.693 36.5715 128.38 36.8206 128.896 37.3208C129.414 37.8229 129.697 38.3697 129.738 38.9676H127.863C127.863 38.75 127.759 38.5523 127.551 38.3697C127.356 38.1895 127.099 38.091 126.834 38.0944ZM140.429 36.7823L143.839 44.9064H142.079L141.308 42.9862H137.683L136.901 44.9064H135.142L138.573 36.7823H140.429ZM138.328 41.5055H140.654L139.497 38.6049M151.723 36.7823L154.917 42.1237V36.7823H156.709V44.9064H154.791L151.595 39.5562V44.9064H149.803V36.7823M173.93 36.7915L176.095 42.7817L178.262 36.7915H180.557V44.9064H178.796V39.7053L176.943 44.9064H175.249L173.393 39.7942V44.9064H171.635V36.7919M188.482 36.7823V42.37C188.482 42.6171 188.588 42.8925 188.804 43.197C189.019 43.5015 189.372 43.6553 189.865 43.6553C190.344 43.6553 190.7 43.5015 190.927 43.197C191.155 42.8925 191.272 42.6171 191.272 42.3704V36.7827H193.114V42.0902C193.114 42.7817 192.831 43.4572 192.262 44.1196C191.694 44.782 190.899 45.1132 189.865 45.1132C188.851 45.1132 188.058 44.7776 187.49 44.1128C186.923 43.4505 186.637 42.7725 186.637 42.0902V36.7823M202.357 38.0944C202.095 38.0944 201.856 38.1764 201.641 38.3474C201.425 38.5164 201.317 38.7053 201.317 38.9122C201.317 39.3012 201.544 39.577 202.006 39.7368C202.463 39.899 202.899 40.0747 203.312 40.2613C203.799 40.4747 204.27 40.7259 204.719 41.0125C205.161 41.2971 205.406 41.8284 205.45 42.6131C205.485 43.2488 205.192 43.8247 204.575 44.3444C203.955 44.8665 203.225 45.1248 202.379 45.1156C201.359 45.1116 200.581 44.8087 200.044 44.2133C199.514 43.6242 199.247 43.0176 199.247 42.3975H201.083C201.083 42.6773 201.189 42.9507 201.405 43.2129C201.617 43.4756 201.933 43.6043 202.348 43.6043C202.755 43.6043 203.064 43.4819 203.276 43.2285C203.486 42.9774 203.583 42.7821 203.57 42.6466C203.55 42.3863 203.466 42.1707 203.318 41.9993C203.172 41.8284 202.927 41.6685 202.583 41.5239C201.916 41.2401 201.243 40.9703 200.566 40.7148C199.848 40.4414 199.488 39.8635 199.488 38.9767C199.488 38.3474 199.773 37.7851 200.343 37.3008C200.915 36.8118 201.591 36.5715 202.371 36.5715C203.219 36.5715 203.906 36.8206 204.422 37.3208C204.942 37.8229 205.222 38.3697 205.264 38.9676H203.389C203.389 38.75 203.285 38.5523 203.077 38.3697C202.881 38.1887 202.623 38.0902 202.357 38.0944ZM217.307 36.7915V38.3251H213.437V39.9432H217.198V41.4346H213.436V43.3859H217.415V44.9064H211.625V36.7919M225.424 36.7823V42.37C225.424 42.6171 225.531 42.8925 225.745 43.197C225.959 43.5015 226.314 43.6553 226.81 43.6553C227.286 43.6553 227.64 43.5015 227.87 43.197C228.097 42.8925 228.212 42.6171 228.212 42.3704V36.7827H230.057V42.0902C230.057 42.7817 229.774 43.4572 229.204 44.1196C228.634 44.782 227.837 45.1132 226.81 45.1132C225.793 45.1132 225 44.7776 224.433 44.1128C223.865 43.4505 223.58 42.7725 223.58 42.0902V36.7823M238.43 36.7915L240.599 42.7817L242.764 36.7915H245.059V44.9064H243.299V39.7053L241.445 44.9064H239.751L237.895 39.7942V44.9064H236.137V36.7919" fill="black"/>
<path d="M46.1284 42.8527H88.7203V-0.000976562H46.1284V42.8527ZM80.9359 35.0244H53.9132V7.82933H80.9359" fill="#0338A0"/>
<path d="M0 49.9986H42.5852V7.13818H0V49.9986ZM32.3775 39.7141H10.2232V17.4291H32.3775" fill="#B79427"/>
</g>
<defs>
<clipPath id="clip0_253_288">
<rect width="250" height="50" fill="white"/>
</clipPath>
</defs>
</svg>
