<?xml version="1.0" encoding="UTF-8"?>
<svg id="Layer_1" data-name="Layer 1" xmlns="http://www.w3.org/2000/svg" version="1.1" viewBox="0 0 754.7 150">
  <defs>
    <style>
      .cls-1 {
        fill: #000;
      }

      .cls-1, .cls-2, .cls-3 {
        stroke-width: 0px;
      }

      .cls-2 {
        fill: #0338a0;
      }

      .cls-3 {
        fill: #b79427;
      }
    </style>
  </defs>
  <path class="cls-1" d="M363.8,51.8v-1c0,0,0-1,0-1v-1s-.1-.7-.1-.7v-1.3c0,0,0-1.5,0-1.5v-.7c0-1.2-.3-2.3-.4-3.5v-1.2c-.2-.8-.4-1.5-.6-2.2-.2-.6-.4-1.2-.6-1.8l-.3-1.6-.3-1.1-.2-.8v-.5c0,0-1.1-.6-1.1-.6l-.4-.5-.7-1.2-1.1.6-.4.4h-.4s-.5.3-.5.3c-.9.1-.2-.6-.6-1h-.6c0-.1-.3-.2-.3-.2l-2.2,1.2-.6.5-.9.7-.8,1.1c-.3.5-.5.8-.5,1.5l.2,1.5v.6c0,0,.3,1.2.3,1.2l-.6.6h-1.1c-1.3.3-2.6.3-3.9.4h-.4s-1.3,0-1.3,0h-1.8c-.7.1-1.4.1-2.1.2h-1.1c-.9.1-1.8.1-2.8.1h-.6s-.5,0-.5,0h-.5c-.6,0-1.3,0-1.9,0-1.4,0-2.6,0-3.9,0-1.2.1-2.3.4-3.5.5-.8,0-1.6,0-2.4,0-1,0-1.9.3-2.8.4h-.8c-.7,0-1.4.2-2.1.2h-1.2l-1.5.2h-1c-.9,0-1.9.3-2.9.2l-.4-.5-1.7-.3v-.6l.7-.8.7-1.5v-.7c-.1,0-.2-.6-.2-.6l-.3-.6-.3-.8c-.3-.8-.4-1.8-.9-2.5l-.7-.5-.7-.9-.5-.2-.6-.2-1.6-.2-.6-.4h-1.2c0-.1.6.5.6.5l-2,.3-1.2.4-.8-.2-.5.4-.3.7-.7,1.8c-.3.6-.8,1.2-1,1.8l-.4,1.4-.2.7v.6s-.2,1.6-.2,1.6c0,.9,0,1.8.2,2.6v.8s0,1.1,0,1.1c0,.8-.1,1.6,0,2.4l.2.7v.6s.3,1.5.3,1.5c0,1,0,2,0,3.1v.8c0,0,0,.7,0,.7l.3.9.2,1.1.2.4.3,1.7.4,1.6c.2.6.4,1.4.3,2v.2s0,0,0,0l.9-.2,1.5.8-.2.8,1,.4v.9c0,0-.2.3-.2.3h0c0,0,.7.6.7.6l.3.5.8.4c1.7.5,3.8.5,5.5,0l1.7-.7v-.2c.1,0,.5-.2.5-.2l1.2-.2.7-.4c.7,0,1.3.1,1.9,0l.5-.2h.9c0,0,.5,0,.5,0h.6c0,0,.3-.3.3-.3h.6c0,.1.6.1.6.1h.8c0,.1.7,0,.7,0l.4.2h.9s.7-.3.7-.3h.9c0,0,.6,0,.6,0h.7c0,0,.8,0,.8,0h.5c0,0,.5,0,.5,0l1.6.3,1.1-.3h.6s.6,0,.6,0l1.3.4.7-.4.6.2h.6c0,0,.4.2.4.2l.9.2c.9,0,1.8,0,2.7,0h1.4c2.4,0,4.7,0,7.1,0h1.7c0,.1,1.6,0,1.6,0,.6,0,1.2.2,1.9.2h.6c.9,0,1.8.1,2.7,0h.7c3.9-.4,7.1.1,9.1-3.5.5-1,.4-2.6.2-3.7l-.3-.8v-.4c0,0,0-.9,0-.9v-.7c0,0,.3-.6.3-.6v-.8c.1,0,.3-.9.3-.9l-.2-.7M351.3,52.9v.5c-.1,0-.3,1.7-.3,1.7l-.6.2c-.6.1-1.3,0-1.9,0h-1.3s-.8-.1-.8-.1h-.7c0,0-.9,0-.9,0-1,0-2,0-3.1.1h-.9c0,.1-1.4,0-1.4,0h-1.7s-.6,0-.6,0c-1,0-1.9,0-2.9,0h-1.1s-1.6,0-1.6,0h-.6c0,.1-1.1.1-1.1.1l-1.3.2h-1.4c0-.1-.7,0-.7,0h-.9c0,0-.5,0-.5,0h-.8c0,.1-1.4.2-1.4.2-.6,0-1.2.3-1.9.3h-.6c-.6,0-1.2,0-1.8,0l-1.5.3h-.9s-.6,0-.6,0h-.8c-1.1,0-2.2,0-3.3,0l-.7.2-1.6-.2h-.5c0-.1-.5-1.2-.5-1.2-.1-.7-.3-2.7,0-3.3.5-.9,2.3-1.1,3.3-1.2.6,0,1.3-.2,1.9-.2h1.5c0,0,.5-.2.5-.2h1s1-.2,1-.2h1c.6,0,1.2-.1,1.8-.2.6,0,1.2-.2,1.9-.3h.7s.7,0,.7,0h.5s1.2-.2,1.2-.2h.8s1.1,0,1.1,0h.9s.7-.1.7-.1c.7,0,1.3-.2,2-.2h1.1c1.5,0,3.1,0,4.6-.1,1,0,2.1,0,3.1,0h1.3c.6,0,1.3,0,2,0h.7c0,.1,1.6.2,1.6.2h.9c.6.1,1.2.1,1.8.2.7,0,1.7.4,2.3.7l1.1,1.4.2,1.6M345.4,69.1l.2.4h.4s.2,0,.2,0h.5c0,0,.8.2.8.2.6,0,1.4-.7,2-.3l.4,1c.7,0,.8-.9,1-.9l.3.9,1-.2h1.3s.8,0,.8,0h1.4c0-.1,1.4-.6,1.4-.6l.7-.2.7-.2,1.3.5c.6,0,1.1-.2,1.8-.2l1.3.5,1.1.4,1.1.2.8.8,1,.8.3.6.3.3.2.5.2.4.2.8.3,1.5c0,.6-.2,1.1-.3,1.6l-.5,1.7c-.5,1-2,2.2-3.1,2.3l-1.6-.2h-1c0-.1-1-.4-1-.4l-1.5-.4c-1.3-.4-2.4-1-3.8-1.2-.9-.1-1.8,0-2.7,0l-.8-.2c-.6,0-1.3-.1-1.9-.2-.8,0-1.6,0-2.4,0-.8,0-1.5-.2-2.2-.2h-1.6c-.6-.1-1.2-.4-1.8-.5-.6,0-1.3,0-1.9,0l-1-.2h-1c-.7,0-1.6-.2-2.3,0l-1.1,1.6v.6c-.1,0-.8,1.4-.8,1.4-.1.6-.1,1.3-.1,2,0,1.3,0,2.7.1,4.1,0,.6.5,1.2.7,1.8.3.6.4,1.2.5,1.8l.2.6v1.3c0,0-.1,1.3-.1,1.3l-.3.5-.3.5-.3.2-.2-.3-1.1-.8-.3,1-.4.3h-.5s-.6,0-.6,0h-.8c-.6,0-.9.6-1.4.9h-.8s-.4-.1-.4-.1h-.3c0,.1-.8.2-.8.2-.7,0-1-.9-1.3-1.4v-.2c0,0-.3-.3-.3-.3l-.2-1.6v-.8c0-1.1-.3-2-.4-3.1v-1.1c-.1,0-.1-.5-.1-.5v-.5s0-.5,0-.5v-1.6c0-1.2,0-2.4,0-3.6v-1.6c0,0-1.1-1.4-1.1-1.4-.6-.3-1.8,0-2.5,0h-1.1s-1.6.2-1.6.2h-.6s-1.2,0-1.2,0c-.7,0-1.3,0-2,0h-.7c0,.1-1,0-1,0h-.6c0,0-1.2-.1-1.2-.1l-.2.2h-.5c0,.1-1.1.2-1.1.2-.7,0-1.5.3-2.2.4l-1.7.2c-1.2.2-2.4.7-3.6.9-.7.1-1.4.3-2.1.5l-1.5.2-1.2-.3-.3-.2h-.7s0-.2,0-.2l-.2-.2.3-1-1.4.2-.3-.2-.4-.2-.2-1.2-.3-.2-.5-.7c-.1-.7.5-1.1.6-1.6v-1s.5-.9.5-.9l.5-.3.3-.4.4-.3,1.3-1.4.5-.3.3-.4.3-.3v.3c0,0-.3.4-.3.4v.4c-.1,0-.5.3-.5.3l-.5.7v.2h.4s1-.5,1-.5h.3c0,.1,1.1,0,1.1,0l.7-.3.8-.8-.2,1.5h.7s1.1.2,1.1.2l1.6-.2h.5c0,.1,1.6.1,1.6.1h.5c0,0,.7-.1.7-.1h.4s1.8-.2,1.8-.2c1.3-.1,2.6-.2,3.9-.4l.6-.3c.6,0,1.2,0,1.8,0l.9-.2h.6s.4-.1.4-.1h1.7c.6-.2,1.2-.2,1.9-.3l.7-.2.4-.3h.5c0,0,.4-.7.4-.7l.5.4h.7s1.5-.2,1.5-.2l.4-.4.8.3c.6,0,1.3-.2,1.9-.2l1.4.3c.7.2,1.6.2,2.5.2l1.2-.2h.9s1.5-.3,1.5-.3h1c0-.1.5-.1.5-.1.7-.1,1.4-.3,2.1-.3h.8s.9-.1.9-.1h.8s1-.2,1-.2c.7-.1,1.5,0,1.9-.6M547.3,32.5h.8s.7.6.7.6l.7.5.5.2.2.3h-.3s0,1,0,1l.4.4.7.9c.6.9,1,2,1.4,3,.4,1.3.3,2.9,1,4.2l1,.5.8-.3.8.2c1.7.3,3.3.7,4.9,1.4l1.4.8.2.3.4.5-.3,1v.3c0,0-.3.7-.3.7l-1.1.2-.2.6h-.4c0,0,0,.5,0,.5h-.4c0,.1-.1.3-.1.3l.7,1.3-.3.6v.5c.1,0-.7.8-.7.8h-2s-1.5-.1-1.5-.1h-.6c-1.1-.2-2.2,0-2.8.9l-.5,1.2c-.4,1.4-.5,3-.6,4.5v1c-.2,1.3-1.1,3.2-2.6,3.4l-2.1-.7-.5-.5-.5.2h-.3c0-.1-.8-.3-.8-.3l-.6.2h-.4s-.4,0-.4,0l-.9-.6-.3-.5-.4-.3c-.4-.5-.2-1-.2-1.6l-.2-.8v-.5c.1,0,.1-.5.1-.5l.2-1.4v-.6s.3-.8.3-.8l-.2-.5.2-.7v-.5s.2-.7.2-.7v-.9c0,0,.1-1.4.1-1.4l-.2-.9v-.7c0,0-.1-.3-.1-.3l-.2-1.2v-1.5s0-.4,0-.4v-.4c.1-.7,0-1.3,0-2,0-1.3-.4-2.5-.6-3.6v-.5c0,0-.1-1-.1-1v-.4c0,0,0-.5,0-.5v-.8c0,0,0-.5,0-.5l-.2-1.6c.3-.7.6-.7,1.3-.9h.9c0,0,.8.2.8.2l1.2-.5v.3c.1,0,.7,0,.7,0l.7-.6v-.3s.4-.4.4-.4M521.2,40.7h0M531.6,42.9v-1.2c-.1,0-.1-.5-.1-.5l-.2-.6-.3-1.6v-.9c0,0-.4-1.1-.4-1.1l-.2-.8-1.1-1.3v-.3c-.1,0-1.6-.9-1.6-.9h-.4s-.4-.2-.4-.2l-1.4.2h-.9s-.4-.3-.4-.3h-.7l-.7.6-.9.5-.3.6-.7,1,1.1,1.5.3.7.4,1.8h-1.5s-.9,0-.9,0h-1c0-.1-.2-.1-.2-.1v.2s1.7.7,1.7.7h-.6s-.6.2-.6.2h-.8s-1.5,0-1.5,0c-.8,0-1.6,0-2.4,0h-.4c-.7,0-1.9,0-2.5-.3-.4-.2.6-.6,0-.6h-.6s-1-.1-1-.1h-.8s-.7,0-.7,0h-1c0,0-1.5,0-1.5,0h-.8c0,0-.7,0-.7,0h-.5c0,0-1.7-.1-1.7-.1h-.4c-.8,0-1.5,0-2.3,0h-1.6c0,0-.7,0-.7,0h-.3c0-.1-.4-.2-.4-.2l-.4-.8v-.6s-.2-.7-.2-.7v-.9c0,0-.5-.9-.5-.9l-.3-.6-1.3-1-.4-.4-.6-.3-.7-.3-.5-.5-1-.2h-.5s-1.6.8-1.6.8l-.7,1-1.1,1.1-.7.5-.8,1.4-.6,1v.9c-.1,0-.4,1.2-.4,1.2,0,.9,0,1.8.2,2.7l.2.8v.7s0,.8,0,.8v1.2c-.1,0-.1,1.7-.1,1.7v.4c0,0,0,.7,0,.7v.9c-.1,0,0,1.4,0,1.4l-.2,1c0,.7.1,1.4.1,2.1l-.2.7v1.1s-.1.5-.1.5l.2.5v.4s.7,1.9.7,1.9c.4.6.9,1,1.5,1.4l.8.6,1.1.4.7.2h.9c0,0,1.1,0,1.1,0,.8,0,1.8.2,2.6,0h2.3c.9,0,1.9-.2,2.8-.2h.8c.7,0,1.4-.3,2.1-.3,1.1,0,2.1-.1,3.1-.1h.6c0,0,.5,0,.5,0h.6c0,0,.6,0,.6,0h1.4c0,0,1.1,0,1.1,0,.9,0,1.8,0,2.7-.1h.8s.3.2.3.2h.4s.8.1.8.1h1.5c0,0,.8,0,.8,0h.4c0,0,1.4,0,1.4,0h.4c0,0,1.2,0,1.2,0h1.4s.5.1.5.1h.7s.9.2.9.2h.8c0,.1.7.3.7.3h.8c0,.1.8,0,.8,0,.7,0,1.9.1,2.3-.4h0c0-.1-1.2-1-1.2-1l.9-1.1h.7c0-.1.3-.5.3-.5l.7-1.3.3-1v-.6c0,0,.2-.9.2-.9v-1.3c0,0,0-.7,0-.7v-1.8c.1,0,.2-.7.2-.7v-1.4s0-.3,0-.3l.2-.6c0-1.4,0-3,0-4.4s0-1.3,0-2M523,50.7l-.2.4v.4s-.2.2-.2.2l-.2.4-.2.4h-1.6c-1.5-.2-3.1-.2-4.6-.2-.7,0-1.4,0-2.1,0-2.7,0-5.3,0-8.1.1-1.1,0-2.4.2-3.5,0-.7,0-1.4,0-2.1,0h-.8c0-.1-.5,0-.5,0h-.5c0,.1-.3,0-.3,0-.6-.2-1.2-.3-1.3-.9l.2-.8.5-.2,1.4-.5.4-.2h.9c0-.1.4-.3.4-.3h.5s1.4-.4,1.4-.4h1c0-.1.5-.1.5-.1l1.3-.3h.3s.5,0,.5,0c.7,0,1.3,0,1.9,0l1.2-.2c.9,0,1.9,0,2.9,0h.7c0,.1,1.2,0,1.2,0h.7c.8,0,1.6,0,2.4-.1l1.3.2h2.1c0,.1.5,0,.5,0l1.7.9.4,1.4M545.5,67.2l.7.3h.6c0,0,1.4.3,1.4.3h1.1c0,0,1,.8,1,.8h.6c0,0,.4.9.4.9l.5.5.3.2.6,1.4.4.8.2.8.2.6v.6c.3.7.5,1.4.6,2.1.1.8-.1,1.6,0,2.4l.2,1.8v1c0,0,0,1.3,0,1.3v.7c-.1,0-.1,1.3-.1,1.3v1.5c-.1,1.1-.4,2.2-.6,3.3v1.3c0,0-.2.6-.2.6v.9c0,0-.3.8-.3.8v.4c0,0-1.4,1.1-1.4,1.1l-1-.4h-.9s-.3.3-.3.3l-.2-.4-.5-1.2-.2-.2-.5.5h-.3s-.2.1-.2.1l-.4-.4h-.2c0-.1-.8.9-.8.9l-.5-.4h-.6c0,0-.7-.9-.7-.9l-.5-.2-1.2-1.9c-.1-.6,0-1.6,0-2.2v-1.4c.1,0,1-1.7,1-1.7l.2-.4v-1c.2-.8,0-1.2,0-1.9v-.8c0,0-.4-.6-.4-.6l-.7-1.3-.5-.7-.5-.8-.6-.4v-.3s-.7-.5-.7-.5h-.6c0,0-.9-.3-.9-.3h-.9c0,0-.5,0-.5,0h-.6s-.4-.2-.4-.2c-.7,0-1.5,0-2.2,0h-1c0,0-.7,0-.7,0h-.5c0,0-.4,0-.4,0h-.5s.1.1.1.1l.6.2h0c0,.1-.8.2-.8.2h-.4c0,.1-1,.3-1,.3h-.5s-1.1,0-1.1,0h-.6c0-.1-.9,0-.9,0h-1.2c0,0-.4,0-.4,0h-.8s-.5-.2-.5-.2h-.9s-.8,0-.8,0c-.6,0-.4.7-1.3.7h-.2s.6-.6.6-.6h-.1c0,0-1,.1-1,.1h-.8c0-.1-.4,0-.4,0h-.7s-.6.6-.6.6c-.8,0-1.6,0-2.4,0l-1.6.3-1.2.2-1.6.3h-.7c-.8,0-1.5,0-2.3,0h-1.6c0,0-.6,0-.6,0h-1.5c-1.2,0-2.4,0-3.6,0h-1.3s-.7.2-.7.2h-1.3l-.8.3h-.6s-1.5.4-1.5.4l-.7.2c-.7.1-1.4.2-2.1.3h-1.2s-1,.2-1,.2h-.8s-.7,0-.7,0l-1-.3-.5-.2c-.8-.4-1.8-1.3-2.2-2.1l-.2-.8-.2-.8v-1.3s0-.9,0-.9l.9-1.5.2-.6.4-.7.2-.5v-.3s.3-.3.3-.3l.2-.3,1-.4.9.2h.6c0,0,1.2-.1,1.2-.1h1.2c1-.1,1.9,0,2.9,0h1.4c0,0,.8,0,.8,0h1.1c0-.1,1.5,0,1.5,0h.8c0,0,.8,0,.8,0h.8c0,.1,1.3.1,1.3.1h.6c0,0,.5,0,.5,0h.5s1.4-.1,1.4-.1h1c0,0,.5-.2.5-.2v-.2c.1,0,1.3-.2,1.3-.2h.4c0,.1,1.1.3,1.1.3l1.6-.2h1s.5,0,.5,0h.9c0,.1.9,0,.9,0h1.1s1.5.1,1.5.1c.7,0,1.5,0,2.1-.1h1.3c.6,0,1.3,0,1.8,0,.7,0,1.5.1,2.2.1h.7c0-.1,1.4,0,1.4,0h1.3s.4.1.4.1c.8,0,1.7,0,2.5,0l.7.2h1.1c.6,0,1.3.1,1.9.2h1.2s.6.1.6.1c.7,0,1.3,0,1.9.1h.7c0,0,1.7,0,1.7,0h.5c0,0,.7,0,.7,0h.5s.5-.4.5-.4h.7s-.1-.5-.1-.5v-.3s.2.1.2.1h.5c0,0,1.1.4,1.1.4l.2-.2.3-.4"/>
  <path class="cls-1" d="M537.3,74.3l-.3.4h1.2M538.7,74.5l.4.2M516.9,76.5l.8.2M515.2,76.6l-.5.3.5-.3ZM516.1,76.6h.1M652.4,44.6v-.5c.2-.8.5-1.5.5-2.4,0-.9-.6-1.6-.8-2.4v-.8c-.1,0-.3-.2-.3-.2l.3-.7v-1.3c-.1,0-.4-.7-.4-.7l-.2-.5-.4-.4c-1-1.2-2.2-2.1-3.6-2.5h-.7c0,0-.4-.2-.4-.2h-1.3c0-.1-.9-.4-.9-.4l-.9.2-.4.2-1-.2h-.6c0,0-1.3,0-1.3,0h-.7c0,.1-1,0-1,0h-.5s-.7,0-.7,0l-.7.7h-1s-1.2.1-1.2.1h-1c0,0-.6,0-.6,0h-.8s-.3-.1-.3-.1h-.4c0,0-.8.1-.8.1-.6,0-1.2,0-1.8,0h-.8c0,0-1.5,0-1.5,0h-.6c-.6.2-1.3.3-1.9.3-.9,0-1.7-.1-2.5,0l-1.1.2h-1.2s-.8.1-.8.1h-1.7s-.4-.1-.4-.1h-1.8c-.7,0-1.4.1-2,.1h-1.5s-.6.1-.6.1h-1.4c0,0-.7,0-.7,0h-1.5c-.6,0-1.4,0-2,0h-.7c0-.1-.5-.1-.5-.1h-.9c0,0-.7-.1-.7-.1h-.4c0,0-1.3,0-1.3,0h-.8c0,0-1.5.1-1.5.1-.6,0-1.2-.1-1.8,0h-.7c-.8.2-1.6.2-2.4.4l-.7.2h-1.1c0,0-.6.2-.6.2l-.5.2-.5.4-1.7.7-.5.6v.3c-.1,0-.6.7-.6.7l-.2.8-.7,1.3-.3.4v.5c0,0-.3.4-.3.4v.5s-.1.6-.1.6c0,.7.1,1.4.2,2.1l.2.7.2,1.5v.6c.2.8,0,1.7,0,2.5l.2,1.3.2,1.1c.3.8.8,1.5,1.5,1.9l.7.3.8.5,1.9.3h.5c0,0,1,0,1,0l.5-.2h.5c0,0,1-.4,1-.4h.5c0,0,1.3-.5,1.3-.5h1c0-.1,1.7-.6,1.7-.6h.7s.4-.1.4-.1h1.4c0-.1,1.7-.5,1.7-.5h.7s.6-.2.6-.2h.4s1,0,1,0c.6,0,1.3,0,1.9,0h.6s.6,0,.6,0h1.1c0,0,.8,0,.8,0,.9,0,1.7-.4,2.6-.4h1.5c.8,0,1.7,0,2.5,0h1.8c.9,0,1.7-.1,2.7-.2,1.3,0,2.6,0,4-.1h.7c0-.1,1.2-.2,1.2-.2h.5c.7-.1,1.3-.1,2,0h1.1c0,.1.7,0,.7,0h1.1c0,0,.7-.1.7-.1l1.6-.2h.5c.7,0,1.4,0,2.1.1h1c.6,0,1.3,0,1.9,0h1.3c0,.1.6,0,.6,0h.7c0,.1.7.2.7.2l.4.2h.6c0,0,.8,0,.8,0h.4c0,0,1.2,0,1.2,0h.4c0,.1,1.1,0,1.1,0l.4-.2h.6c0,0-.1-.3-.1-.3v-.2c-.1,0,.3-.3.3-.3v-.4c0,0,.2-.6.2-.6l.3-1.1.8-.5.4-.3.7-.5-.3-.9v-1.2M641.5,42.6h-.2c0,0,.2.3.2.3h-.3c0,.1-.1.3-.1.3h-.7c0,0-.7,0-.7,0h-1.2c-.8,0-1.6,0-2.3,0-1.4,0-2.8,0-4.2,0l-1.6.2h-1c-.9,0-1.8.2-2.7.2h-1.1s-1.8,0-1.8,0h-.7s-.6,0-.6,0h-.4c0,0-.9,0-.9,0h-.9c0,0-1.2.1-1.2.1h-.7s-.4,0-.4,0h-.4c0,0-.9,0-.9,0-.6,0-1.4,0-2,0h-1s-.4,0-.4,0h-.7c-.9-.1-1.8,0-2.7,0h-1.3c0,0-.6.2-.6.2h-1.1s-.6,0-.6,0h-.7c0,0-1.6,0-1.6,0h-.4c0,0-.7,0-.7,0l-.2-.4h-1s.5.4.5.4h0s0,0,0,0h-.8c0,0-.5,0-.5,0l-.3-.2-.6.2h-.7c0,.1-.3,0-.3,0l-.9-.2h-.5c0,0-1-.1-1-.1l-.3-.3.7-.6.5-.2c1-.5,2.1-.7,3.3-.8l.7-.2h.7s.8-.2.8-.2h.3c0,0,.6,0,.6,0h1c0,0,1.1-.1,1.1-.1,1.9,0,3.8,0,5.6-.2,2.2-.1,4.2-.1,6.4-.1h1.5s.4-.1.4-.1h.7c0,0,.7,0,.7,0h1.6c0,0,.6,0,.6,0h.5c0,0,.7,0,.7,0h1s.3.1.3.1h.4c0,0,.3,0,.3,0h.7c1.2-.1,2.4,0,3.5-.1l.6-.2h.3c0,0,1.5,0,1.5,0l.3-.2.7-.3.5.5h.3s1,0,1,0h.4c0-.1.5,0,.5,0h.4c0-.1.5,0,.5,0h.5c0,0,.6.1.6.1h.8c0,0,1.1.4,1.1.4h.9c0,.1.8.7.8.7.3.7-.2.7-.7.7M642,42.7h.2M636.7,69.5h-.9c0,0-1.5.1-1.5.1h-.5s-.6,0-.6,0l-.5.2.7.2c1.9,0,3.8.2,5.7.2.9,0,1.8.1,2.8.1h.6s.2,0,.2,0v-.2c0,0,0-.2,0-.2h-1.8c0-.1-.9-.3-.9-.3h-3.3M636.4,71.6l1.2.3-1.2-.3ZM638.2,71.8v.3c.1,0,2,.3,2,.3l.6.2h.6c0-.1.2,0,.2,0h1.6c0,0,.1,0,.1,0l-.5-.2-.4-.2c-.8-.1-1.6-.1-2.4-.2-.6,0-1.3-.1-2-.1M635.6,88.6l.2.2M643.3,89l-.2.3-1.1.4,3.2.3h.1M642.7,90h-1.5c0,.1-.1.2-.1.2h.3c.6.2,1,.2,1.6.3h.4c0,0,.9,0,.9,0h.6s.3,0,.3,0l-.2-.2h-1.2s-1.1-.3-1.1-.3M640.6,90.2h0"/>
  <path class="cls-1" d="M654.8,88.4v-1c0,0-.1-.6-.1-.6l-.4-1.5-2-1h-1.7s-.6,0-.6,0h-.8s-1.8,0-1.8,0h-.5c0,.1-1.1,0-1.1,0v.2c-.1,0-1.4.4-1.4.4h-.4c0,.1-.9-.1-.9-.1l-1.6-.2-.9-.2h-.4s-.4-.1-.4-.1h-1.1c0-.1-.5,0-.5,0l-1.1.2h-1.2s-.9,0-.9,0h-.7c0-.1-1.6-.2-1.6-.2h-1c-.6,0-1.6-.2-2.2-.1l-.7.5h-.5s-1.1.2-1.1.2h-1.2l-.5.2h-.5c0-.1-.9,0-.9,0h-.9c0,0-.5,0-.5,0h-.3c0,0-.8,0-.8,0l-.7.2h-.7s-.4.1-.4.1h-.4c0,0-.9,0-.9,0h-.5c0,0-.5,0-.5,0h-.8c0,0-.7,0-.7,0h-.3c0,0-.3,0-.3,0h-1s-.4.1-.4.1h-.4c0,0-1.2,0-1.2,0l-.8.2h-1s-.3.2-.3.2h-.5c0,0-.5.1-.5.1h-.8s-.5.2-.5.2h-.7c0,0-.5-.2-.5-.2l-1.4.2h-.8c0-.1-.9,0-.9,0h-1c0,0-1.1.1-1.1.1-.8,0-1.7-.1-2.5-.1s-1.6,0-2.4,0h-1.2c0,0-.3-.8-.3-.8l.3-1.3,1-.2c.6,0,1.3-.2,1.9-.3.7,0,1.3-.4,1.9-.5l1.6-.3.9-.2h1.2c0-.1.7-.3.7-.3h.9c0,0,1-.2,1-.2h.4c0,0,1.5-.2,1.5-.2,1.7-.2,3.6-.2,5.4-.2h.9c0-.1.7,0,.7,0,.7,0,1.4,0,2.2,0h.6c0,0,.8,0,.8,0h1.2s.8-.2.8-.2h1.1c2.5-.3,5.2-.1,7.8-.2h1.7c0-.1.7-.2.7-.2h1c.9.1,1.7,0,2.6,0h1.1c1.2.2,2.5.1,3.6.1h1.4c0,0,1,0,1,0l.5.2h.6s1.2.3,1.2.3c.6,0,1.2.1,1.8.2l.8.2h.4c0,.1.6.1.6.1l.9.2,1.2-.4.6-.2h0s.5-.9.5-.9l.7-.5.8-.8.7-1.5v-.7c.4-1,.5-2,.5-3.2v-1.1c.1,0,.1-.5.1-.5v-.4c0,0,0-.4,0-.4l.2-.7-.4-2.1c-.2-.7-.7-1.5-1.1-2.1l-1-1.4-1-.6-.9-.5c-1-.3-3.4-.6-4.3-.2l-.4.2-.5.6-1.1-.3-.4.3-.7.2h-.9s-.5,0-.5,0l-1.4-.2h-.7s-.7,0-.7,0h-.9c0,.1-.9,0-.9,0-.9,0-1.9,0-2.8,0h-1.5c-.6,0-1.2-.1-1.9-.1h-.6l-1.4-.4-1.5-.5v-.5c-.1,0,0-1.6,0-1.6h0s1.4-.2,1.4-.2h.5c0-.1.7,0,.7,0h.4c0-.1.5-.1.5-.1l.6-.2.6-.2h.4c0,0,.6,0,.6,0h1.1s.7,0,.7,0h.8c0,0,.5,0,.5,0,.8.1,1.7.3,2.6.3h1.3s1.1,0,1.1,0h.5c0,.1,1.2.3,1.2.3h1s1.7.2,1.7.2h.7s.7,0,.7,0c.6,0,1.3.3,1.9.3.6,0,1.2,0,1.8,0l1.4-.3,1.2-1.4-.7-1,.6-.2c.6-.2,1.3-.4,1.3-1l-.2-1v-.3c.1,0-.7-.7-.7-.7l-.2-.4-.5-.6-.5-.4-.4-.8c-.6-.4-1.4-.7-2.2-.8h-1.9s-1.6,0-1.6,0h-.4c0,.1-.8,0-.8,0h-1.5c0,0-1.4,0-1.4,0-2.6,0-5.2,0-7.8,0h-1.4c-1-.1-2.1,0-3.1,0h-.6c0,0-1,0-1,0h-.7c0-.1-.7,0-.7,0h-.9s-.8,0-.8,0h-1.7c-1.1,0-2.1.3-3.2.4-1.6.2-3.2.2-4.8.2s-4.2.2-6.2.2-2-.2-3-.1l-1.1.2h-.6c0,0-1.7.3-1.7.3-1.6.1-3.1.2-4.7.3h-1.4s-1.1.1-1.1.1h-1s-.6.1-.6.1h-1.7c-1.6.2-3.3.5-4.7,1.1l-1.1.8-1.8,1.5v1.2c0,1.5.6,2.5,1.9,3.4l.5.4c.6.2,1.3.3,2,.4h1.1c0,0,.7,0,.7,0l1-.3h1.4c0-.1.5-.2.5-.2l1.2-.2.6-.2h1.1s.5-.2.5-.2h.6c0,0,1.3-.1,1.3-.1h1c0,0,.4-.2.4-.2h.4c.6,0,1.3-.3,1.9-.3,1,0,1.9-.1,2.9-.1h1.1c0,0,.9,0,.9,0h.6c0,.1,1.2,0,1.2,0h1s.4-.2.4-.2h.4s1.3-.1,1.3-.1h.5c0,.1.9.2.9.2.8,0,1.5,0,2.1.1l.6.3.3.3.8.9c-.4,1.3-2.1,1.2-3.3,1.4-.6,0-1.3.2-1.9.3h-.5s-1.4.1-1.4.1l-1.6.2h-.5s-1.5.2-1.5.2c-.8,0-1.5,0-2.3.1h-.4c-1.1.1-2.2.2-3.2.2h-.9s-.8.1-.8.1h-.7s-.8.1-.8.1h-.5c0,0-1.6,0-1.6,0h-1.2c-.6,0-1.2.2-1.8.3-.8.1-1.6.1-2.4.3l-.7.2h-.6c0,.1-.3.3-.3.3-.8.2-1.5.4-2.2.9l-.3.3-.7.5v.6c0,0,.2.5.2.5l-.5.5-.4,1.1.3,1.2c.5,1,.7,1.4,1.8,1.8l.7.3h.4s.3.2.3.2l1.6.2.6.2,1,.3.3.3h-.2c0,.1-.8.2-.8.2l-1.6.6-1.5.2-.7.6-1.1.9-.7,1.1c-.4.7-1,1.5-1.1,2.3-.1.7,0,1.4.2,2.1l.2.7v.4c0,0,0,.6,0,.6,0,.7-.1,1.3-.3,2l-.2.5-.2,1.1v.7c-.1,0,0,1,0,1l.3.4.2.7.5.8v.5c.1,0,.8,1,.8,1l1.2.5.7.4c.9.3,1.9.6,2.9.5l1.4-.2h.6c0,0,1.4,0,1.4,0h1.1c0,0,.6-.2.6-.2l1.5-.2,1.7-.3h.8c0,0,.9-.4.9-.4.7-.2,1.5-.2,2.2-.3l1.3-.2c.7,0,1.3-.2,2-.2h1.5s1.7-.2,1.7-.2h.6c0,0,.7,0,.7,0h.9c0-.1.8-.1.8-.1,1.3-.1,2.7-.3,4-.5,1.5-.1,2.9,0,4.3-.2l.2-.4.7-.2h.2c0,0,.3,0,.3,0l.5.3h.3c0-.1.3,0,.3,0h.8s.3-.3.3-.3h.4s1,0,1,0l.5.3h1.2c0,0,1.3.2,1.3.2h.7c0,0,1.2-.3,1.2-.3v-.5s.7.4.7.4h1.6s.3-.4.3-.4h.8c0,0,.6-.2.6-.2h.3c0,0,1.2.3,1.2.3v.3c.1,0,1.2.3,1.2.3.6,0,1.8.2,2.3-.1v-.3c-.1,0,.3-.2.3-.2.6,0,1.2,0,1.8,0h.5c0-.1,1.4-.2,1.4-.2l.5.4h.7c0,0,.6,0,.6,0l.5.2-.6.3h.1c0,0,1.8.3,1.8.3l1.6.4.8.2h1.2c0,.1,1.1.1,1.1.1l.8-.8.8-.2v-.9c.1,0-.1-.3-.1-.3l-.2-.9c.5-.8.6-.8,1.5-.9l.3-.2-.5-1.1M632.4,71.5h1c.8,0,1.6,0,2.3.1h.3c0,.1-.1.2-.1.2h-.3s-.3,0-.3,0h-.8c0,0-2.2-.2-2.2-.2v-.2M594.5,75.7l.5-.3,1.6-.5c.6-.2,1.3-.5,2-.7l1.4-.2.5-.2h.9c0,0,1.1-.3,1.1-.3h1.1c.7,0,1.4-.2,2.1-.2l1.7-.2c1.1,0,2.2,0,3.2,0h.7c0-.1,1,0,1,0,.8,0,1.5-.2,2.3-.1,1.3,0,2.5,0,3.8,0l1.5-.2h.9s1.2-.1,1.2-.1h2.1c0-.1,1.7,0,1.7,0h1.8s1.6.3,1.6.3c1.2,0,2.2-.3,3.4-.3,2.1,0,4.1,0,6.1.3h1.3c.7,0,1.4.1,2.1.2h1.1c0,.1.1.3.1.3h0s-1.4.4-1.4.4h-.8c0-.1-1.6,0-1.6,0h-.5c0-.1-.6-.1-.6-.1h-.4c-1.4-.1-2.9,0-4.3,0h-1.1c-.6,0-1.3,0-1.9-.1h-1c0,.1-1,0-1,0h-.8c-1,0-1.8.2-2.8.3h-.5c0,0-.6,0-.6,0h-.8s-.4-.1-.4-.1c-.7,0-1.5,0-2.2,0h-.8c0,0-.7,0-.7,0h-.5s-.5,0-.5,0h-1s-1.2.2-1.2.2h-.6s-.4.1-.4.1h-1.1c-.7.2-1.3.2-2,.2h-1.3c0,.1-.6.1-.6.1h-.6c0,.1-.5,0-.5,0h-.9c0,.1-1,.2-1,.2l-1,.2h-.9s-1.1,0-1.1,0h-.9c0,.1-1.2.1-1.2.1-.8,0-1.6.2-2.3.2h-.7c-.6,0-1.4,0-2,0-.7.1-1.5.2-2.1.3h-.3M621.2,90.7l-.3-.2.3.2M621.4,89.3h-.9c0-.1-.6,0-.6,0h-.3c0,0,.7-.3.7-.3h1c0,0,.3,0,.3,0h0c0,0-.3.2-.3.2M622,89.4l.5-.2.6-.2.2.3h-1.3M624.7,90.6h-1c0,.1-.2,0-.2,0l-.3.3h-1c0-.1-.1-.2-.1-.2h0c0,0,1.8-.2,1.8-.2l.3.2h.3s0,.1,0,.1M623.9,89.3c0-.6.9-.1,1.1-.4l-1.1.4M625.9,90.5h-.4s.2-.1.2-.1h.3M625.3,89.3h0s.8-.2.8-.2l.4-.2c1.1.5-1,.4-1.1.4M627.1,89.2h.2c0,0-.2,0-.2,0M634.6,90.2h-1.8s-.1-.2-.1-.2h1.2s.5,0,.5,0h.1c0,.1,0,.1,0,.1M637.3,89.5c-.9-.1-5,.6-5.2-.1h.1c0,0,.8-.1.8-.1h.6c.7-.2,2.2,0,2.7-.3l.4.2h.4s.7,0,.7,0h.2c0,0-.6.2-.6.2"/>
  <path class="cls-1" d="M643.6,91.2v.2c-.1,0,.4,0,.4,0M448.4,33.4h1.2c0,0,2.2,1.7,2.2,1.7l.6.9.2.3.6,1.5.5,1.2v.7s.2.6.2.6c0,.6,0,2.8.5,3.2h1.8c.7,0,1.4,0,2,0h.8c0-.1.4,0,.4,0h.4c0,0,.7.1.7.1,1.5.3,2.7.5,3.7,1.6l.5.5.2.8.2,1.7-.5.5v.9c0,0-.5.8-.5.8l-.2.5h0s-.5.4-.5.4h-.7s-.8,0-.8,0h-.3c0,.1-.3,0-.3,0v.4s-.8.3-.8.3l-.8.5-1.5-.3-1.2.2h-.4c0,0-.9.3-.9.3l-.7,1.6v.9s-.1.6-.1.6v.3s0,1.4,0,1.4v1.7c-.1,1,0,2.2-.3,3.1l-.9,1.3-.6.2-.2.6h-.4c0,.1-.1.4-.1.4h0s-.2.2-.2.2l-1.2-1.2-.8.8-.2.3-.3-.2-1.6-.3-.4.7-1.1-.9-.8-.3-.2.3h0s-.1-.5-.1-.5l-.2-.4-.2-.8-.3-.8v-.8c0,0-.2-.5-.2-.5v-.7s-.2-.8-.2-.8v-1.1s0-.5,0-.5l.2-.3v-.6c.1,0,.5-.2.5-.2l.2-.6v-1.3c0,0,.3-1,.3-1,0-.6,0-1.1,0-1.7v-1s0-.6,0-.6c0-.9,0-1.7,0-2.5v-.7c-.1,0-.2-1.2-.2-1.2l-.2-1v-.7l-.2-.8v-.7c-.1,0,0-.3,0-.3l-.2-.5v-.5c0,0,0-1.6,0-1.6l-.2-.3v-.4s-.4-.9-.4-.9v-.7c0,0-.3-.5-.3-.5v-.7c-.1,0-.1-.1-.1-.1l.4-.5v-.3c0,0,.7-.7.7-.7l.8.2.8.5,1.3-.8.5-.6.8-.3M409.3,34.2c.8.1,1.6.8,2.2,1.1l.6.2.7.5.4.2.4.3,1,.6.4.5.6.5.2.3.3.2,1.4,1.5c1.1,1.2,2,2.5,2.9,3.7l1.1,1.3,1,1.5,1,1.4.3.5v.3c0,0,.6.5.6.5l.2.3.5.6v.4c.1,0,.4.2.4.2v.3c0,0,.4.6.4.6l.3.4.4.6.5.6.2.4.3.3.6.9c1,1.5,1.4,3.3.7,5.1l-.4.3-.4.5v.5c-.1,0-.5.4-.5.4l-.7.3-.9-.8-.2-.3h0s-.2.3-.2.3l-1.1,1.2h-.1s-.5-.4-.5-.4l-.7.2-.4-.3-.4.4h-.5c0,.1-.3,0-.3,0l-.6-.5-.7.4-.7-.5-.4-1.3c-.2-.9-.5-1.7-.8-2.5-.4-1-.9-1.8-1.4-2.7l-.2-.6-.3-.3-.3-.6c-1-1.6-2-3.2-3.4-4.5l-.4-.5-.7-.6-.3-.5-1.2-.9-.9-.2h-.3s-.4-.2-.4-.2l-1.6.9h-.3c0,.1-.4.7-.4.7l-.7.4-.3.3-.7.9-.6.3-1.3,1.5-.4.2v.6c0,0-.8.4-.8.4h-.4c0,.1-.1.8-.1.8l-.2.3v.3c-.1,0-.5.4-.5.4l.2.4-.2.3v.2s-.2.2-.2.2v.3c-.1,0-.7.2-.7.2l.3.5-.4.5h-.3c0,0,.2.4.2.4v.3c-.1,0-.2.4-.2.4l-.4,1.1c-.2.8-.3,1.4-.5,2.1l-.4,1.2-1.1.7-.5-.2-.4.4-.6-.2-.5.3h-.1c0,0-.3-.3-.3-.3v-.3c-.1,0-.2,0-.2,0l-.5.6h0s-.7-.2-.7-.2l-.2-.3-.4.4h0s-.3-.4-.3-.4h-.5c0-.1-.3-.4-.3-.4l-.7.6-.2-.2h-.2s-.3-.6-.3-.6l-.3-1.1v-.7c.1,0,0-.2,0-.2l-.3.5h-.3s0-1.1,0-1.1v-.3c.1,0,.1-1,.1-1l.4-1.5v-1.4s.3-.3.3-.3l.2-.5.4-.4.2-.6h0s.4.4.4.4l.7-.6c.7-.9,1.1-2,1.8-3l.4-.5h.4c0-.1,0-.5,0-.5l.7-1,.5-.9,1.5-1.5.7-1.2.3-.3v-.5c.1,0,.6-.3.6-.3v-.3c.1,0,.6-.5.6-.5l.3-.6h.4c0-.1.7-.6.7-.6l.7-.6.2-.5.5-.6.3-.3.5-.2v-.8s.3,0,.3,0l.4-.3.2-.4h.2c0-.1.9-1.1.9-1.1l.4-.8.7.8,1.1-1.7.2-.5h.4c0,0,.5-.2.5-.2h.6s.7-.3.7-.3h0M445.1,48.9h.1"/>
  <path class="cls-1" d="M416.2,52.6l.5.9h0M396.1,68l1.6.5c1.5.6,2.4,1,2.9,2.8l.2.4v.9c.1,0,0,1.1,0,1.1l-.3,1.5v.4c-.3.6-.6,1.2-.7,1.9l-.2,1.1v.4s-.1.4-.1.4v.8c0,0,0,1,0,1l.6,1.2h.4c0,.1,1.1.4,1.1.4h.3s1.3.1,1.3.1h.6c1.2,0,2.4,0,3.7,0h.9c1,0,2.1,0,3,0h.3s.6,0,.6,0h.8c0,0,.4,0,.4,0h.4c0,0,.2,0,.2,0h1.2c0-.1.6,0,.6,0h.3c0-.1,1.1,0,1.1,0h1.2c0,0,.6,0,.6,0h.4c0-.1.4-.1.4-.1l.7-.2h.4c0,.1.8,0,.8,0h.3c0,0,.5,0,.5,0l1.3-.2.7.2h.4c0-.1.6,0,.6,0h.4c0-.1.8-.1.8-.1h.3c0,0,.8,0,.8,0h.5c.6,0,1.3,0,1.9,0h.7c.8,0,1.6,0,2.4,0h1.7s.4,0,.4,0c.8,0,1.5,0,2.3,0h.5c0,0,1.1,0,1.1,0h.5s.6,0,.6,0h1.3c.7,0,1.5.1,2.2.1h.8c0,0,1.7,0,1.7,0h1.4c0,0,1.4-.1,1.4-.1l.3-.4-.2-.3h1.1c0,0,1.2.1,1.2.1l1.7.4c1.1.2,2.5.5,3.4,1.2l.4.3v.9c0,0,.5.8.5.8l.2,1,.2.5v.6c0,0,.2.5.2.5v.4c0,0,0,.5,0,.5l.5.5-.6.3-.4.2h-.7c0,0-.3,1.3-.3,1.3-.5.4-1.2,0-1.8.3l-.2.4h-.6c0,.1-.3.7-.3.7l-.6.4c-.6.2-1.6,0-2.3-.2-.8-.1-1.5-.5-2.3-.6l-.8-.2h-.6c0,0,.7-.4.7-.4l-.5-.3h-1c0-.1-.4,0-.4,0l-.7-.2h-.8c0,0-.7-.2-.7-.2h-.6c0,0-.8,0-.8,0h-.9c0,.1-1,.1-1,.1h-1c-1.3.1-2.7,0-4,0h-.4c-.7.1-1.5.2-2.2.2h-.7s-.9,0-.9,0h-.5c0,0-.8,0-.8,0h-.7c0,0-.9,0-.9,0h-.3s-.5,0-.5,0h-.7s-1.4.2-1.4.2h-1c0,0-.7,0-.7,0h-.6c-.9,0-1.9,0-2.8,0h-.4c0,0-.3,0-.3,0h-.4s-.4,0-.4,0h-1s-.6,0-.6,0h-.9c0,0-.4,0-.4,0h-.5c0,.1-.7,0-.7,0h-.4c0,.1-.3,0-.3,0h-.6s-.3.3-.3.3l.4.2-.2.3h-.3c0,0-.4-.1-.4-.1v-.4c0,0,0-.2,0-.2h-2.8s-1.5.3-1.5.3h-.5s-.4.5-.4.5v.2c-.6.2-1.4.1-2.1.1l-1.4.2c-.8,0-1.6,0-2.4,0l-1,.4h-.4s-1.1.3-1.1.3h-1.7c0,0-.5.2-.5.2h-.8c-.7,0-1.3.1-1.9,0-.7-.2-1.4-.3-2-.7l-.5-.5-.4-.4-.7-1.2-.4-.5-.5-1v-.3c-.1,0-.2-1-.2-1v-.5c-.1,0,0-.5,0-.5v-.5c0,0-.1-1.2-.1-1.2v-.6c0,0,.2-.6.2-.6v-1.2s.1-.4.1-.4v-1.3c.1,0,.2-.3.2-.3,0-.7,0-1.4.2-2.1l.2-.6v-.5s.1-.4.1-.4v-1.4c0,0,.3-1.2.3-1.2v-.7c.1,0,.3-.3.3-.3l.2-.7.4-1.2v-.8c0,0,0-.3,0-.3l.2-.2.3-.6v-1c-.1,0,0,0,0,0h0c0,0,0-.1,0-.1h.3c0,0,.7,0,.7,0l.5.2c.7,0,1.1-.5,1.6-.7h.4c0,0,.3-.2.3-.2h.4M734.9,32.3l1.4.3.6.4h1c1.9.7,3.6,2.5,4.5,4.3.4.8.8,1.6,1,2.6.2.9.3,1.9.3,2.8,0,1-.2,2.8.4,3.5l.9.2,1.1.2h.5c0,0,.7,0,.7,0h.6s.6,0,.6,0h.7c1,.1,5.1,1.4,5.3,2.4v1.4c0,0-.4.8-.4.8l.3.9v1.5c-.1,0-.3.5-.3.5v.9c-.2.6-.4.4-.9.6l-.2.3-.6.4h-.6s-.5,0-.5,0l-1.6-.2h-.9s-.6,0-.6,0c-1.1,0-2.3.3-3.1.8l-.5.5-.6.5c-.4.5-.3,1.2-.3,1.9v1.3c0,0,0,.4,0,.4v1c0,1.3.3,2.3,0,3.6l-.2.6-.7.9-.4.2-.8.8-.6.4-.4.3-.4-.2h-.4c0,0-.2-.3-.2-.3l-.8-.6-.8.5h-1c0,.1-.4,0-.4,0h-.3c0-.1-.6-.9-.6-.9h-.4c0-.1-.5-.3-.5-.3l-.5-.4h-.9c0,0,0-.1,0-.1l-.3-1.6v-.4c0,0,0-.8,0-.8v-1.3c0,0,.2-1.6.2-1.6,0-1,0-1.8,0-2.8v-.6c0-1.4,0-2.9,0-4.3v-.7c.1,0,.1-.3.1-.3v-1.3c.1,0,0-.3,0-.3v-1.4s-.2-.4-.2-.4v-.9c.1,0,0-.6,0-.6,0-.7,0-1.4-.2-2.1-.1-.7-.4-1.4-.5-2v-.7c0,0-.3-1.3-.3-1.3l-.2-.7c0-.7,0-1.5,0-2.1v-.9l.2-.9.2-1.1.8-1.4.5-1.3v-.4c0,0,.7-.7.7-.7M690.6,33.8c.7.2,1.5,0,2.2,0l1.2.3h1.2l1,.2h1.3c0,0,.4,0,.4,0h1.4c0,.1.6,0,.6,0,.6,0,1.2,0,1.8,0h1.2c0,0,.5,0,.5,0h.9c0,0,1.1,0,1.1,0h1.2c0-.1.5,0,.5,0h1.4s.3,0,.3,0l1.4-.2.8.2h.4c0,0,.5,0,.5,0h.3s1,0,1,0c1.2.2,2.3.7,3.3,1.3l.8.6,1.2,1.1.6,1.2v.4l.2.6v1.2c-.2,1.2-.3,2.7,0,3.9l.3.8c.2.6.3,1.3.3,2v.7c-.1,0-.4,1.4-.4,1.4,0,.6-.1,1.3-.2,1.9v1.3c.1.8-.2,1.5-.6,2l-1.3.8-.6-.4h-.6s-.4-.7-.4-.7l-.4.6-.5.3-.5.7h-.5l-.3.2h-.5c0,0,0,0,0,0l-1.3-.5-.3-.5-.4.2-.9-1.1-.3-.3-.4-.8-.2-.3v-.7s0-1.2,0-1.2v-.9c0,0,.2-.4.2-.4v-.4c0,0-.1-1.3-.1-1.3l.5-.9v-1.1c0,0,.2-.9.2-.9v-.7c-.3-.9-.7-1.2-1.5-1.4h-.8c-.6-.1-1.3-.2-1.9-.3h-.9s-.3,0-.3,0h-.8s-1.7,0-1.7,0h-1.3c-.8,0-1.7,0-2.6,0s-1.2.2-1.8.2c-.8,0-1.6,0-2.4,0l-.7.2h-1.1c0,0-1,0-1,0h-.5c0,0-.5,0-.5,0h-1.1s-.7,0-.7,0c-1.6.2-3.1.6-4.6.7l-1.3.4h-1.5s-.6-.2-.6-.2h-.7c0-.1-.8-.9-.8-.9l-.5-1.2c-.3-.5-.6-.8-.6-1.5v-1c.1,0-.2-1-.2-1l.5-.6.8-.9,1.6-.8,1.1-.9c.6-.2,1.3-.1,1.9-.3.9-.2,1.9-.3,2.8-.5l1-.3h1.3s1-.2,1-.2h1M700.8,42.1h.1"/>
  <path class="cls-1" d="M695.5,49.6h1.1c.6.5,1,1.3,1.5,1.8l1.2,1.3.8,1.2.6,1.3v1c0,0,.4,1.3.4,1.3v1s.2.4.2.4l.2.4,1,.2,1.1.5h1s.7,0,.7,0h.8c0-.1.5,0,.5,0h.3c0-.1.2,0,.2,0h.2c0,0,.9-.1.9-.1h1.5c0,.1.4.2.4.2h.2c0,.1,1.3.2,1.3.2h.5c0,0,.2-.2.2-.2l-.4-.4,2.1.3.3.2.3-.3h.5c0,0,.5,0,.5,0l1.7.2c.6,0,1.3.3,1.8.6l1.3.8h.5c0,.1.3.9.3.9l.5.3c.7.4.6,1,.6,1.6v.5c0,0-1.6,0-1.6,0l.3,1.2-.4.5v.6s-1,.9-1,.9l-.7.2v.4c-.1,0-.3.3-.3.3v.4c-.1,0-.5.5-.5.5h0s0,0,0,0h-1.4c0,0-.5-.2-.5-.2l-.7.2-1.2-.2h-.3c0-.1-.6,0-.6,0l-.2-.2-.4.2-.7-.2h-.3c0-.1-.7,0-.7,0h-.8s-.4,0-.4,0h-1c0-.1-1.4-.1-1.4-.1h-.5c0-.1-.4,0-.4,0h-.5c0-.1-.6,0-.6,0h-.8c0,0-.6,0-.6,0h-.4s-.6.2-.6.2h-.8c0,0-.4,0-.4,0h-.3c0,0-.3,0-.3,0h-1.2c-.8,0-1.6,0-2.4,0h-.3c0,0-.9,0-.9,0h-1.5l-.7.2h-.3s-1.7.2-1.7.2h-.6l-.7.2h-1s-1.6.6-1.6.6l-1.5.3-.4.2-1-.2h-.6c0,0-.9-.4-.9-.4h-.6s-1.4-.4-1.4-.4l-1.6-.4-1.4-1.2-.3-.6-.5-.7v-1.3c0,0,0-.3,0-.3v-.6c0,0,.4-.5.4-.5l.2-.5,1-.5-.3-1,.2-.4.4-.4h.8c0,0,.7-.4.7-.4h.7l.4-.2,1-.2,1,.2c.7,0,1.4-.2,2-.3h.9c0,0,.8-.3.8-.3h.6s.5-.2.5-.2h.5s1.1-.2,1.1-.2c.7-.6.4-2.4.4-3.3v-.8c0,0-.6-1.1-.6-1.1l-.2-1,.3-1.4c.2-.8.8-1.4,1.4-1.9l.4-.4h.6c0-.1.8-.5.8-.5l1.6-.3M713.1,60l-.2.2M684.3,72h1.5c0,.1.8.6.8.6h.3c.6.6,1.1,1.1,1.7,1.6l.8.6.5,1.5v.6c-.1,0-.2.6-.2.6l-.3.7v.5s-.3.6-.3.6v.5s-.2.6-.2.6v.5s0,1.7,0,1.7l1.7,1.2h.6s.5,0,.5,0h.4c0,0,.4,0,.4,0h.3c0,0,.3,0,.3,0h.5c0,0,.8,0,.8,0,1,0,2.1-.2,3.1-.2h.9c0,0,.3,0,.3,0h.9s.9,0,.9,0c1.2,0,2.4,0,3.6-.2h1.5s.4-.1.4-.1h.9s1.3-.2,1.3-.2h1s.5,0,.5,0h.8c.7,0,1.3,0,1.9-.1h.5c0-.1.7,0,.7,0h.5c0-.1,1-.2,1-.2h1.7c0-.1.3-.2.3-.2h.5s.8-.1.8-.1c1,0,2,.1,3,0h1.7c0-.1.5-.2.5-.2h1.4c0,0,.7-.1.7-.1h.3c0,0,.8-.2.8-.2l1.1-.2h1.1s.6,0,.6,0l1.1.2h1.5c0,0,.7,0,.7,0h1.2c0,0,.6.2.6.2h1.3s1.8.1,1.8.1h1.7s.5,0,.5,0v-.2c0,0,.1,0,.1,0h.3c0,0,.3,0,.3,0l.6.3.5-.2h.7c0,0,.5,0,.5,0h.7s1,0,1,0l.7.2h.5s1.2.3,1.2.3c.7.3,1.4,1,1.6,1.7v.3s-.2.2-.2.2l-.4.7h-.2s-.1,0-.1,0l.2.3v.2c-.1,0-.6-.1-.6-.1h-.6c0,0-.4-.1-.4-.1l-.5.2h0c0,0,.6.1.6.1l.4.3h.1s.7,0,.7,0h.2s.2,0,.2,0l.2.2.3.2h-.2c0,0-.4.1-.4.1h-1.6s0,.1,0,.1l.4.9h0c0,.1,0,.9,0,.9l-.4.2-.2,1.1v.2c0,0,0,0,0,0h-.2c0,0-.2.3-.2.3l-.9.4v.7c0,0,0,.4,0,.4l-1.4.3h-1.2c0,0-.7-.1-.7-.1l-.8-.5h-.4c0-.1-.3-.3-.3-.3h-.8c0,.1-.2,0-.2,0h-.4c0-.1,0-.2,0-.2h.2c0,0,.9,0,.9,0l-.4-.5h-1.2c0,0-.5-.2-.5-.2h-1.5c0,0-.7,0-.7,0h-.4c0,0-.9,0-.9,0h-1s-.3,0-.3,0h-.4c0,0-1.2,0-1.2,0l-.5.5-1.8.3h-.5c0-.1-.6-.2-.6-.2l-.4-.2h-.9s0-.4,0-.4h-.6c0-.1-1-.1-1-.1-.6,0-1.2-.2-1.9-.2l-.6.2h-.6c0-.1-.5,0-.5,0h-.7c0-.1-1,.3-1,.3h-.4s-.3-.1-.3-.1h-.9s-.8,0-.8,0h-1.3s-1.1.2-1.1.2h-1c0,0-.6-.2-.6-.2h-.4c0,0-.5.1-.5.1l-.4.2h-1.4c0,.1-1.1.3-1.1.3h-.3s-1,0-1,0l-.5.2h-.6c0,.1-.5,0-.5,0h-.5c0,0-.9,0-.9,0h-.1s.2.4.2.4h1.5c0,0,1.5-.1,1.5-.1l-1.5.2h-1.1c0,.1-.7.2-.7.2h-.4c0,0-.6.1-.6.1l-1.6.3c-2.1.2-4,.3-6,.6l-.7.2h-.4s-.9.3-.9.3l-1.2.2-.7.2h-1.2c0,0-.6,0-.6,0h-1.3s-.6.1-.6.1h-.3s-1.2,0-1.2,0h-.6c0,.1-1,.2-1,.2l-.6-.2h-.4s-.4-.2-.4-.2l-1.2-.2-.8-.4h-.8c0-.1-1.1-1.3-1.1-1.3l-.3-.3-.2-.5-.5-.6-.3-1v-.3c-.1,0-.2-.5-.2-.5l-.3-1v-1.2c0,0,0-.8,0-.8v-1.3s0-1.5,0-1.5v-.5s0-1.6,0-1.6c0-.7.4-1.1.5-1.8v-.8c.1-.7,0-1.4.2-2.1l.2-.4.2-.6.5-.5.6-.7.6-.6.2-.4.9-.5,1-.9.8-.5M727.6,90.6h0"/>
  <path class="cls-1" d="M704.6,92.4l-.8.4c.2.3,1.7-.3.8-.4M307.6,110.3c2.6,0,4.5.7,5.9,1.9,1.4,1.3,2,2.7,2,4.3s-.9,2.9-2.7,4.7c0,0,.7.5,2,1.3,1.3.9,2,2.4,2,4.5s-1,4.8-3.1,5.9c-2.1,1.1-3.9,1.7-5.5,1.7h-9.6v-24.4h8.9ZM304,130.5h3.7c1.1,0,2-.3,2.7-1.1.7-.7,1.1-1.5,1.1-2.5s-.4-1.8-1.1-2.5c-.7-.7-1.6-1-2.8-1h-3.7v7ZM304.1,119.3h3.5c.6,0,1.1-.2,1.7-.6.6-.4.9-1,.9-1.8s-.3-1.3-.8-1.7c-.5-.4-1.2-.7-1.8-.6h-3.5M341,110.3v16.8c0,.7.3,1.6,1,2.5.6.9,1.7,1.4,3.2,1.4s2.5-.5,3.2-1.4c.7-.9,1-1.7,1-2.5v-16.8h5.6v15.9c0,2.1-.9,4.1-2.6,6.1-1.7,2-4.1,3-7.2,3s-5.5-1-7.2-3c-1.7-2-2.6-4-2.6-6.1v-15.9M382.9,114.3c-.8,0-1.5.2-2.2.8-.6.5-1,1.1-1,1.7,0,1.2.7,2,2.1,2.5,1.4.5,2.7,1,3.9,1.6,1.5.6,2.9,1.4,4.2,2.3,1.3.9,2.1,2.4,2.2,4.8.1,1.9-.8,3.6-2.6,5.2-1.9,1.6-4.1,2.3-6.6,2.3-3.1,0-5.4-.9-7-2.7-1.6-1.8-2.4-3.6-2.4-5.4h5.5c0,.8.3,1.7,1,2.4.6.8,1.6,1.2,2.9,1.2s2.2-.4,2.8-1.1c.6-.8.9-1.3.9-1.7,0-.8-.3-1.4-.8-1.9-.4-.5-1.2-1-2.2-1.4-2-.8-4-1.7-6.1-2.4-2.2-.8-3.3-2.6-3.3-5.2s.9-3.6,2.6-5c1.7-1.5,3.8-2.2,6.1-2.2s4.6.7,6.2,2.2c1.6,1.5,2.4,3.1,2.5,4.9h-5.7c0-.7-.3-1.2-.9-1.8-.6-.5-1.4-.8-2.2-.8M423.9,110.3l10.3,24.4h-5.3l-2.3-5.8h-10.9l-2.4,5.8h-5.3l10.4-24.4h5.6ZM417.6,124.5h7l-3.5-8.7M458,110.3l9.6,16v-16h5.4v24.4h-5.8l-9.6-16.1v16.1h-5.4v-24.4M525,110.4l6.5,18,6.5-18h6.9v24.3h-5.3v-15.6l-5.6,15.6h-5.1l-5.6-15.3v15.3h-5.3v-24.3M569,110.3v16.8c0,.7.3,1.6,1,2.5.6.9,1.7,1.4,3.2,1.4s2.5-.5,3.2-1.4c.7-.9,1-1.7,1-2.5v-16.8h5.6v15.9c0,2.1-.9,4.1-2.6,6.1-1.7,2-4.1,3-7.2,3s-5.5-1-7.2-3c-1.7-2-2.6-4-2.6-6.1v-15.9M610.8,114.3c-.8,0-1.5.2-2.2.8-.7.5-1,1.1-1,1.7,0,1.2.7,2,2.1,2.5,1.4.5,2.7,1,3.9,1.6,1.5.6,2.9,1.4,4.2,2.3,1.3.9,2.1,2.4,2.2,4.8.1,1.9-.8,3.6-2.6,5.2-1.9,1.6-4.1,2.3-6.6,2.3-3.1,0-5.4-.9-7-2.7-1.6-1.8-2.4-3.6-2.4-5.4h5.5c0,.8.3,1.7,1,2.4.6.8,1.6,1.2,2.8,1.2s2.2-.4,2.8-1.1c.6-.8.9-1.3.9-1.7,0-.8-.3-1.4-.8-1.9-.4-.5-1.2-1-2.2-1.4-2-.9-4-1.7-6.1-2.4-2.2-.8-3.3-2.6-3.3-5.2s.9-3.6,2.6-5c1.7-1.5,3.8-2.2,6.1-2.2s4.6.7,6.2,2.2c1.6,1.5,2.4,3.1,2.5,4.9h-5.7c0-.7-.3-1.2-.9-1.8-.6-.5-1.4-.8-2.2-.8M656,110.4v4.6h-11.7v4.9h11.4v4.5h-11.4v5.9h12v4.6h-17.5v-24.3M680.5,110.3v16.8c0,.7.3,1.6,1,2.5.6.9,1.7,1.4,3.2,1.4s2.5-.5,3.2-1.4c.7-.9,1-1.7,1-2.5v-16.8h5.6v15.9c0,2.1-.9,4.1-2.6,6.1s-4.1,3-7.2,3-5.5-1-7.2-3c-1.7-2-2.6-4-2.6-6.1v-15.9M719.7,110.4l6.5,18,6.5-18h6.9v24.3h-5.3v-15.6l-5.6,15.6h-5.1l-5.6-15.3v15.3h-5.3v-24.3"/>
  <path class="cls-2" d="M139.2,128.6h128.6V0h-128.6v128.6ZM244.3,105.1h-81.6V23.5h81.6"/>
  <path class="cls-3" d="M0,150h128.5V21.4H0v128.6ZM97.7,119.1H30.9V52.3h66.9"/>
  <path class="cls-1" d="M235.5,372.6l-.8.4c.2.3,1.7-.3.8-.4M-84.8,390.6c2.6,0,4.5.7,5.9,1.9,1.4,1.3,2,2.7,2,4.3s-.9,2.9-2.7,4.7c0,0,.7.5,2,1.3,1.3.9,2,2.4,2,4.5s-1,4.8-3.1,5.9c-2.1,1.1-3.9,1.7-5.5,1.7h-9.6v-24.4h8.9ZM-88.4,410.7h3.7c1.1,0,2-.3,2.7-1.1.7-.7,1.1-1.5,1.1-2.5s-.4-1.8-1.1-2.5c-.7-.7-1.6-1-2.8-1h-3.7v7ZM-88.4,399.6h3.5c.6,0,1.1-.2,1.7-.6.6-.4.9-1,.9-1.8s-.3-1.3-.8-1.7c-.5-.4-1.2-.7-1.8-.6h-3.5M-51.5,390.6v16.8c0,.7.3,1.6,1,2.5.6.9,1.7,1.4,3.2,1.4s2.5-.5,3.2-1.4c.7-.9,1-1.7,1-2.5v-16.8h5.6v15.9c0,2.1-.9,4.1-2.6,6.1-1.7,2-4.1,3-7.2,3s-5.5-1-7.2-3c-1.7-2-2.6-4-2.6-6.1v-15.9M-9.6,394.5c-.8,0-1.5.2-2.2.8-.6.5-1,1.1-1,1.7,0,1.2.7,2,2.1,2.5,1.4.5,2.7,1,3.9,1.6,1.5.6,2.9,1.4,4.2,2.3,1.3.9,2.1,2.4,2.2,4.8.1,1.9-.8,3.6-2.6,5.2-1.9,1.6-4.1,2.3-6.6,2.3-3.1,0-5.4-.9-7-2.7-1.6-1.8-2.4-3.6-2.4-5.4h5.5c0,.8.3,1.7,1,2.4.6.8,1.6,1.2,2.9,1.2s2.2-.4,2.8-1.1c.6-.8.9-1.3.9-1.7,0-.8-.3-1.4-.8-1.9-.4-.5-1.2-1-2.2-1.4-2-.8-4-1.7-6.1-2.4-2.2-.8-3.3-2.6-3.3-5.2s.9-3.6,2.6-5c1.7-1.5,3.8-2.2,6.1-2.2s4.6.7,6.2,2.2c1.6,1.5,2.4,3.1,2.5,4.9h-5.7c0-.7-.3-1.2-.9-1.8-.6-.5-1.4-.8-2.2-.8M31.5,390.6l10.3,24.4h-5.3l-2.3-5.8h-10.9l-2.4,5.8h-5.3l10.4-24.4h5.6ZM25.1,404.8h7l-3.5-8.7M65.6,390.6l9.6,16v-16h5.4v24.4h-5.8l-9.6-16.1v16.1h-5.4v-24.4M-116.4,425.3l6.5,18,6.5-18h6.9v24.3h-5.3v-15.6l-5.6,15.6h-5.1l-5.6-15.3v15.3h-5.3v-24.3M-72.5,425.3v16.8c0,.7.3,1.6,1,2.5.6.9,1.7,1.4,3.2,1.4s2.5-.5,3.2-1.4c.7-.9,1-1.7,1-2.5v-16.8h5.6v15.9c0,2.1-.9,4.1-2.6,6.1-1.7,2-4.1,3-7.2,3s-5.5-1-7.2-3c-1.7-2-2.6-4-2.6-6.1v-15.9M-30.6,429.2c-.8,0-1.5.2-2.2.8-.7.5-1,1.1-1,1.7,0,1.2.7,2,2.1,2.5,1.4.5,2.7,1,3.9,1.6,1.5.6,2.9,1.4,4.2,2.3,1.3.9,2.1,2.4,2.2,4.8.1,1.9-.8,3.6-2.6,5.2-1.9,1.6-4.1,2.3-6.6,2.3-3.1,0-5.4-.9-7-2.7-1.6-1.8-2.4-3.6-2.4-5.4h5.5c0,.8.3,1.7,1,2.4.6.8,1.6,1.2,2.8,1.2s2.2-.4,2.8-1.1c.6-.8.9-1.3.9-1.7,0-.8-.3-1.4-.8-1.9-.4-.5-1.2-1-2.2-1.4-2-.9-4-1.7-6.1-2.4-2.2-.8-3.3-2.6-3.3-5.2s.9-3.6,2.6-5c1.7-1.5,3.8-2.2,6.1-2.2s4.6.7,6.2,2.2c1.6,1.5,2.4,3.1,2.5,4.9h-5.7c0-.7-.3-1.2-.9-1.8-.6-.5-1.4-.8-2.2-.8M14.5,425.3v4.6H2.8v4.9h11.4v4.5H2.8v5.9h12v4.6H-2.6v-24.3M39,425.3v16.8c0,.7.3,1.6,1,2.5.6.9,1.7,1.4,3.2,1.4s2.5-.5,3.2-1.4c.7-.9,1-1.7,1-2.5v-16.8h5.6v15.9c0,2.1-.9,4.1-2.6,6.1s-4.1,3-7.2,3-5.5-1-7.2-3c-1.7-2-2.6-4-2.6-6.1v-15.9M78.3,425.3l6.5,18,6.5-18h6.9v24.3h-5.3v-15.6l-5.6,15.6h-5.1l-5.6-15.3v15.3h-5.3v-24.3"/>
  <path class="cls-2" d="M-8.1,352H120.5v-128.6H-8.1v128.6ZM97,328.5H15.4v-81.6h81.6"/>
  <path class="cls-3" d="M-147.3,373.4H-18.8v-128.6h-128.5v128.6ZM-49.6,342.5h-66.9v-66.9H-49.6"/>
</svg>