<svg width="25" height="25" viewBox="0 0 25 25" fill="none" xmlns="http://www.w3.org/2000/svg">
<g clip-path="url(#clip0_308_547)">
<path d="M12.25 0C5.5 0 0 5.5 0 12.25C0 19 5.5 24.5833 12.25 24.5833C19 24.5833 24.5833 19 24.5833 12.25C24.5833 5.5 19 0 12.25 0ZM12.25 23.3333C6.16667 23.3333 1.25 18.3333 1.25 12.25C1.25 6.16667 6.16667 1.25 12.25 1.25C18.3333 1.25 23.3333 6.16667 23.3333 12.25C23.3333 18.3333 18.3333 23.3333 12.25 23.3333Z" fill="#252525"/>
<path d="M12.25 11.9167C14.25 11.9167 15.9167 10.25 15.9167 8.25C15.9167 6.25 14.25 4.58333 12.25 4.58333C10.25 4.58333 8.58337 6.25 8.58337 8.25C8.58337 10.25 10.25 11.9167 12.25 11.9167ZM12.25 5.91667C13.5834 5.91667 14.6667 7 14.6667 8.33333C14.6667 9.66667 13.5834 10.75 12.25 10.75C10.9167 10.75 9.83337 9.66667 9.83337 8.33333C9.83337 7 10.9167 5.91667 12.25 5.91667Z" fill="#252525"/>
<path d="M12.25 12.9167C8.66667 12.9167 5.75 15.3333 5.75 18.4167C5.75 18.75 6 19.0833 6.41667 19.0833H18.0833C18.4167 19.0833 18.75 18.8333 18.75 18.4167C18.75 15.3333 15.8333 12.9167 12.25 12.9167ZM7.08333 17.75C7.41667 15.75 9.66667 14.1667 12.25 14.1667C14.8333 14.1667 17 15.75 17.4167 17.75H7.08333Z" fill="#252525"/>
</g>
<defs>
<clipPath id="clip0_308_547">
<rect width="25" height="25" fill="white"/>
</clipPath>
</defs>
</svg>
