<svg width="25" height="25" viewBox="0 0 25 25" fill="none" xmlns="http://www.w3.org/2000/svg">
<path d="M12.5 0.25C5.75 0.25 0.25 5.75 0.25 12.5C0.25 19.25 5.75 24.8333 12.5 24.8333C19.25 24.8333 24.8333 19.25 24.8333 12.5C24.8333 5.75 19.25 0.25 12.5 0.25ZM12.5 23.5833C6.41667 23.5833 1.5 18.5833 1.5 12.5C1.5 6.41667 6.41667 1.5 12.5 1.5C18.5833 1.5 23.5833 6.41667 23.5833 12.5C23.5833 18.5833 18.5833 23.5833 12.5 23.5833Z" fill="#252525"/>
<path d="M12.4997 12.1667C14.4997 12.1667 16.1663 10.5 16.1663 8.5C16.1663 6.5 14.4997 4.83334 12.4997 4.83334C10.4997 4.83334 8.83301 6.5 8.83301 8.5C8.83301 10.5 10.4997 12.1667 12.4997 12.1667ZM12.4997 6.16667C13.833 6.16667 14.9163 7.25 14.9163 8.58334C14.9163 9.91667 13.833 11 12.4997 11C11.1663 11 10.083 9.91667 10.083 8.58334C10.083 7.25 11.1663 6.16667 12.4997 6.16667Z" fill="#252525"/>
<path d="M12.5 13.1667C8.91667 13.1667 6 15.5833 6 18.6667C6 19 6.25 19.3333 6.66667 19.3333H18.3333C18.6667 19.3333 19 19.0833 19 18.6667C19 15.5833 16.0833 13.1667 12.5 13.1667ZM7.33333 18C7.66667 16 9.91667 14.4167 12.5 14.4167C15.0833 14.4167 17.25 16 17.6667 18H7.33333Z" fill="#252525"/>
</svg>
