<svg width="59" height="58" viewBox="0 0 59 58" fill="none" xmlns="http://www.w3.org/2000/svg">
<path d="M11.2571 0.539062H48.7079C54.3859 0.539062 58.9766 5.12977 58.9766 10.8079V46.809C58.9766 52.487 54.3859 57.0778 48.7078 57.0778H11.2571C5.57899 57.0777 0.988281 52.487 0.988281 46.8089V10.8079C0.988281 5.12977 5.57899 0.539062 11.2571 0.539062Z" fill="white"/>
<path d="M39.5575 27.4714C38.545 26.6721 37.1841 26.1854 35.6987 26.1846C34.2134 26.1854 32.8516 26.6721 31.839 27.4714C30.8081 28.2855 30.1247 29.4322 30.0463 30.7338C29.9671 32.0712 30.5426 33.3154 31.5543 34.2366C32.5861 35.1734 34.0558 35.762 35.6996 35.762C37.3426 35.762 38.8114 35.1734 39.8414 34.2357C40.8531 33.3154 41.4295 32.0712 41.3511 30.733C41.2728 29.4331 40.5884 28.2855 39.5575 27.4714Z" fill="#333333"/>
<path d="M49.0817 30.4787C48.8562 28.8914 48.3059 27.4008 47.4614 26.0426C46.6856 24.7949 45.6895 23.7022 44.5037 22.7819L44.5054 22.7802L44.4732 22.7697C44.4488 22.748 44.4297 22.7227 44.4044 22.7018L31.9973 13.5058C31.2485 12.9059 30.1515 13.0251 29.5498 13.7783C28.9491 14.5288 29.0701 15.625 29.8224 16.2257L35.036 20.0898H18.2851C17.0879 20.0898 16.1084 21.0693 16.1084 22.2665C16.1084 23.4637 17.0879 24.4432 18.2851 24.4432H24.5139L11.6444 35.4154C10.732 36.1973 10.6257 37.5729 11.4085 38.4845C11.8395 38.9869 12.4489 39.2446 13.0619 39.2446C13.5634 39.2446 14.0666 39.0722 14.4776 38.7205L22.2736 32.0381C22.2545 32.7407 22.2397 33.3772 22.2431 33.5713C22.2431 36.6326 25.6858 44.4687 35.857 44.4687C43.0993 44.4687 49.1609 40.1153 49.1609 32.9227C49.2236 32.1095 49.1966 31.2928 49.0817 30.4787ZM43.5564 33.2831C43.2072 34.2295 42.6422 35.115 41.8716 35.8882C40.2957 37.4728 38.0903 38.3696 35.7003 38.3731C33.3103 38.3774 31.1031 37.4876 29.5263 35.9073C28.7558 35.1368 28.1898 34.2522 27.8398 33.3075C27.4985 32.3802 27.3653 31.3964 27.4533 30.4038C27.5386 29.4321 27.8294 28.5066 28.2987 27.669C28.7593 26.8454 29.3931 26.1018 30.1741 25.4714C31.7065 24.2403 33.6559 23.5742 35.6985 23.5716C37.7411 23.569 39.6897 24.2298 41.223 25.4558C42.004 26.0826 42.6369 26.8236 43.0967 27.6455C43.566 28.4822 43.8576 29.4069 43.9438 30.3777C44.0309 31.372 43.8986 32.355 43.5564 33.2831Z" fill="#333333"/>
</svg>
