<svg width="58" height="57" viewBox="0 0 58 57" fill="none" xmlns="http://www.w3.org/2000/svg">
<path d="M10.2688 0H47.7196C53.3976 0 57.9883 4.59071 57.9883 10.2688V46.2699C57.9883 51.9479 53.3976 56.5387 47.7195 56.5387H10.2688C4.59071 56.5386 0 51.9479 0 46.2698V10.2688C0 4.59071 4.59071 0 10.2688 0Z" fill="white"/>
<path d="M38.5688 26.9333C37.5562 26.1341 36.1953 25.6474 34.71 25.6465C33.2246 25.6474 31.8628 26.1341 30.8503 26.9333C29.8194 27.7474 29.1359 28.8941 29.0575 30.1958C28.9783 31.5331 29.5538 32.7773 30.5655 33.6985C31.5973 34.6353 33.067 35.2239 34.7108 35.2239C36.3538 35.2239 37.8226 34.6353 38.8526 33.6976C39.8643 32.7773 40.4407 31.5331 40.3624 30.1949C40.284 28.895 39.5997 27.7474 38.5688 26.9333Z" fill="#01579B"/>
<path d="M48.0929 29.9406C47.8674 28.3534 47.3171 26.8628 46.4726 25.5045C45.6968 24.2568 44.7008 23.1641 43.5149 22.2438L43.5166 22.2421L43.4844 22.2316C43.4601 22.2099 43.4409 22.1846 43.4156 22.1637L31.0085 12.9677C30.2598 12.3678 29.1627 12.4871 28.5611 13.2402C27.9603 13.9907 28.0813 15.0869 28.8336 15.6877L34.0472 19.5517H17.2963C16.0991 19.5517 15.1196 20.5312 15.1196 21.7284C15.1196 22.9256 16.0991 23.9051 17.2963 23.9051H23.5251L10.6556 34.8773C9.74318 35.6592 9.63696 37.0348 10.4197 37.9464C10.8507 38.4488 11.4602 38.7065 12.0731 38.7065C12.5746 38.7065 13.0779 38.5341 13.4888 38.1824L21.2848 31.5C21.2657 32.2026 21.2509 32.8391 21.2544 33.0332C21.2544 36.0945 24.697 43.9306 34.8682 43.9306C42.1105 43.9306 48.1721 39.5772 48.1721 32.3846C48.2348 31.5714 48.2078 30.7547 48.0929 29.9406ZM42.5676 32.745C42.2185 33.6915 41.6534 34.5769 40.8829 35.3501C39.3069 36.9347 37.1015 37.8315 34.7115 37.835C32.3215 37.8394 30.1144 36.9495 28.5376 35.3692C27.767 34.5987 27.2011 33.7141 26.8511 32.7694C26.5098 31.8421 26.3765 30.8583 26.4645 29.8657C26.5498 28.894 26.8406 27.9685 27.3099 27.1309C27.7705 26.3073 28.4043 25.5637 29.1853 24.9333C30.7177 23.7022 32.6672 23.0361 34.7098 23.0335C36.7524 23.0309 38.7009 23.6918 40.2342 24.9177C41.0152 25.5446 41.6482 26.2855 42.1079 27.1074C42.5772 27.9441 42.8689 28.8688 42.9551 29.8396C43.0421 30.8339 42.9098 31.8169 42.5676 32.745Z" fill="#FF6D00"/>
</svg>
