<svg width="58" height="58" viewBox="0 0 58 58" fill="none" xmlns="http://www.w3.org/2000/svg">
<path d="M10.2687 0.539062H47.7195C53.3908 0.539062 57.9883 5.13659 57.9883 10.8078V46.8089C57.9883 52.4802 53.3908 57.0777 47.7195 57.0777H10.2687C4.59753 57.0776 0 52.4802 0 46.8089V10.8078C0 5.13648 4.59753 0.539062 10.2687 0.539062Z" fill="white"/>
<path d="M23.296 34.3644H14.3098L12.4816 40.0548C12.4303 40.2684 12.2343 40.4154 12.0148 40.4049H7.46342C7.2039 40.4049 7.11309 40.2622 7.1911 39.977L14.9712 17.6628C15.049 17.4295 15.1268 17.2013 15.2046 16.9028C15.3065 16.3839 15.3586 15.8563 15.3602 15.3274C15.3415 15.1957 15.433 15.0738 15.5647 15.0551C15.5872 15.0519 15.61 15.0519 15.6325 15.0551H21.8178C21.9988 15.0551 22.1026 15.12 22.129 15.2496L30.9594 40.0158C31.0372 40.2753 30.9594 40.4051 30.726 40.4049H25.6689C25.4892 40.4248 25.3226 40.3083 25.2799 40.1326L23.296 34.3644ZM18.7834 19.4912H18.7444L15.7103 29.5664H21.8566L18.7834 19.4912Z" fill="#333333"/>
<path d="M45.2753 32.1499H37.6119C37.7058 32.9081 37.9576 33.6383 38.3511 34.2931C38.7861 34.9416 39.4013 35.4486 40.121 35.7519C41.0964 36.1739 42.1513 36.3806 43.2137 36.358C44.0566 36.3418 44.8964 36.2496 45.7228 36.0825C46.4619 35.9828 47.1862 35.7939 47.8801 35.5202C48.0095 35.4169 48.0746 35.4814 48.0746 35.7147V39.4103C48.0811 39.5109 48.0609 39.6116 48.0162 39.7021C47.9717 39.7728 47.9118 39.8326 47.8411 39.8771C47.0716 40.2179 46.2617 40.4592 45.4311 40.5951C44.3028 40.8071 43.1558 40.9048 42.0079 40.8869C40.1662 40.8869 38.6231 40.6017 37.3787 40.0311C36.2023 39.5129 35.1633 38.7269 34.3445 37.736C33.5796 36.8023 33.0108 35.724 32.6718 34.5657C32.336 33.4223 32.1657 32.2367 32.1661 31.0452C32.1624 29.7441 32.366 28.4506 32.769 27.2136C33.1572 26.0067 33.771 24.8847 34.5779 23.907C36.3561 21.7524 38.8033 20.8545 41.541 20.8545C43.9002 20.8545 46.3202 21.6358 47.8429 23.5179C48.4802 24.3403 48.9674 25.2687 49.2822 26.2604C49.5887 27.2161 49.7461 28.2132 49.7491 29.2168C49.7491 29.7875 49.7296 30.3062 49.6906 30.7729C49.6518 31.2396 49.6194 31.5768 49.5935 31.7843C49.5725 31.9618 49.4221 32.0955 49.2434 32.0955C49.0878 32.0955 48.8219 32.115 48.446 32.1538C48.0697 32.1927 47.603 32.2186 47.0457 32.2316C46.4872 32.2448 45.8977 32.1499 45.2753 32.1499ZM37.6119 28.6061H42.7079C43.3303 28.6061 43.7906 28.5996 44.0889 28.5866C44.2884 28.5667 44.4811 28.5028 44.6531 28.3997V28.1662C44.6453 27.8619 44.5929 27.5605 44.4975 27.2715C44.0661 25.9074 42.7763 24.9998 41.3466 25.0542C40.0089 24.9734 38.7499 25.6906 38.1373 26.8825C37.8705 27.4251 37.6932 28.0071 37.6119 28.6061Z" fill="#333333"/>
</svg>
