<svg width="58" height="57" viewBox="0 0 58 57" fill="none" xmlns="http://www.w3.org/2000/svg">
<path d="M10.2687 0H47.7195C53.3908 0 57.9883 4.59753 57.9883 10.2687V46.2698C57.9883 51.9411 53.3908 56.5386 47.7195 56.5386H10.2687C4.59753 56.5385 0 51.9411 0 46.2698V10.2687C0 4.59742 4.59753 0 10.2687 0Z" fill="#00005B"/>
<path d="M23.296 33.8259H14.3098L12.4816 39.5162C12.4303 39.7299 12.2343 39.8768 12.0148 39.8663H7.46342C7.2039 39.8663 7.11309 39.7236 7.1911 39.4384L14.9712 17.1243C15.049 16.8909 15.1268 16.6627 15.2046 16.3642C15.3065 15.8453 15.3586 15.3178 15.3602 14.7889C15.3415 14.6572 15.433 14.5352 15.5647 14.5165C15.5872 14.5134 15.61 14.5134 15.6325 14.5165H21.8178C21.9988 14.5165 22.1026 14.5814 22.129 14.7111L30.9594 39.4772C31.0372 39.7368 30.9594 39.8665 30.726 39.8663H25.6689C25.4892 39.8862 25.3226 39.7697 25.2799 39.594L23.296 33.8259ZM18.7834 18.9526H18.7444L15.7103 29.0278H21.8566L18.7834 18.9526Z" fill="#9999FF"/>
<path d="M45.2753 31.6113H37.6119C37.7058 32.3695 37.9576 33.0997 38.3511 33.7545C38.7861 34.403 39.4013 34.9101 40.121 35.2133C41.0964 35.6353 42.1513 35.8421 43.2137 35.8194C44.0566 35.8032 44.8964 35.7111 45.7228 35.5439C46.4619 35.4442 47.1862 35.2553 47.8801 34.9816C48.0095 34.8784 48.0746 34.9428 48.0746 35.1762V38.8717C48.0811 38.9724 48.0609 39.073 48.0162 39.1635C47.9717 39.2343 47.9118 39.294 47.8411 39.3385C47.0716 39.6794 46.2617 39.9207 45.4311 40.0565C44.3028 40.2685 43.1558 40.3662 42.0079 40.3483C40.1662 40.3483 38.6231 40.0631 37.3787 39.4925C36.2023 38.9743 35.1633 38.1883 34.3445 37.1975C33.5796 36.2638 33.0108 35.1854 32.6718 34.0271C32.336 32.8837 32.1657 31.6982 32.1661 30.5066C32.1624 29.2055 32.366 27.912 32.769 26.675C33.1572 25.4682 33.771 24.3462 34.5779 23.3684C36.3561 21.2138 38.8033 20.3159 41.541 20.3159C43.9002 20.3159 46.3202 21.0972 47.8429 22.9793C48.4802 23.8017 48.9674 24.7301 49.2822 25.7218C49.5887 26.6775 49.7461 27.6746 49.7491 28.6783C49.7491 29.249 49.7296 29.7677 49.6906 30.2343C49.6518 30.701 49.6194 31.0382 49.5935 31.2457C49.5725 31.4232 49.4221 31.557 49.2434 31.557C49.0878 31.557 48.8219 31.5764 48.446 31.6153C48.0697 31.6541 47.603 31.68 47.0457 31.6931C46.4872 31.7062 45.8977 31.6113 45.2753 31.6113ZM37.6119 28.0675H42.7079C43.3303 28.0675 43.7906 28.061 44.0889 28.048C44.2884 28.0281 44.4811 27.9642 44.6531 27.8611V27.6276C44.6453 27.3233 44.5929 27.0219 44.4975 26.733C44.0661 25.3689 42.7763 24.4612 41.3466 24.5157C40.0089 24.4348 38.7499 25.152 38.1373 26.3439C37.8705 26.8865 37.6932 27.4685 37.6119 28.0675Z" fill="#9999FF"/>
</svg>
