<svg width="59" height="57" viewBox="0 0 59 57" fill="none" xmlns="http://www.w3.org/2000/svg">
<path d="M11.2571 0H48.7079C54.3859 0 58.9766 4.59071 58.9766 10.2688V46.2699C58.9766 51.9479 54.3859 56.5387 48.7078 56.5387H11.2571C5.57899 56.5386 0.988281 51.9479 0.988281 46.2698V10.2688C0.988281 4.59071 5.57899 0 11.2571 0Z" fill="white"/>
<path d="M29.0884 33.9235H20.1003L18.264 39.6015C18.2156 39.8189 18.0224 39.9639 17.805 39.9398H13.2625C12.9967 39.9398 12.9242 39.7948 12.9967 39.5049L20.7767 17.1069C20.8492 16.8653 20.9217 16.5995 21.0183 16.3095C21.1149 15.8021 21.1633 15.2706 21.1633 14.739C21.1392 14.6181 21.2358 14.4974 21.3566 14.4731H21.4291H27.6145C27.8078 14.4731 27.9044 14.5456 27.9286 14.6665L36.7477 39.5531C36.8202 39.8189 36.7477 39.9397 36.5061 39.9397H31.4562C31.2871 39.9638 31.1179 39.843 31.0697 39.6738L29.0884 33.9235ZM21.5016 29.0186H27.6387L24.546 18.9431L21.5016 29.0186Z" fill="#333333"/>
<path d="M42.0153 18.6048C41.218 18.6289 40.4447 18.3149 39.8649 17.7591C39.3091 17.1551 39.0192 16.3578 39.0434 15.5362C39.0193 14.7147 39.3333 13.9415 39.9132 13.3857C40.4931 12.83 41.2663 12.54 42.0637 12.54C43.006 12.54 43.7308 12.83 44.2623 13.3857C44.7939 13.9656 45.0838 14.7388 45.0597 15.5362C45.0838 16.3576 44.7939 17.155 44.214 17.7591C43.6583 18.339 42.8368 18.6531 42.0153 18.6048Z" fill="#333333"/>
<path d="M39.3091 39.5772V20.9726C39.3091 20.731 39.4057 20.6343 39.6231 20.6343H44.4072C44.6246 20.6343 44.7213 20.7551 44.7213 20.9726V39.5772C44.7213 39.843 44.6246 39.9638 44.4072 39.9638H39.6715C39.4298 39.9638 39.3091 39.8188 39.3091 39.5772Z" fill="#333333"/>
</svg>
