<svg width="58" height="57" viewBox="0 0 58 57" fill="none" xmlns="http://www.w3.org/2000/svg">
<path d="M10.2688 0H47.7196C53.3976 0 57.9883 4.59071 57.9883 10.2688V46.2699C57.9883 51.9479 53.3976 56.5387 47.7195 56.5387H10.2688C4.59071 56.5386 0 51.9479 0 46.2698V10.2688C0 4.59071 4.59071 0 10.2688 0Z" fill="#390000"/>
<path d="M28.1002 33.923H19.112L17.2757 39.601C17.2274 39.8184 17.0341 39.9634 16.8167 39.9393H12.2742C12.0084 39.9393 11.9359 39.7943 12.0084 39.5044L19.7885 17.1064C19.861 16.8648 19.9334 16.599 20.03 16.309C20.1267 15.8016 20.175 15.2701 20.175 14.7385C20.1509 14.6176 20.2475 14.4969 20.3684 14.4727H20.4408H26.6262C26.8196 14.4727 26.9162 14.5451 26.9403 14.666L35.7594 39.5526C35.8319 39.8184 35.7594 39.9392 35.5178 39.9392H30.4679C30.2989 39.9633 30.1296 39.8426 30.0814 39.6733L28.1002 33.923ZM20.5133 29.0181H26.6505L23.5577 18.9426L20.5133 29.0181Z" fill="#FF9A00"/>
<path d="M41.0265 18.6043C40.2292 18.6284 39.456 18.3144 38.8761 17.7586C38.3203 17.1546 38.0304 16.3573 38.0546 15.5357C38.0305 14.7142 38.3446 13.941 38.9245 13.3853C39.5043 12.8295 40.2776 12.5396 41.0749 12.5396C42.0172 12.5396 42.7421 12.8295 43.2736 13.3853C43.8051 13.9651 44.095 14.7384 44.0709 15.5357C44.095 16.3572 43.8051 17.1545 43.2252 17.7586C42.6696 18.3385 41.848 18.6526 41.0265 18.6043Z" fill="#FF9A00"/>
<path d="M38.3208 39.5772V20.9726C38.3208 20.731 38.4174 20.6343 38.6349 20.6343H43.4189C43.6364 20.6343 43.733 20.7551 43.733 20.9726V39.5772C43.733 39.843 43.6364 39.9638 43.4189 39.9638H38.6832C38.4415 39.9638 38.3208 39.8188 38.3208 39.5772Z" fill="#FF9A00"/>
</svg>
