<svg width="58" height="57" viewBox="0 0 58 57" fill="none" xmlns="http://www.w3.org/2000/svg">
<path d="M10.2688 0H47.7196C53.3976 0 57.9883 4.59071 57.9883 10.2688V46.2699C57.9883 51.9479 53.3976 56.5387 47.7195 56.5387H10.2688C4.59071 56.5386 0 51.9479 0 46.2698V10.2688C0 4.59071 4.59071 0 10.2688 0Z" fill="white"/>
<path d="M42.4717 16.7505L40.0263 44.2082L29.0341 47.2626L18.0722 44.2125L15.6294 16.7505H42.4717Z" fill="#004CE8"/>
<path d="M37.933 42.4595L40.0227 18.9956H29.0508V44.9276L37.933 42.4595Z" fill="#0065F4"/>
<path d="M21.2295 29.1812L21.5307 32.5492H29.0505L30.496 30.8652L29.0505 29.1812H21.2295Z" fill="#EBEBEB"/>
<path d="M29.0502 22.3638H29.0386H20.624L20.9295 25.7319H29.0502L30.4957 24.0478L29.0502 22.3638Z" fill="#EBEBEB"/>
<path d="M29.0504 41.4328L30.4958 39.6467L29.0504 37.9286L29.0357 37.9325L25.2932 36.9196L25.0539 34.2334H23.2354H21.6807L22.1515 39.5218L29.0349 41.4371L29.0504 41.4328Z" fill="#EBEBEB"/>
<path d="M21.9468 9.28711H26.0168V10.993H23.6488V12.6989H26.0168V14.4049H21.9468V9.28711Z" fill="black"/>
<path d="M26.8306 9.28711H30.9006V10.7705H28.5326V11.0672H30.9006V14.479H26.8306V12.9214H29.1986V12.6248H26.8306V9.28711Z" fill="black"/>
<path d="M31.7148 9.28711H35.7848V10.7705H33.4168V11.0672H35.7848V14.479H31.7148V12.9214H34.0828V12.6248H31.7148V9.28711Z" fill="black"/>
<path d="M33.177 32.549L32.7869 36.9171L29.0391 37.931V41.4351L35.928 39.5215L35.9785 38.9524L36.7682 30.0853L36.8502 29.1809L37.4568 22.3638H29.0391V25.7319H33.7742L33.4684 29.1809H29.0391V32.549H33.177Z" fill="white"/>
</svg>
