<svg width="58" height="57" viewBox="0 0 58 57" fill="none" xmlns="http://www.w3.org/2000/svg">
<path d="M10.2688 0.0776367H47.7196C53.3976 0.0776367 57.9883 4.66834 57.9883 10.3464V46.3476C57.9883 52.0256 53.3976 56.6164 47.7195 56.6164H10.2688C4.59071 56.6163 0 52.0256 0 46.3475V10.3464C0 4.66834 4.59071 0.0776367 10.2688 0.0776367Z" fill="white"/>
<path d="M42.4717 16.8281L40.0263 44.2858L29.0341 47.3402L18.0722 44.2901L15.6294 16.8281H42.4717Z" fill="#333333"/>
<path d="M37.933 42.5376L40.0227 19.0737H29.0508V45.0058L37.933 42.5376Z" fill="#333333"/>
<path d="M21.23 29.2588L21.5312 32.6269H29.051L30.4965 30.9428L29.051 29.2588H21.23Z" fill="#EBEBEB"/>
<path d="M29.0507 22.4414H29.0391H20.6245L20.93 25.8095H29.0507L30.4962 24.1254L29.0507 22.4414Z" fill="#EBEBEB"/>
<path d="M29.0509 41.5104L30.4963 39.7243L29.0509 38.0062L29.0361 38.0101L25.2937 36.9973L25.0544 34.311H23.2359H21.6812L22.1519 39.5994L29.0354 41.5147L29.0509 41.5104Z" fill="#EBEBEB"/>
<path d="M21.9468 9.36523H26.0168V11.0711H23.6488V12.7771H26.0168V14.483H21.9468V9.36523Z" fill="#333333"/>
<path d="M26.8306 9.36523H30.9006V10.8486H28.5326V11.1453H30.9006V14.5571H26.8306V12.9996H29.1986V12.7029H26.8306V9.36523Z" fill="#333333"/>
<path d="M31.7148 9.36523H35.7848V10.8486H33.4168V11.1453H35.7848V14.5571H31.7148V12.9996H34.0828V12.7029H31.7148V9.36523Z" fill="#333333"/>
<path d="M33.177 32.6271L32.7869 36.9953L29.0391 38.0092V41.5133L35.928 39.5996L35.9785 39.0306L36.7682 30.1635L36.8502 29.259L37.4568 22.4419H29.0391V25.81H33.7742L33.4684 29.259H29.0391V32.6271H33.177Z" fill="white"/>
</svg>
