<svg width="69" height="29" viewBox="0 0 69 29" fill="none" xmlns="http://www.w3.org/2000/svg">
<path d="M0.0500002 28V0.799999H6.2V6.15L5.7 5.2C6.33333 3.56667 7.36667 2.33333 8.8 1.5C10.2667 0.633331 11.9667 0.199997 13.9 0.199997C15.9 0.199997 17.6667 0.633331 19.2 1.5C20.7667 2.36667 21.9833 3.58333 22.85 5.15C23.7167 6.68333 24.15 8.46667 24.15 10.5V28H17.6V12.05C17.6 10.85 17.3667 9.81667 16.9 8.95C16.4333 8.08333 15.7833 7.41667 14.95 6.95C14.15 6.45 13.2 6.2 12.1 6.2C11.0333 6.2 10.0833 6.45 9.25 6.95C8.41667 7.41667 7.76667 8.08333 7.3 8.95C6.83333 9.81667 6.6 10.85 6.6 12.05V28H0.0500002ZM37.9387 28.6C36.0387 28.6 34.3887 28.2833 32.9887 27.65C31.5887 27.0167 30.5053 26.1167 29.7387 24.95C28.972 23.75 28.5887 22.3667 28.5887 20.8C28.5887 19.3 28.922 17.9667 29.5887 16.8C30.2553 15.6 31.2887 14.6 32.6887 13.8C34.0887 13 35.8553 12.4333 37.9887 12.1L46.8887 10.65V15.65L39.2387 16.95C37.9387 17.1833 36.972 17.6 36.3387 18.2C35.7053 18.8 35.3887 19.5833 35.3887 20.55C35.3887 21.4833 35.7387 22.2333 36.4387 22.8C37.172 23.3333 38.072 23.6 39.1387 23.6C40.5053 23.6 41.7053 23.3167 42.7387 22.75C43.8053 22.15 44.622 21.3333 45.1887 20.3C45.7887 19.2667 46.0887 18.1333 46.0887 16.9V9.9C46.0887 8.73333 45.622 7.76667 44.6887 7C43.7887 6.2 42.5887 5.8 41.0887 5.8C39.6887 5.8 38.4387 6.18333 37.3387 6.95C36.272 7.68333 35.4887 8.66667 34.9887 9.9L29.6387 7.3C30.172 5.86667 31.0053 4.63333 32.1387 3.6C33.3053 2.53333 34.672 1.7 36.2387 1.1C37.8053 0.499997 39.5053 0.199997 41.3387 0.199997C43.572 0.199997 45.5387 0.616665 47.2387 1.45C48.9387 2.25 50.2553 3.38333 51.1887 4.85C52.1553 6.28333 52.6387 7.96667 52.6387 9.9V28H46.4387V23.35L47.8387 23.25C47.1387 24.4167 46.3053 25.4 45.3387 26.2C44.372 26.9667 43.272 27.5667 42.0387 28C40.8053 28.4 39.4387 28.6 37.9387 28.6ZM61.7926 28V21H68.3926V28H61.7926ZM61.7926 7.8V0.799999H68.3926V7.8H61.7926Z" fill="#141414"/>
</svg>
