<svg width="59" height="58" viewBox="0 0 59 58" fill="none" xmlns="http://www.w3.org/2000/svg">
<path d="M11.2454 0.538574H48.6962C54.3742 0.538574 58.9649 5.12928 58.9649 10.8074V46.8085C58.9649 52.4865 54.3742 57.0773 48.6961 57.0773H11.2454C5.56727 57.0772 0.976562 52.4865 0.976562 46.8084V10.8074C0.976562 5.12928 5.56727 0.538574 11.2454 0.538574Z" fill="white"/>
<path d="M14.0239 40.1878V15.3253C14.0239 15.1562 14.0964 15.0595 14.2655 15.0595C14.6763 15.0595 15.0628 15.0595 15.6186 15.0354C16.1985 15.0113 16.8025 15.0113 17.4549 14.987C18.1072 14.9628 18.808 14.9629 19.5569 14.9387C20.3059 14.9146 21.0308 14.9146 21.7556 14.9146C23.7369 14.9146 25.3799 15.1561 26.733 15.6635C27.9411 16.0743 29.0525 16.7508 29.9707 17.6448C30.7439 18.418 31.3479 19.3603 31.7345 20.3992C32.0969 21.414 32.2903 22.4529 32.2903 23.5402C32.2903 25.6182 31.807 27.3336 30.8405 28.6867C29.8741 30.0398 28.521 31.0546 26.9505 31.6344C25.3074 32.2385 23.4953 32.4559 21.514 32.4559C20.9342 32.4559 20.5476 32.4559 20.3059 32.4318C20.0643 32.4077 19.726 32.4077 19.267 32.4077V40.1636C19.2911 40.3327 19.1704 40.4777 19.0012 40.5019C18.9771 40.5019 18.9528 40.5019 18.9046 40.5019H14.3139C14.1205 40.5019 14.0239 40.4053 14.0239 40.1878ZM19.2912 19.7228V27.8412C19.6295 27.8653 19.9436 27.8896 20.2335 27.8896H21.5142C23.1826 27.8896 25.1094 27.4975 26.274 26.1741C27.2762 25.0352 27.279 22.7766 26.4673 21.5351C25.5037 20.0612 23.5767 19.6343 21.9248 19.6746C21.2966 19.6746 20.7409 19.6746 20.2818 19.6987C19.7986 19.6745 19.4603 19.6986 19.2912 19.7228Z" fill="white"/>
<path d="M47.3672 26.3673C46.6424 25.9807 45.8692 25.7149 45.0477 25.5458C44.1538 25.3525 43.2597 25.2317 42.3416 25.2317C41.8584 25.2076 41.351 25.2801 40.8919 25.4008C40.5779 25.4733 40.312 25.6424 40.1429 25.8841C40.0221 26.0774 39.9496 26.319 39.9496 26.5365C39.9496 26.7539 40.0462 26.9714 40.1912 27.1647C40.4086 27.4305 40.6986 27.648 41.0127 27.8171C41.5684 28.107 42.1483 28.3729 42.7282 28.6144C44.0329 29.0493 45.2893 29.6534 46.4491 30.3782C47.2464 30.8856 47.8988 31.5621 48.3578 32.3837C48.7444 33.1569 48.9377 34.0025 48.9136 34.8723C48.9377 36.0079 48.5995 37.1435 47.9713 38.0858C47.2948 39.0522 46.3524 39.8013 45.2652 40.2362C44.0813 40.7436 42.6316 41.0094 40.8919 41.0094C39.7805 41.0094 38.6932 40.9128 37.6059 40.6954C36.7602 40.5504 35.9147 40.2846 35.1414 39.9222C34.9723 39.8255 34.8515 39.6563 34.8756 39.4631V35.259C34.8756 35.1865 34.8998 35.0899 34.9722 35.0415C35.0447 34.9931 35.1172 35.0174 35.1897 35.0656C36.132 35.6214 37.1227 36.0079 38.1857 36.2495C39.1039 36.4911 40.0703 36.612 41.0368 36.612C41.955 36.612 42.6073 36.4911 43.0422 36.2736C43.4288 36.1046 43.6946 35.6938 43.6946 35.2589C43.6946 34.9205 43.5013 34.6065 43.1147 34.2924C42.7282 33.9784 41.9308 33.6159 40.7468 33.1568C39.5146 32.7219 38.3789 32.142 37.3159 31.4171C36.5669 30.8856 35.9387 30.1849 35.4796 29.3634C35.0931 28.5902 34.8998 27.7446 34.9239 26.8989C34.9239 25.86 35.2138 24.8693 35.7453 23.9754C36.3493 23.0089 37.2434 22.2357 38.2823 21.7524C39.418 21.1726 40.8434 20.9067 42.559 20.9067C43.5496 20.9067 44.5644 20.9792 45.555 21.1242C46.2798 21.2208 46.9806 21.4141 47.6329 21.68C47.7296 21.7041 47.8263 21.8008 47.8745 21.8974C47.8987 21.994 47.9229 22.0907 47.9229 22.1874V26.1257C47.9229 26.2223 47.8745 26.319 47.802 26.3673C47.5847 26.4156 47.4639 26.4156 47.3672 26.3673Z" fill="white"/>
<path d="M29.9888 28.8182C29.9888 25.6764 32.5358 23.1294 35.6776 23.1294C38.8195 23.1294 41.3664 25.6764 41.3664 28.8182C41.3664 31.9602 38.8194 34.5071 35.6776 34.5071C32.5357 34.5071 29.9888 31.9601 29.9888 28.8182Z" fill="#333333"/>
<path d="M18.6108 40.1962C18.6108 37.0543 21.1578 34.5073 24.2997 34.5073L27.3313 32.9067L29.9885 34.5073V40.1962C29.9885 43.3381 27.4415 45.885 24.2997 45.885C21.1578 45.885 18.6108 43.338 18.6108 40.1962Z" fill="#333333"/>
<path d="M29.9887 11.7515L26.8931 17.1294L29.9887 23.1291H35.5977C38.7396 23.1291 41.2865 20.5822 41.2865 17.4403C41.2865 14.2985 38.7395 11.7515 35.5977 11.7515H29.9887Z" fill="#333333"/>
<path d="M18.5312 17.4403C18.5312 20.5822 21.0782 23.1291 24.2201 23.1291L27.2379 24.2947L29.9887 23.1291V11.7515H24.22C21.0782 11.7515 18.5312 14.2985 18.5312 17.4403Z" fill="#333333"/>
<path d="M18.6108 28.8183C18.6108 31.9602 21.1578 34.5071 24.2997 34.5071H29.9885V23.1294H24.2997C21.1578 23.1294 18.6108 25.6764 18.6108 28.8183Z" fill="#333333"/>
</svg>
