<svg width="58" height="57" viewBox="0 0 58 57" fill="none" xmlns="http://www.w3.org/2000/svg">
<path d="M10.2688 0H47.7196C53.3976 0 57.9883 4.59071 57.9883 10.2688V46.2699C57.9883 51.9479 53.3976 56.5387 47.7195 56.5387H10.2688C4.59071 56.5386 0 51.9479 0 46.2698V10.2688C0 4.59071 4.59071 0 10.2688 0Z" fill="white"/>
<path d="M13.0469 39.6493V14.7868C13.0469 14.6177 13.1194 14.5209 13.2885 14.5209C13.6992 14.5209 14.0858 14.5209 14.6416 14.4968C15.2214 14.4727 15.8254 14.4727 16.4778 14.4485C17.1302 14.4242 17.8309 14.4243 18.5799 14.4001C19.3289 14.376 20.0537 14.376 20.7786 14.376C22.7598 14.376 24.4028 14.6176 25.7559 15.125C26.9641 15.5357 28.0755 16.2122 28.9937 17.1062C29.7669 17.8794 30.3709 18.8217 30.7574 19.8606C31.1199 20.8754 31.3132 21.9143 31.3132 23.0016C31.3132 25.0796 30.8299 26.795 29.8635 28.1481C28.8971 29.5012 27.544 30.516 25.9734 31.0959C24.3304 31.6999 22.5182 31.9173 20.537 31.9173C19.9571 31.9173 19.5706 31.9173 19.3289 31.8932C19.0873 31.8691 18.749 31.8691 18.2899 31.8691V39.625C18.3141 39.7941 18.1933 39.9391 18.0241 39.9633C18 39.9633 17.9758 39.9633 17.9275 39.9633H13.3368C13.1435 39.9633 13.0469 39.8667 13.0469 39.6493ZM18.3142 19.1843V27.3026C18.6525 27.3267 18.9666 27.351 19.2565 27.351H20.5371C22.2055 27.351 24.1324 26.9589 25.2969 25.6356C26.2991 24.4966 26.302 22.238 25.4902 20.9965C24.5266 19.5227 22.5997 19.0957 20.9478 19.136C20.3195 19.136 19.7639 19.136 19.3047 19.1601C18.8216 19.1359 18.4833 19.16 18.3142 19.1843Z" fill="white"/>
<path d="M46.3902 25.8287C45.6653 25.4421 44.8921 25.1763 44.0707 25.0072C43.1767 24.8139 42.2826 24.6932 41.3646 24.6932C40.8813 24.669 40.3739 24.7415 39.9149 24.8623C39.6008 24.9347 39.335 25.1038 39.1659 25.3455C39.045 25.5389 38.9726 25.7804 38.9726 25.9979C38.9726 26.2154 39.0692 26.4328 39.2141 26.6261C39.4316 26.892 39.7215 27.1094 40.0356 27.2785C40.5914 27.5685 41.1712 27.8343 41.7511 28.0759C43.0559 28.5108 44.3122 29.1148 45.472 29.8396C46.2693 30.347 46.9217 31.0235 47.3808 31.8451C47.7673 32.6183 47.9606 33.4639 47.9365 34.3337C47.9606 35.4694 47.6224 36.6049 46.9942 37.5472C46.3177 38.5136 45.3754 39.2627 44.2881 39.6976C43.1042 40.205 41.6545 40.4709 39.9149 40.4709C38.8035 40.4709 37.7162 40.3743 36.6289 40.1568C35.7832 40.0118 34.9376 39.746 34.1644 39.3836C33.9953 39.287 33.8745 39.1178 33.8986 38.9245V34.7204C33.8986 34.6479 33.9227 34.5513 33.9952 34.5029C34.0677 34.4546 34.1402 34.4788 34.2126 34.5271C35.155 35.0828 36.1456 35.4694 37.2087 35.7109C38.1269 35.9525 39.0933 36.0734 40.0597 36.0734C40.9779 36.0734 41.6303 35.9525 42.0652 35.7351C42.4517 35.566 42.7176 35.1552 42.7176 34.7203C42.7176 34.382 42.5242 34.0679 42.1377 33.7538C41.7511 33.4398 40.9538 33.0773 39.7698 32.6182C38.5375 32.1833 37.4019 31.6034 36.3388 30.8786C35.5899 30.347 34.9616 29.6463 34.5026 28.8248C34.116 28.0516 33.9227 27.206 33.9468 26.3603C33.9468 25.3214 34.2368 24.3307 34.7683 23.4368C35.3723 22.4704 36.2664 21.6971 37.3053 21.2139C38.4409 20.634 39.8664 20.3682 41.5819 20.3682C42.5726 20.3682 43.5874 20.4406 44.5779 20.5856C45.3028 20.6822 46.0035 20.8756 46.6559 21.1414C46.7525 21.1655 46.8492 21.2622 46.8975 21.3588C46.9216 21.4554 46.9458 21.5522 46.9458 21.6488V25.5871C46.9458 25.6837 46.8975 25.7804 46.825 25.8287C46.6076 25.8771 46.4868 25.8771 46.3902 25.8287Z" fill="white"/>
<path d="M29.5161 31.0673C29.5161 27.9254 32.0631 25.3784 35.205 25.3784C38.3468 25.3784 40.8938 27.9255 40.8938 31.0673C40.8938 34.2092 38.3467 36.7561 35.205 36.7561C32.063 36.7561 29.5161 34.2091 29.5161 31.0673Z" fill="#00BCFF"/>
<path d="M18.1382 42.4452C18.1382 39.3033 20.6852 36.7564 23.827 36.7564L26.8587 35.1558L29.5159 36.7564V42.4452C29.5159 45.5871 26.9689 48.134 23.827 48.134C20.6852 48.134 18.1382 45.587 18.1382 42.4452Z" fill="#00CF7F"/>
<path d="M29.5165 14.0005L26.4209 19.3785L29.5165 25.3782H35.1255C38.2674 25.3782 40.8144 22.8312 40.8144 19.6893C40.8144 16.5475 38.2674 14.0005 35.1255 14.0005H29.5165Z" fill="#FF7361"/>
<path d="M18.0586 19.6893C18.0586 22.8312 20.6056 25.3782 23.7474 25.3782L26.7652 26.5438L29.5161 25.3782V14.0005H23.7474C20.6056 14.0005 18.0586 16.5475 18.0586 19.6893Z" fill="#FF4D12"/>
<path d="M18.1387 31.0673C18.1387 34.2092 20.6857 36.7562 23.8275 36.7562H29.5163V25.3784H23.8275C20.6857 25.3784 18.1387 27.9255 18.1387 31.0673Z" fill="#B659FF"/>
</svg>
