<svg width="59" height="57" viewBox="0 0 59 57" fill="none" xmlns="http://www.w3.org/2000/svg">
<path d="M11.2571 0.0776367H48.7079C54.3859 0.0776367 58.9766 4.66834 58.9766 10.3464V46.3476C58.9766 52.0256 54.3859 56.6164 48.7078 56.6164H11.2571C5.57899 56.6163 0.988281 52.0256 0.988281 46.3475V10.3464C0.988281 4.66834 5.57899 0.0776367 11.2571 0.0776367Z" fill="white"/>
<path d="M19.0093 9.36523H20.7137V11.0548H22.2847V9.36523H23.9891V14.4785H22.2847V12.7741H20.7285V14.4785H19.0093V9.36523ZM26.2419 11.0696H24.7376V9.36523H29.458V11.0696H27.9463V14.4785H26.2419V11.0696ZM30.2065 9.36523H31.9924L33.0892 11.166L34.1859 9.36523H35.9718V14.4785H34.2674V11.9441L33.0744 13.7819L31.8813 11.9441V14.4785H30.2065V9.36523ZM36.8166 9.36523H38.5211V12.7889H40.9369V14.4785H36.8166V9.36523Z" fill="#333333"/>
<path d="M18.9499 44.2682L16.5044 16.8198H43.3896L40.9441 44.2534L29.9248 47.3065" fill="#333333"/>
<path d="M29.9473 44.9724V19.0728H40.937L38.8398 42.4898L29.9473 44.9724Z" fill="#333333"/>
<path d="M21.4995 22.4297H29.9474L31.2036 24.1119L29.9474 25.794H25.1899L25.5012 29.2399H29.9474L31.2036 30.985L29.9474 32.5969H22.4184L21.4995 22.4297ZM22.5666 34.2864H25.9458L26.1829 36.9764L29.9474 37.9843L31.3649 39.6635L29.9474 41.4968L23.0409 39.5701L22.5666 34.2864Z" fill="#EBEBEB"/>
<path d="M38.3652 22.4297H29.9321V25.794H38.054L38.3652 22.4297ZM37.7502 29.2399H29.9321V32.6043H34.082L33.6892 36.9764L29.9321 37.9843V41.482L36.8239 39.5701L37.7502 29.2399Z" fill="white"/>
</svg>
