<svg width="58" height="57" viewBox="0 0 58 57" fill="none" xmlns="http://www.w3.org/2000/svg">
<path d="M10.2688 0H47.7196C53.3976 0 57.9883 4.59071 57.9883 10.2688V46.2699C57.9883 51.9479 53.3976 56.5387 47.7195 56.5387H10.2688C4.59071 56.5386 0 51.9479 0 46.2698V10.2688C0 4.59071 4.59071 0 10.2688 0Z" fill="white"/>
<path d="M18.0215 9.2876H19.7259V10.9772H21.2969V9.2876H23.0013V14.4008H21.2969V12.6964H19.7407V14.4008H18.0215V9.2876ZM25.2541 10.992H23.7498V9.2876H28.4703V10.992H26.9585V14.4008H25.2541V10.992ZM29.2187 9.2876H31.0046L32.1014 11.0883L33.1981 9.2876H34.9841V14.4008H33.2796V11.8664L32.0866 13.7042L30.8935 11.8664V14.4008H29.2187V9.2876ZM35.8289 9.2876H37.5333V12.7112H39.9491V14.4008H35.8289V9.2876Z" fill="black"/>
<path d="M17.9621 44.1906L15.5166 16.7422H42.4018L39.9563 44.1758L28.937 47.2289" fill="#FF4C1E"/>
<path d="M28.959 44.8947V18.9951H39.9487L37.8516 42.4122L28.959 44.8947Z" fill="#FF651E"/>
<path d="M20.5112 22.3521H28.9592L30.2153 24.0342L28.9592 25.7164H24.2016L24.5129 29.1623H28.9592L30.2153 30.9074L28.9592 32.5192H21.4301L20.5112 22.3521ZM21.5783 34.2088H24.9575L25.1946 36.8988L28.9592 37.9066L30.3766 39.5858L28.9592 41.4192L22.0526 39.4925L21.5783 34.2088Z" fill="#EBEBEB"/>
<path d="M37.3775 22.3521H28.9443V25.7164H37.0662L37.3775 22.3521ZM36.7624 29.1623H28.9443V32.5266H33.0942L32.7014 36.8988L28.9443 37.9066V41.4044L35.8361 39.4925L36.7624 29.1623Z" fill="white"/>
</svg>
