<svg width="58" height="58" viewBox="0 0 58 58" fill="none" xmlns="http://www.w3.org/2000/svg">
<path d="M0 10C0 4.47716 4.47715 0 10 0H47.9883C53.5112 0 57.9883 4.47715 57.9883 10V47.9883C57.9883 53.5112 53.5112 57.9883 47.9883 57.9883H10C4.47716 57.9883 0 53.5112 0 47.9883V10Z" fill="#FFDF00"/>
<path d="M38.9536 45.3035C40.1217 47.2106 41.6414 48.6124 44.3291 48.6124C46.5869 48.6124 48.0292 47.4839 48.0292 45.9247C48.0292 44.0562 46.5474 43.3944 44.0621 42.3073L42.6999 41.7228C38.7676 40.0476 36.1555 37.9489 36.1555 33.5124C36.1555 29.4256 39.2694 26.3145 44.1358 26.3145C47.6003 26.3145 50.0911 27.5202 51.8859 30.6774L47.6427 33.4019C46.7084 31.7267 45.7005 31.0668 44.1358 31.0668C42.5397 31.0668 41.5281 32.0793 41.5281 33.4019C41.5281 35.0367 42.5406 35.6985 44.8785 36.711L46.2408 37.2945C50.8707 39.2799 53.4847 41.304 53.4847 45.8547C53.4847 50.7607 49.6307 53.4485 44.455 53.4485C39.3944 53.4485 36.125 51.0369 34.5252 47.876L38.9536 45.3035ZM19.7042 45.7757C20.5602 47.2944 21.339 48.5785 23.2111 48.5785C25.0014 48.5785 26.1308 47.878 26.1308 45.1544V26.6257H31.5799V45.2279C31.5799 50.8702 28.2719 53.4384 23.4431 53.4384C19.0802 53.4384 16.5536 51.1805 15.2686 48.461L19.7042 45.7757Z" fill="black"/>
</svg>
