<svg width="59" height="59" viewBox="0 0 59 59" fill="none" xmlns="http://www.w3.org/2000/svg">
<path d="M0.976562 10.0776C0.976562 4.5548 5.45372 0.0776367 10.9766 0.0776367H48.9649C54.4877 0.0776367 58.9649 4.55479 58.9649 10.0776V48.066C58.9649 53.5888 54.4877 58.066 48.9649 58.066H10.9766C5.45372 58.066 0.976562 53.5888 0.976562 48.066V10.0776Z" fill="white"/>
<path d="M39.9302 45.3811C41.0982 47.2883 42.6179 48.6901 45.3057 48.6901C47.5635 48.6901 49.0058 47.5616 49.0058 46.0023C49.0058 44.1338 47.5239 43.472 45.0387 42.385L43.6764 41.8004C39.7442 40.1252 37.132 38.0266 37.132 33.59C37.132 29.5032 40.2459 26.3921 45.1123 26.3921C48.5769 26.3921 51.0677 27.5978 52.8625 30.755L48.6193 33.4796C47.685 31.8044 46.6771 31.1444 45.1123 31.1444C43.5163 31.1444 42.5047 32.1569 42.5047 33.4796C42.5047 35.1144 43.5172 35.7761 45.8551 36.7886L47.2173 37.3722C51.8472 39.3576 54.4612 41.3816 54.4612 45.9323C54.4612 50.8384 50.6073 53.5261 45.4316 53.5261C40.371 53.5261 37.1016 51.1145 35.5018 47.9537L39.9302 45.3811ZM20.6808 45.8533C21.5368 47.3721 22.3155 48.6561 24.1877 48.6561C25.978 48.6561 27.1074 47.9556 27.1074 45.2321V26.7033H32.5565V45.3056C32.5565 50.9479 29.2484 53.516 24.4197 53.516C20.0567 53.516 17.5301 51.2581 16.2451 48.5387L20.6808 45.8533Z" fill="#333333"/>
</svg>
