<svg width="58" height="57" viewBox="0 0 58 57" fill="none" xmlns="http://www.w3.org/2000/svg">
<path d="M10.2688 0H47.7196C53.3976 0 57.9883 4.59071 57.9883 10.2688V46.2699C57.9883 51.9479 53.3976 56.5387 47.7195 56.5387H10.2688C4.59071 56.5386 0 51.9479 0 46.2698V10.2688C0 4.59071 4.59071 0 10.2688 0Z" fill="white"/>
<path d="M13.0479 39.6493V14.7868C13.0479 14.6177 13.1203 14.5209 13.2894 14.5209C13.7002 14.5209 14.0868 14.5209 14.6425 14.4968C15.2224 14.4727 15.8264 14.4727 16.4788 14.4485C17.1312 14.4242 17.8319 14.4243 18.5809 14.4001C19.3298 14.376 20.0547 14.376 20.7796 14.376C22.7608 14.376 24.4038 14.6176 25.7569 15.125C26.9651 15.5357 28.0765 16.2122 28.9946 17.1062C29.7679 17.8794 30.3719 18.8217 30.7584 19.8606C31.1208 20.8754 31.3142 21.9143 31.3142 23.0016C31.3142 25.0796 30.8309 26.795 29.8645 28.1481C28.898 29.5012 27.5449 30.516 25.9744 31.0959C24.3313 31.6999 22.5192 31.9173 20.538 31.9173C19.9581 31.9173 19.5715 31.9173 19.3298 31.8932C19.0883 31.8691 18.75 31.8691 18.2909 31.8691V39.625C18.315 39.7941 18.1943 39.9391 18.0251 39.9633C18.001 39.9633 17.9767 39.9633 17.9285 39.9633H13.3378C13.1445 39.9633 13.0479 39.8667 13.0479 39.6493ZM18.3152 19.1843V27.3026C18.6535 27.3267 18.9675 27.351 19.2575 27.351H20.5381C22.2065 27.351 24.1334 26.9589 25.2979 25.6356C26.3001 24.4966 26.3029 22.238 25.4912 20.9965C24.5276 19.5227 22.6006 19.0957 20.9488 19.136C20.3205 19.136 19.7649 19.136 19.3057 19.1601C18.8226 19.1359 18.4843 19.16 18.3152 19.1843Z" fill="#333333"/>
<path d="M46.3912 25.8287C45.6663 25.4421 44.8931 25.1763 44.0716 25.0072C43.1777 24.8139 42.2836 24.6932 41.3656 24.6932C40.8823 24.669 40.3749 24.7415 39.9158 24.8623C39.6018 24.9347 39.336 25.1038 39.1669 25.3455C39.046 25.5389 38.9735 25.7804 38.9735 25.9979C38.9735 26.2154 39.0701 26.4328 39.2151 26.6261C39.4326 26.892 39.7225 27.1094 40.0366 27.2785C40.5923 27.5685 41.1722 27.8343 41.7521 28.0759C43.0568 28.5108 44.3132 29.1148 45.473 29.8396C46.2703 30.347 46.9227 31.0235 47.3817 31.8451C47.7683 32.6183 47.9616 33.4639 47.9375 34.3337C47.9616 35.4694 47.6234 36.6049 46.9952 37.5472C46.3187 38.5136 45.3764 39.2627 44.2891 39.6976C43.1052 40.205 41.6555 40.4709 39.9158 40.4709C38.8044 40.4709 37.7172 40.3743 36.6299 40.1568C35.7842 40.0118 34.9386 39.746 34.1654 39.3836C33.9963 39.287 33.8754 39.1178 33.8996 38.9245V34.7204C33.8996 34.6479 33.9237 34.5513 33.9962 34.5029C34.0686 34.4546 34.1411 34.4788 34.2136 34.5271C35.1559 35.0828 36.1466 35.4694 37.2096 35.7109C38.1278 35.9525 39.0943 36.0734 40.0607 36.0734C40.9789 36.0734 41.6313 35.9525 42.0662 35.7351C42.4527 35.566 42.7185 35.1552 42.7185 34.7203C42.7185 34.382 42.5252 34.0679 42.1387 33.7538C41.7521 33.4398 40.9548 33.0773 39.7708 32.6182C38.5385 32.1833 37.4029 31.6034 36.3398 30.8786C35.5908 30.347 34.9626 29.6463 34.5036 28.8248C34.117 28.0516 33.9237 27.206 33.9478 26.3603C33.9478 25.3214 34.2377 24.3307 34.7693 23.4368C35.3733 22.4704 36.2673 21.6971 37.3063 21.2139C38.4419 20.634 39.8674 20.3682 41.5829 20.3682C42.5736 20.3682 43.5884 20.4406 44.5789 20.5856C45.3038 20.6822 46.0045 20.8756 46.6569 21.1414C46.7535 21.1655 46.8502 21.2622 46.8985 21.3588C46.9226 21.4554 46.9468 21.5522 46.9468 21.6488V25.5871C46.9468 25.6837 46.8985 25.7804 46.826 25.8287C46.6086 25.8771 46.4878 25.8771 46.3912 25.8287Z" fill="#333333"/>
</svg>
