<svg width="59" height="57" viewBox="0 0 59 57" fill="none" xmlns="http://www.w3.org/2000/svg">
<path d="M11.2453 0H48.6961C54.3742 0 58.9649 4.5907 58.9649 10.2688V46.2699C58.9649 51.948 54.3742 56.5387 48.6961 56.5387H11.2453C5.56726 56.5387 0.976562 51.9478 0.976562 46.2699V10.2688C0.976562 4.5907 5.56726 0 11.2453 0Z" fill="white"/>
<path d="M22.4806 14.376C24.4618 14.376 26.1048 14.6175 27.4579 15.1249C29.73 15.977 31.5986 17.5474 32.4595 19.8607C32.8219 20.8755 33.0152 21.9145 33.0152 23.0017C33.0152 26.5642 31.1356 29.8184 27.6755 31.096C26.0325 31.7 24.2204 31.9175 22.2391 31.9175C21.6592 31.9175 21.2725 31.9175 21.031 31.8933C20.7894 31.8692 20.4511 31.8692 19.9921 31.8692V39.6252C20.0162 39.7943 19.8955 39.9392 19.7263 39.9635C19.7021 39.9635 19.6779 39.9635 19.6297 39.9635H15.039C14.8456 39.9635 14.749 39.8669 14.749 39.6494V14.7866C14.749 14.6175 14.8215 14.5208 14.9906 14.5208C15.4014 14.5208 15.7879 14.5208 16.3437 14.4967L22.4806 14.376ZM20.0161 19.1841V27.3025C20.3544 27.3266 20.6684 27.3509 20.9584 27.3509H22.239C23.1812 27.3509 24.1235 27.2059 25.0175 26.916C26.7478 26.3548 27.7478 24.947 27.7478 23.1468C27.7478 21.6391 26.9508 20.1691 25.5008 19.6191C24.6069 19.2567 23.6404 19.1118 22.6497 19.1359C22.0215 19.1359 21.4658 19.1359 21.0067 19.16C20.5235 19.1358 20.1852 19.16 20.0161 19.1841Z" fill="#333333"/>
<path d="M36.3979 20.5853H40.6262C40.8678 20.5853 41.0611 20.7544 41.1336 20.9719C41.2061 21.1652 41.2544 21.3584 41.2786 21.5759C41.3269 21.8175 41.3752 22.0833 41.3994 22.3248C41.4235 22.5907 41.4478 22.8806 41.4478 23.1946C42.1726 22.349 43.0424 21.6483 44.0331 21.1167C45.1446 20.4885 46.4251 20.1745 47.7057 20.1745C47.8748 20.1503 48.0198 20.2711 48.044 20.4403V20.5369V25.2484C48.044 25.4417 47.9232 25.5142 47.6575 25.5142C46.7877 25.4901 45.8936 25.5626 45.0479 25.7558C44.3472 25.9008 43.6708 26.1182 43.0183 26.4082C42.5593 26.6256 42.1244 26.9155 41.7861 27.3021V39.6246C41.7861 39.8662 41.6895 39.9629 41.472 39.9629H36.7121C36.5188 39.987 36.3497 39.8663 36.3256 39.673C36.3256 39.6489 36.3256 39.6005 36.3256 39.5764V26.1907C36.3256 25.6108 36.3256 25.0067 36.3014 24.3786C36.2773 23.7504 36.2773 23.1222 36.2531 22.494C36.2531 21.9383 36.2047 21.4068 36.1565 20.851C36.1323 20.7302 36.2048 20.6095 36.3256 20.5852C36.3255 20.5611 36.3737 20.5611 36.3979 20.5853Z" fill="#333333"/>
</svg>
