<svg width="58" height="57" viewBox="0 0 58 57" fill="none" xmlns="http://www.w3.org/2000/svg">
<path d="M10.2688 0H47.7196C53.3976 0 57.9883 4.5907 57.9883 10.2688V46.2699C57.9883 51.948 53.3976 56.5387 47.7196 56.5387H10.2688C4.5907 56.5387 0 51.9478 0 46.2699V10.2688C0 4.5907 4.5907 0 10.2688 0Z" fill="#00005B"/>
<path d="M21.5041 14.376C23.4853 14.376 25.1283 14.6175 26.4813 15.1249C28.7535 15.977 30.6221 17.5474 31.4829 19.8607C31.8453 20.8755 32.0387 21.9145 32.0387 23.0017C32.0387 26.5642 30.1591 29.8184 26.6989 31.096C25.0559 31.7 23.2438 31.9175 21.2625 31.9175C20.6826 31.9175 20.296 31.9175 20.0544 31.8933C19.8128 31.8692 19.4745 31.8692 19.0155 31.8692V39.6252C19.0396 39.7943 18.9189 39.9392 18.7497 39.9635C18.7256 39.9635 18.7013 39.9635 18.6531 39.9635H14.0624C13.8691 39.9635 13.7725 39.8669 13.7725 39.6494V14.7866C13.7725 14.6175 13.8449 14.5208 14.014 14.5208C14.4248 14.5208 14.8114 14.5208 15.3671 14.4967L21.5041 14.376ZM19.0395 19.1841V27.3025C19.3778 27.3266 19.6919 27.3509 19.9818 27.3509H21.2624C22.2047 27.3509 23.147 27.2059 24.0409 26.916C25.7712 26.3548 26.7713 24.947 26.7713 23.1468C26.7713 21.6391 25.9743 20.1691 24.5243 19.6191C23.6303 19.2567 22.6638 19.1118 21.6732 19.1359C21.0449 19.1359 20.4892 19.1359 20.0302 19.16C19.5469 19.1358 19.2086 19.16 19.0395 19.1841Z" fill="#9999FF"/>
<path d="M35.4209 20.5853H39.6492C39.8907 20.5853 40.0841 20.7544 40.1566 20.9719C40.229 21.1652 40.2774 21.3584 40.3015 21.5759C40.3499 21.8175 40.3981 22.0833 40.4224 22.3248C40.4465 22.5907 40.4707 22.8806 40.4707 23.1946C41.1956 22.349 42.0654 21.6483 43.056 21.1167C44.1675 20.4885 45.4481 20.1745 46.7287 20.1745C46.8978 20.1503 47.0427 20.2711 47.067 20.4403V20.5369V25.2484C47.067 25.4417 46.9461 25.5142 46.6804 25.5142C45.8106 25.4901 44.9166 25.5626 44.0709 25.7558C43.3702 25.9008 42.6937 26.1182 42.0412 26.4082C41.5822 26.6256 41.1473 26.9155 40.809 27.3021V39.6246C40.809 39.8662 40.7124 39.9629 40.495 39.9629H35.7351C35.5417 39.987 35.3726 39.8663 35.3485 39.673C35.3485 39.6489 35.3485 39.6005 35.3485 39.5764V26.1907C35.3485 25.6108 35.3485 25.0067 35.3244 24.3786C35.3003 23.7504 35.3003 23.1222 35.276 22.494C35.276 21.9383 35.2277 21.4068 35.1794 20.851C35.1553 20.7302 35.2278 20.6095 35.3485 20.5852C35.3484 20.5611 35.3966 20.5611 35.4209 20.5853Z" fill="#9999FF"/>
</svg>
