<svg width="58" height="57" viewBox="0 0 58 57" fill="none" xmlns="http://www.w3.org/2000/svg">
<path d="M10.2688 0H47.7196C53.3976 0 57.9883 4.59071 57.9883 10.2688V46.2699C57.9883 51.9479 53.3976 56.5387 47.7195 56.5387H10.2688C4.59071 56.5386 0 51.9479 0 46.2698V10.2688C0 4.59071 4.59071 0 10.2688 0Z" fill="#001834"/>
<path d="M13.0479 39.6498V14.7873C13.0479 14.6182 13.1203 14.5214 13.2894 14.5214C13.7002 14.5214 14.0868 14.5214 14.6425 14.4973C15.2224 14.4732 15.8264 14.4732 16.4788 14.449C17.1312 14.4247 17.8319 14.4248 18.5809 14.4006C19.3298 14.3765 20.0547 14.3765 20.7796 14.3765C22.7608 14.3765 24.4038 14.618 25.7569 15.1254C26.9651 15.5362 28.0765 16.2127 28.9946 17.1067C29.7679 17.8799 30.3719 18.8222 30.7584 19.8611C31.1208 20.8759 31.3142 21.9148 31.3142 23.0021C31.3142 25.0801 30.8309 26.7955 29.8645 28.1486C28.898 29.5017 27.5449 30.5165 25.9744 31.0964C24.3313 31.7004 22.5192 31.9178 20.538 31.9178C19.9581 31.9178 19.5715 31.9178 19.3298 31.8937C19.0883 31.8696 18.75 31.8696 18.2909 31.8696V39.6255C18.315 39.7946 18.1943 39.9396 18.0251 39.9638C18.001 39.9638 17.9767 39.9638 17.9285 39.9638H13.3378C13.1445 39.9638 13.0479 39.8672 13.0479 39.6498ZM18.3152 19.1847V27.3031C18.6535 27.3272 18.9675 27.3515 19.2575 27.3515H20.5381C22.2065 27.3515 24.1334 26.9594 25.2979 25.6361C26.3001 24.4971 26.3029 22.2385 25.4912 20.997C24.5276 19.5232 22.6006 19.0962 20.9488 19.1365C20.3205 19.1365 19.7649 19.1365 19.3057 19.1606C18.8226 19.1364 18.4843 19.1605 18.3152 19.1847Z" fill="#00A9FF"/>
<path d="M46.3912 25.8292C45.6663 25.4426 44.8931 25.1768 44.0716 25.0077C43.1777 24.8144 42.2836 24.6937 41.3656 24.6937C40.8823 24.6695 40.3749 24.742 39.9158 24.8627C39.6018 24.9352 39.336 25.1043 39.1669 25.346C39.046 25.5394 38.9735 25.7809 38.9735 25.9984C38.9735 26.2158 39.0701 26.4333 39.2151 26.6266C39.4326 26.8925 39.7225 27.1099 40.0366 27.279C40.5923 27.5689 41.1722 27.8348 41.7521 28.0763C43.0568 28.5113 44.3132 29.1153 45.473 29.8401C46.2703 30.3475 46.9227 31.024 47.3817 31.8456C47.7683 32.6188 47.9616 33.4644 47.9375 34.3342C47.9616 35.4699 47.6234 36.6054 46.9952 37.5477C46.3187 38.5141 45.3764 39.2632 44.2891 39.6981C43.1052 40.2055 41.6555 40.4714 39.9158 40.4714C38.8044 40.4714 37.7172 40.3747 36.6299 40.1573C35.7842 40.0123 34.9386 39.7465 34.1654 39.3841C33.9963 39.2875 33.8754 39.1183 33.8996 38.925V34.7209C33.8996 34.6484 33.9237 34.5518 33.9962 34.5034C34.0686 34.4551 34.1411 34.4793 34.2136 34.5275C35.1559 35.0833 36.1466 35.4699 37.2096 35.7114C38.1278 35.953 39.0943 36.0739 40.0607 36.0739C40.9789 36.0739 41.6313 35.953 42.0662 35.7356C42.4527 35.5665 42.7185 35.1557 42.7185 34.7208C42.7185 34.3825 42.5252 34.0684 42.1387 33.7543C41.7521 33.4403 40.9548 33.0778 39.7708 32.6187C38.5385 32.1838 37.4029 31.6039 36.3398 30.879C35.5908 30.3475 34.9626 29.6468 34.5036 28.8253C34.117 28.0521 33.9237 27.2065 33.9478 26.3608C33.9478 25.3219 34.2377 24.3312 34.7693 23.4373C35.3733 22.4708 36.2673 21.6976 37.3063 21.2144C38.4419 20.6345 39.8674 20.3687 41.5829 20.3687C42.5736 20.3687 43.5884 20.4411 44.5789 20.5861C45.3038 20.6827 46.0045 20.876 46.6569 21.1419C46.7535 21.166 46.8502 21.2627 46.8985 21.3593C46.9226 21.4559 46.9468 21.5527 46.9468 21.6493V25.5876C46.9468 25.6842 46.8985 25.7809 46.826 25.8292C46.6086 25.8775 46.4878 25.8775 46.3912 25.8292Z" fill="#00A9FF"/>
</svg>
